<svg xmlns="http://www.w3.org/2000/svg" viewBox="0 0 500 500"><g id="freepik--Floor--inject-63"><path id="freepik--floor--inject-63" d="M83.3,234.88C-8.77,288-8.76,374.21,83.3,427.36s241.34,53.16,333.4,0,92.06-139.33,0-192.48S175.36,181.73,83.3,234.88Z" style="fill:#f5f5f5"></path></g><g id="freepik--Circle--inject-63"><circle id="freepik--circle--inject-63" cx="141.23" cy="164.24" r="99.88" transform="translate(-74.77 147.97) rotate(-45)" style="fill:#5F210B;opacity:0.25"></circle></g><g id="freepik--Shadows--inject-63"><polygon id="freepik--Shadow--inject-63" points="253.36 404.58 194.82 438.37 60.89 361.14 119.42 327.35 253.36 404.58" style="fill:#e0e0e0"></polygon><path id="freepik--shadow--inject-63" d="M409.22,344.08c-10-5.77-15.11-13.15-15.11-20.16,0-5.8,3.51-11.34,10.68-15.49,35.12-20.27,30.71-55.69-9.84-79.1l-4.87-2.82c-40.55-23.42-101.89-25.95-137-5.68l-121.25,70,217.89,125.8,64-36.93c7.17-4.13,10.68-9.68,10.68-15.48C424.34,357.24,419.22,349.84,409.22,344.08Z" style="fill:#e0e0e0"></path><ellipse id="freepik--shadow--inject-63" cx="227.13" cy="359.76" rx="62.53" ry="36.1" style="fill:#e0e0e0"></ellipse></g><g id="freepik--Piano--inject-63"><g id="freepik--piano--inject-63"><polygon points="159.38 291.61 159.38 234.88 168.64 229.53 164.01 288.93 159.38 291.61" style="fill:#37474f"></polygon><polygon points="159.38 291.61 159.38 234.88 150.11 229.53 154.74 288.93 159.38 291.61" style="fill:#455a64"></polygon><path d="M154.74,288.93v2.17l4.63,2.67v-2.16Z" style="fill:#5F210B"></path><path d="M154.74,288.93v2.17l4.63,2.67v-2.16Z" style="fill:#fff;opacity:0.5"></path><polygon points="164.01 288.93 164.01 291.1 159.38 293.77 159.38 291.61 164.01 288.93" style="fill:#5F210B"></polygon><polygon points="349.46 401.35 349.46 344.63 358.72 339.28 354.09 398.67 349.46 401.35" style="fill:#37474f"></polygon><polygon points="349.46 401.35 349.46 344.63 340.19 339.28 344.82 398.67 349.46 401.35" style="fill:#455a64"></polygon><path d="M344.82,398.67v2.17l4.64,2.68v-2.17Z" style="fill:#5F210B"></path><path d="M344.82,398.67v2.17l4.64,2.68v-2.17Z" style="fill:#fff;opacity:0.5"></path><polygon points="354.09 398.67 354.09 400.84 349.46 403.52 349.46 401.35 354.09 398.67" style="fill:#5F210B"></polygon><path d="M428.5,137.62v67a11.42,11.42,0,0,1-5.7,9.88l-3.09,1.78a38,38,0,0,0-10.5-8.57c-10-5.77-15.11-13.15-15.11-20.16,0-5.8,3.52-11.34,10.69-15.49,15.75-9.09,23.54-21.22,23.69-34A3.39,3.39,0,0,0,428.5,137.62Z"></path><path d="M409.22,207.68c-10-5.77-15.11-13.15-15.11-20.16,0-5.8,3.51-11.34,10.68-15.49,35.12-20.27,30.71-55.69-9.84-79.1l-4.87-2.82c-40.55-23.42-101.89-25.95-137-5.68l-90.84,52.45a5.69,5.69,0,0,0-2.85,4.94v25.53a5.69,5.69,0,0,1-2.85,4.94l-22.11,12.77a5.71,5.71,0,0,0-2.85,4.94v28.83l217.9,125.8V315.81a5.73,5.73,0,0,1,2.85-4.95l22.11-12.76a5.69,5.69,0,0,0,2.85-4.94V267.63a5.72,5.72,0,0,1,2.86-4.95l33.53-19.36c7.17-4.13,10.68-9.68,10.68-15.48C424.34,220.84,419.22,213.44,409.22,207.68Z" style="fill:#455a64"></path><path d="M406.37,212.62c-11.42-6.58-18-15.73-18-25.1,0-8.13,4.81-15.38,13.54-20.43,13.45-7.76,20.85-18.21,20.85-29.41,0-14-11.18-28.55-30.69-39.81l-4.87-2.82c-20.47-11.82-47.68-18.6-74.65-18.6-22.1,0-42.22,4.59-56.66,12.92l-88,50.81a5.71,5.71,0,0,0-2.85,4.94v25.53a5.7,5.7,0,0,1-2.85,4.94l-22.11,12.77a5.69,5.69,0,0,0-2.85,4.94v28.83L343.76,341.34V312.52a5.72,5.72,0,0,1,2.86-4.95l22.1-12.76a5.69,5.69,0,0,0,2.86-4.94V264.34a5.71,5.71,0,0,1,2.85-4.95l36.38-21c3.57-2.06,7.83-5.56,7.83-10.54S414.05,217.05,406.37,212.62Z" style="fill:#263238"></path><path d="M388.4,187.52v28.67c0,9.28,6.44,18.36,17.68,24.92l-12.87,7.43L211.56,143.66,255.92,118c14.44-8.33,34.56-12.92,56.66-12.92,27,0,54.18,6.78,74.65,18.6l4.86,2.81c12.67,7.32,21.83,16,26.69,25-3.48,5.81-9.18,11.1-16.84,15.53C393.21,172.14,388.4,179.4,388.4,187.52Z"></path><polygon points="137.28 214.56 137.28 222.13 343.76 341.34 343.76 333.78 137.28 214.56" style="fill:#37474f"></polygon><path d="M357.55,301.27l-10.94,6.3a5.74,5.74,0,0,0-2.85,4.95v21.26L137.28,214.56h0l35.07-20.22h0Z" style="fill:#455a64"></path><path d="M393.21,248.54l-18.78,10.85a5.77,5.77,0,0,0-2.46,2.86L172.34,147,195,134.12Z" style="fill:#455a64"></path><path d="M372,262.25a5.58,5.58,0,0,0-.4,2.08v25.55a5.71,5.71,0,0,1-2.85,4.94l-11.17,6.44L172.37,194.34l0-47.36Z" style="fill:#37474f"></path><path d="M357.55,301.26l-.07,0,.07,0-9.26,5.33-1.68,1-.09.06a5.53,5.53,0,0,0-2.06,2.18,5.64,5.64,0,0,0-.7,2.71v16.7L141.23,212.29v-6.93l31.14-17.94L363.53,297.81Z" style="fill:#455a64"></path><polygon points="147.99 209.26 141.23 205.36 141.23 212.29 147.99 216.19 147.99 209.26" style="fill:#e0e0e0"></polygon><polygon points="155.67 213.7 148.91 209.8 148.91 216.72 155.67 220.62 155.67 213.7" style="fill:#e0e0e0"></polygon><polygon points="163.35 218.14 156.59 214.23 156.59 221.16 163.35 225.06 163.35 218.14" style="fill:#e0e0e0"></polygon><polygon points="171.03 222.57 164.27 218.67 164.27 225.59 171.03 229.5 171.03 222.57" style="fill:#e0e0e0"></polygon><polygon points="178.72 227.01 171.95 223.1 171.95 230.03 178.72 233.93 178.72 227.01" style="fill:#e0e0e0"></polygon><polygon points="186.4 231.44 179.63 227.54 179.63 234.46 186.4 238.37 186.4 231.44" style="fill:#e0e0e0"></polygon><polygon points="194.08 235.88 187.32 231.97 187.32 238.9 194.08 242.8 194.08 235.88" style="fill:#e0e0e0"></polygon><polygon points="201.76 240.31 195 236.41 195 243.33 201.76 247.24 201.76 240.31" style="fill:#e0e0e0"></polygon><polygon points="209.44 244.75 202.68 240.84 202.68 247.77 209.44 251.67 209.44 244.75" style="fill:#e0e0e0"></polygon><polygon points="217.12 249.18 210.36 245.28 210.36 252.2 217.12 256.11 217.12 249.18" style="fill:#e0e0e0"></polygon><polygon points="224.81 253.62 218.04 249.72 218.04 256.64 224.81 260.54 224.81 253.62" style="fill:#e0e0e0"></polygon><polygon points="232.49 258.05 225.72 254.15 225.72 261.07 232.49 264.98 232.49 258.05" style="fill:#e0e0e0"></polygon><polygon points="240.17 262.49 233.41 258.59 233.41 265.51 240.17 269.41 240.17 262.49" style="fill:#e0e0e0"></polygon><polygon points="247.85 266.92 241.09 263.02 241.09 269.94 247.85 273.85 247.85 266.92" style="fill:#e0e0e0"></polygon><polygon points="255.53 271.36 248.77 267.46 248.77 274.38 255.53 278.28 255.53 271.36" style="fill:#e0e0e0"></polygon><polygon points="263.21 275.79 256.45 271.89 256.45 278.81 263.21 282.72 263.21 275.79" style="fill:#e0e0e0"></polygon><polygon points="270.9 280.23 264.13 276.33 264.13 283.25 270.9 287.15 270.9 280.23" style="fill:#e0e0e0"></polygon><polygon points="278.58 284.66 271.81 280.76 271.82 287.69 278.58 291.59 278.58 284.66" style="fill:#e0e0e0"></polygon><polygon points="286.26 289.1 279.5 285.2 279.5 292.12 286.26 296.02 286.26 289.1" style="fill:#e0e0e0"></polygon><polygon points="293.94 293.53 287.18 289.63 287.18 296.56 293.94 300.46 293.94 293.53" style="fill:#e0e0e0"></polygon><polygon points="301.62 297.97 294.86 294.07 294.86 300.99 301.62 304.89 301.62 297.97" style="fill:#e0e0e0"></polygon><polygon points="309.31 302.4 302.54 298.5 302.54 305.43 309.31 309.33 309.31 302.4" style="fill:#e0e0e0"></polygon><polygon points="316.99 306.84 310.22 302.94 310.22 309.86 316.99 313.76 316.99 306.84" style="fill:#e0e0e0"></polygon><polygon points="324.67 311.27 317.91 307.37 317.91 314.3 324.67 318.2 324.67 311.27" style="fill:#e0e0e0"></polygon><polygon points="332.35 315.71 325.59 311.81 325.59 318.73 332.35 322.63 332.35 315.71" style="fill:#e0e0e0"></polygon><polygon points="340.03 320.14 333.27 316.24 333.27 323.17 340.03 327.07 340.03 320.14" style="fill:#e0e0e0"></polygon><polygon points="343.76 322.3 343.76 329.22 340.95 327.6 340.95 320.68 343.76 322.3" style="fill:#e0e0e0"></polygon><polygon points="172.36 187.42 141.23 205.36 147.99 209.26 179.12 191.32 172.36 187.42" style="fill:#f5f5f5"></polygon><polygon points="180.04 191.86 148.91 209.8 155.67 213.7 186.8 195.76 180.04 191.86" style="fill:#f5f5f5"></polygon><polygon points="187.72 196.29 156.59 214.23 163.35 218.13 194.48 200.19 187.72 196.29" style="fill:#f5f5f5"></polygon><polygon points="195.41 200.73 164.27 218.67 171.03 222.57 202.16 204.63 195.41 200.73" style="fill:#f5f5f5"></polygon><polygon points="203.09 205.16 171.95 223.1 178.72 227 209.85 209.07 203.09 205.16" style="fill:#f5f5f5"></polygon><polygon points="210.77 209.6 179.63 227.54 186.4 231.44 217.53 213.5 210.77 209.6" style="fill:#f5f5f5"></polygon><polygon points="218.45 214.03 187.32 231.97 194.08 235.88 225.21 217.94 218.45 214.03" style="fill:#f5f5f5"></polygon><polygon points="226.13 218.47 195 236.41 201.76 240.31 232.89 222.37 226.13 218.47" style="fill:#f5f5f5"></polygon><polygon points="233.81 222.91 202.68 240.84 209.44 244.75 240.57 226.81 233.81 222.91" style="fill:#f5f5f5"></polygon><polygon points="241.5 227.34 210.36 245.28 217.12 249.18 248.25 231.25 241.5 227.34" style="fill:#f5f5f5"></polygon><polygon points="249.18 231.78 218.04 249.72 224.81 253.62 255.94 235.68 249.18 231.78" style="fill:#f5f5f5"></polygon><polygon points="256.86 236.22 225.72 254.15 232.49 258.05 263.62 240.12 256.86 236.22" style="fill:#f5f5f5"></polygon><polygon points="264.54 240.65 233.41 258.59 240.17 262.49 271.3 244.55 264.54 240.65" style="fill:#f5f5f5"></polygon><polygon points="272.22 245.09 241.09 263.02 247.85 266.92 278.98 248.99 272.22 245.09" style="fill:#f5f5f5"></polygon><polygon points="279.9 249.52 248.77 267.46 255.53 271.36 286.66 253.43 279.9 249.52" style="fill:#f5f5f5"></polygon><polygon points="287.59 253.96 256.45 271.89 263.21 275.79 294.35 257.86 287.59 253.96" style="fill:#f5f5f5"></polygon><polygon points="295.27 258.39 264.13 276.33 270.9 280.23 302.03 262.3 295.27 258.39" style="fill:#f5f5f5"></polygon><polygon points="302.95 262.83 271.81 280.76 278.58 284.66 309.71 266.73 302.95 262.83" style="fill:#f5f5f5"></polygon><polygon points="310.63 267.26 279.5 285.2 286.26 289.1 317.39 271.17 310.63 267.26" style="fill:#f5f5f5"></polygon><polygon points="318.31 271.7 287.18 289.63 293.94 293.53 325.07 275.6 318.31 271.7" style="fill:#f5f5f5"></polygon><polygon points="326 276.14 294.86 294.07 301.62 297.97 332.75 280.04 326 276.14" style="fill:#f5f5f5"></polygon><polygon points="333.68 280.57 302.54 298.5 309.31 302.4 340.44 284.48 333.68 280.57" style="fill:#f5f5f5"></polygon><polygon points="341.36 285.01 310.22 302.94 316.99 306.84 348.12 288.91 341.36 285.01" style="fill:#f5f5f5"></polygon><polygon points="349.04 289.44 317.91 307.37 324.67 311.27 355.8 293.35 349.04 289.44" style="fill:#f5f5f5"></polygon><polygon points="356.72 293.88 325.59 311.81 332.35 315.71 363.48 297.78 356.72 293.88" style="fill:#f5f5f5"></polygon><path d="M344.46,309.81a5.64,5.64,0,0,0-.7,2.71V318L340,320.15l-6.76-3.91Z" style="fill:#f5f5f5"></path><polygon points="343.76 319.06 343.76 322.3 340.95 320.68 343.76 319.06" style="fill:#f5f5f5"></polygon><polygon points="164.81 200.65 160.43 198.12 160.43 200.18 164.81 202.7 164.81 200.65" style="fill:#37474f"></polygon><polygon points="164.81 200.65 181.82 190.83 181.82 192.88 164.81 202.7 164.81 200.65" style="fill:#263238"></polygon><polygon points="177.44 188.3 160.43 198.12 164.81 200.65 181.82 190.83 177.44 188.3" style="fill:#455a64"></polygon><polygon points="172.5 205.09 168.12 202.56 168.12 204.61 172.5 207.14 172.5 205.09" style="fill:#37474f"></polygon><polygon points="172.5 205.09 189.51 195.26 189.51 197.32 172.5 207.14 172.5 205.09" style="fill:#263238"></polygon><polygon points="185.13 192.74 168.12 202.56 172.5 205.09 189.51 195.27 185.13 192.74" style="fill:#455a64"></polygon><polygon points="187.84 213.95 183.47 211.42 183.47 213.47 187.84 216 187.84 213.95" style="fill:#37474f"></polygon><polygon points="187.84 213.95 204.85 204.13 204.85 206.18 187.84 216 187.84 213.95" style="fill:#263238"></polygon><polygon points="200.48 201.6 183.47 211.42 187.84 213.94 204.85 204.13 200.48 201.6" style="fill:#455a64"></polygon><polygon points="195.53 218.38 191.16 215.86 191.16 217.91 195.53 220.44 195.53 218.38" style="fill:#37474f"></polygon><polygon points="195.53 218.38 212.54 208.56 212.54 210.62 195.53 220.44 195.53 218.38" style="fill:#263238"></polygon><polygon points="208.17 206.04 191.16 215.86 195.53 218.38 212.54 208.56 208.17 206.04" style="fill:#455a64"></polygon><polygon points="203.22 222.82 198.84 220.3 198.84 222.35 203.22 224.88 203.22 222.82" style="fill:#37474f"></polygon><polygon points="203.22 222.82 220.23 213 220.23 215.06 203.22 224.88 203.22 222.82" style="fill:#263238"></polygon><polygon points="215.86 210.48 198.84 220.3 203.22 222.82 220.23 213 215.86 210.48" style="fill:#455a64"></polygon><polygon points="218.58 231.7 214.2 229.17 214.2 231.22 218.58 233.75 218.58 231.7" style="fill:#37474f"></polygon><polygon points="218.58 231.7 235.59 221.88 235.59 223.93 218.58 233.75 218.58 231.7" style="fill:#263238"></polygon><polygon points="231.22 219.35 214.2 229.17 218.58 231.7 235.59 221.88 231.22 219.35" style="fill:#455a64"></polygon><polygon points="226.27 236.13 221.89 233.61 221.89 235.66 226.27 238.19 226.27 236.13" style="fill:#37474f"></polygon><polygon points="226.27 236.13 243.28 226.31 243.28 228.37 226.27 238.19 226.27 236.13" style="fill:#263238"></polygon><polygon points="238.91 223.79 221.89 233.61 226.27 236.13 243.28 226.31 238.91 223.79" style="fill:#455a64"></polygon><polygon points="241.62 245 237.24 242.47 237.24 244.52 241.62 247.05 241.62 245" style="fill:#37474f"></polygon><polygon points="241.62 245 258.63 235.17 258.63 237.23 241.62 247.05 241.62 245" style="fill:#263238"></polygon><polygon points="254.25 232.65 237.24 242.47 241.62 244.99 258.63 235.18 254.25 232.65" style="fill:#455a64"></polygon><polygon points="249.31 249.43 244.93 246.91 244.93 248.96 249.31 251.49 249.31 249.43" style="fill:#37474f"></polygon><polygon points="249.31 249.43 266.32 239.61 266.32 241.67 249.31 251.49 249.31 249.43" style="fill:#263238"></polygon><polygon points="261.94 237.09 244.93 246.91 249.31 249.43 266.32 239.61 261.94 237.09" style="fill:#455a64"></polygon><polygon points="256.99 253.87 252.62 251.35 252.62 253.4 256.99 255.93 256.99 253.87" style="fill:#37474f"></polygon><polygon points="256.99 253.87 274 244.05 274 246.1 256.99 255.93 256.99 253.87" style="fill:#263238"></polygon><polygon points="269.63 241.53 252.62 251.35 256.99 253.87 274 244.05 269.63 241.53" style="fill:#455a64"></polygon><polygon points="272.35 262.75 267.97 260.22 267.97 262.28 272.35 264.8 272.35 262.75" style="fill:#37474f"></polygon><polygon points="272.35 262.75 289.36 252.93 289.36 254.98 272.35 264.8 272.35 262.75" style="fill:#263238"></polygon><polygon points="284.98 250.4 267.97 260.22 272.35 262.75 289.36 252.93 284.98 250.4" style="fill:#455a64"></polygon><polygon points="280.04 267.19 275.66 264.66 275.66 266.71 280.04 269.24 280.04 267.19" style="fill:#37474f"></polygon><polygon points="280.04 267.19 297.05 257.37 297.05 259.42 280.04 269.24 280.04 267.19" style="fill:#263238"></polygon><polygon points="292.67 254.84 275.66 264.66 280.04 267.19 297.05 257.37 292.67 254.84" style="fill:#455a64"></polygon><polygon points="295.38 276.05 291.01 273.52 291.01 275.57 295.38 278.1 295.38 276.05" style="fill:#37474f"></polygon><polygon points="295.38 276.05 312.39 266.23 312.39 268.28 295.38 278.1 295.38 276.05" style="fill:#263238"></polygon><polygon points="308.02 263.7 291.01 273.52 295.38 276.05 312.39 266.23 308.02 263.7" style="fill:#455a64"></polygon><polygon points="303.07 280.49 298.69 277.96 298.69 280.01 303.07 282.54 303.07 280.49" style="fill:#37474f"></polygon><polygon points="303.07 280.49 320.08 270.67 320.08 272.72 303.07 282.54 303.07 280.49" style="fill:#263238"></polygon><polygon points="315.71 268.14 298.69 277.96 303.07 280.49 320.08 270.67 315.71 268.14" style="fill:#455a64"></polygon><polygon points="310.76 284.92 306.38 282.4 306.38 284.45 310.76 286.98 310.76 284.92" style="fill:#37474f"></polygon><polygon points="310.76 284.92 327.77 275.1 327.77 277.16 310.76 286.98 310.76 284.92" style="fill:#263238"></polygon><polygon points="323.39 272.58 306.38 282.4 310.76 284.92 327.77 275.1 323.39 272.58" style="fill:#455a64"></polygon><polygon points="326.11 293.79 321.73 291.27 321.73 293.32 326.11 295.85 326.11 293.79" style="fill:#37474f"></polygon><polygon points="326.11 293.79 343.12 283.97 343.12 286.02 326.11 295.85 326.11 293.79" style="fill:#263238"></polygon><polygon points="338.74 281.44 321.73 291.27 326.11 293.79 343.12 283.97 338.74 281.44" style="fill:#455a64"></polygon><polygon points="333.79 298.23 329.42 295.7 329.42 297.76 333.79 300.28 333.79 298.23" style="fill:#37474f"></polygon><polygon points="333.79 298.23 350.8 288.41 350.8 290.46 333.79 300.28 333.79 298.23" style="fill:#263238"></polygon><polygon points="346.43 285.88 329.42 295.7 333.79 298.23 350.8 288.41 346.43 285.88" style="fill:#455a64"></polygon><path d="M348.29,306.6l-1.68,1-.09.06-1.76-1v-2.05Z" style="fill:#37474f"></path><path d="M357.55,301.26l-.07,0,.07,0-9.26,5.33-3.53-2,17-9.83,3.53,2Z" style="fill:#455a64"></path><path d="M343.76,333.78c-.08-8-.17-12.71-.19-21a6.17,6.17,0,0,1,3.58-5.77l18.15-10.55,3-1.76a5.65,5.65,0,0,0,3-5.57c0-6.36,0-18,.08-24.49A6.1,6.1,0,0,1,375,258.9l6.07-3.47,12.18-6.89-12,7.11-6,3.53a5.74,5.74,0,0,0-3.36,5.47c0,6.53.08,18.09.08,24.49.28,4.6-2.83,5.89-6.26,7.81l-18.22,10.43a5.75,5.75,0,0,0-3.42,5.41c0,8.28-.1,13-.18,21Z" style="fill:#263238"></path><path d="M424.34,227.85v67a11.43,11.43,0,0,1-5.71,9.89l-69.18,39.94V315.81a5.71,5.71,0,0,1,2.86-4.94l22.11-12.76a5.74,5.74,0,0,0,2.85-4.95V267.62a5.74,5.74,0,0,1,2.85-4.94l33.53-19.36C420.82,239.19,424.34,233.64,424.34,227.85Z"></path><path d="M422.85,164.07c-1.16,5.37-6,11.18-14.45,16.37l-42.84,26.35v6.72l42.84-26.34c8.45-5.18,13.29-11,14.45-16.38a11.67,11.67,0,0,0,.28-2.53V161.6A11.08,11.08,0,0,1,422.85,164.07Z" style="fill:#263238"></path><path d="M445.93,74v6.86h0c-.07,13.41-11,28.51-32.64,41.79-8,4.9-12.72,10.34-14.21,15.45a10.89,10.89,0,0,1-.24-5.79c1.16-5.38,6-11.19,14.45-16.38C435,102.6,445.93,87.44,445.93,74Z" style="fill:#263238"></path><path d="M410.83,148.19c-9.46-3.47-13.42-9.37-12-15.87,1.16-5.38,6-11.19,14.44-16.39,41.36-25.42,43.78-57.47,5.4-71.57l-4.61-1.7c-38.38-14.11-103-4.93-144.38,20.49L159.33,131l206.23,75.8,42.85-26.35c8.44-5.19,13.28-11,14.44-16.38C424.26,157.56,420.29,151.66,410.83,148.19Z" style="fill:#455a64"></path><path d="M269.67,63.15l-33.49,20.6,55,95.72,71.72,26.35L278.13,58.35C275.22,59.88,272.39,61.48,269.67,63.15Zm55.56-21.78a211.31,211.31,0,0,0-26.9,8L382.77,196.2l23.28-14.31Z" style="fill:#fff;opacity:0.05"></path><polygon points="159.33 130.99 159.33 137.72 365.56 213.52 365.56 206.78 159.33 130.99" style="fill:#37474f"></polygon></g></g><g id="freepik--Character--inject-63"><g id="freepik--character--inject-63"><g id="freepik--Bottom--inject-63"><path d="M244,345.81a12.65,12.65,0,0,1-.26,3.44c-.24,1.49-3.9,6.4-10.67,9.13s-14.57,2.2-18.45,3.06-7.63,3.82-12.18,4.64-10.78,1.34-13.83-2.38c-.75-1.33-.72-3.31-.44-3.58C188.88,359.39,244,345.81,244,345.81Z"></path><path d="M206.58,337.17c.34-1.53,2.27,1.55,3.35,1.75,3.18.61,7.8,0,12.67-.29,6.15-.33,13.15-2.06,17.21-.37s6.72,7.5.73,13.42a24.54,24.54,0,0,1-7.07,4.56c-7.83,3-14,2.13-18.51,3-5.92,1.08-9.64,4.48-15.07,4.78-7,.38-10.82-.74-12.06-4.62s.2-8-.44-12.49c-.45-3.06-.29-4,1.05-4,0,0,.36,1,3.35,1.46,5.35.8,6.43-1.36,12.15,3.5,1.76,1.5,2.78.59,3,.26.86-1.14,1.1-2.83.62-5.56C207.24,340.54,207,339.21,206.58,337.17Z" style="fill:#37474f"></path><path d="M205.88,292.77c2.17,14.82,4.66,32.92,6.26,46.39-1.54,16.34-19,15.07-25.2,11.91-3.67-16.32-11.94-39.26-12.58-57.86Z" style="fill:#263238"></path><path d="M177.43,314.34c2.62-2.88,9.34-10,10.37-12.71,0,4.85-5.69,13-9.71,15.65Z"></path><path d="M278.8,361.45a13.11,13.11,0,0,1-.27,3.44c-.24,1.5-3.9,6.41-10.66,9.14s-14.58,2.19-18.45,3.06-7.63,3.82-12.19,4.64-10.77,1.34-13.83-2.38c-.75-1.33-.72-3.31-.44-3.59C223.72,375,278.8,361.45,278.8,361.45Z"></path><path d="M241.43,352.82c.33-1.54,2.26,1.55,3.34,1.75,3.18.6,7.8,0,12.67-.29,6.15-.33,13.15-2.06,17.21-.37s6.72,7.5.73,13.42a24.54,24.54,0,0,1-7.07,4.56c-7.83,3-13.95,2.13-18.5,3-5.92,1.09-9.65,4.48-15.08,4.78-7,.39-10.82-.74-12-4.61s.2-8-.45-12.49c-.44-3.06-.29-4,1.05-4,0,0,.37,1,3.35,1.47,5.35.8,6.43-1.37,12.15,3.5,1.76,1.49,2.78.59,3,.26.86-1.14,1.1-2.83.62-5.56C242.09,356.19,241.81,354.85,241.43,352.82Z" style="fill:#37474f"></path><path d="M240.72,308.42c2.17,14.82,4.66,32.92,6.27,46.38-1.55,16.35-19,15.08-25.21,11.91-3.67-16.31-11.94-39.25-12.58-57.85Z" style="fill:#263238"></path><path d="M212.27,330c2.62-2.87,9.34-10,10.38-12.71,0,4.86-5.7,13-9.71,15.66Z"></path><polygon points="192.51 426.67 192.51 383.73 201.77 378.38 197.14 424 192.51 426.67" style="fill:#37474f"></polygon><polygon points="192.51 426.67 192.51 383.73 183.24 378.38 187.87 424 192.51 426.67" style="fill:#455a64"></polygon><path d="M187.87,424v2.16l4.64,2.68v-2.17Z" style="fill:#5F210B"></path><path d="M187.87,424v2.16l4.64,2.68v-2.17Z" style="fill:#fff;opacity:0.5"></path><polygon points="197.14 424 197.14 426.16 192.51 428.84 192.51 426.67 197.14 424" style="fill:#5F210B"></polygon><polygon points="81.38 362.44 81.38 319.5 90.65 314.15 86.02 359.76 81.38 362.44" style="fill:#37474f"></polygon><polygon points="81.38 362.44 81.38 319.5 72.12 314.15 76.75 359.76 81.38 362.44" style="fill:#455a64"></polygon><path d="M76.75,359.76v2.17l4.63,2.67v-2.16Z" style="fill:#5F210B"></path><path d="M76.75,359.76v2.17l4.63,2.67v-2.16Z" style="fill:#fff;opacity:0.5"></path><polygon points="86.02 359.76 86.02 361.93 81.38 364.6 81.38 362.44 86.02 359.76" style="fill:#5F210B"></polygon><polygon points="234.5 402.44 234.5 359.5 243.76 354.15 239.14 399.77 234.5 402.44" style="fill:#37474f"></polygon><polygon points="234.5 402.44 234.5 359.5 225.24 354.15 229.87 399.77 234.5 402.44" style="fill:#455a64"></polygon><path d="M229.86,399.77v2.17l4.63,2.67v-2.17Z" style="fill:#5F210B"></path><path d="M229.86,399.77v2.17l4.63,2.67v-2.17Z" style="fill:#fff;opacity:0.5"></path><polygon points="239.14 399.77 239.14 401.94 234.5 404.61 234.5 402.44 239.14 399.77" style="fill:#5F210B"></polygon><polygon points="123.38 338.21 123.38 295.27 132.64 289.92 128.01 335.53 123.38 338.21" style="fill:#37474f"></polygon><polygon points="123.38 338.21 123.38 295.27 114.11 289.92 118.74 335.53 123.38 338.21" style="fill:#455a64"></polygon><path d="M118.74,335.53v2.17l4.64,2.68v-2.17Z" style="fill:#5F210B"></path><path d="M118.74,335.53v2.17l4.64,2.68v-2.17Z" style="fill:#fff;opacity:0.5"></path><polygon points="128.01 335.53 128.01 337.7 123.38 340.38 123.38 338.21 128.01 335.53" style="fill:#5F210B"></polygon><polygon points="243.55 361.77 192.51 391.2 72.39 321.79 123.43 292.36 243.55 361.77" style="fill:#455a64"></polygon><polygon points="243.55 361.77 192.51 391.2 192.51 401.95 243.55 372.52 243.55 361.77"></polygon><polygon points="72.39 321.79 72.39 332.54 192.51 401.95 192.51 391.2 72.39 321.79" style="fill:#37474f"></polygon><path d="M246.6,349.08,126.18,279.53a1.44,1.44,0,0,0-1.47.15l-51.2,30a4.58,4.58,0,0,0-2.09,3.61v8.73a1.47,1.47,0,0,0,.61,1.36L192.45,393a1.46,1.46,0,0,0,1.47-.14l51.2-30a4.61,4.61,0,0,0,2.09-3.61v-8.74A1.47,1.47,0,0,0,246.6,349.08Z" style="fill:#5F210B"></path><g style="opacity:0.8"><path d="M246.6,349.08,126.18,279.53a1.44,1.44,0,0,0-1.47.15l-51.2,30a4.58,4.58,0,0,0-2.09,3.61v8.73a1.47,1.47,0,0,0,.61,1.36L192.45,393a1.46,1.46,0,0,0,1.47-.14l51.2-30a4.61,4.61,0,0,0,2.09-3.61v-8.74A1.47,1.47,0,0,0,246.6,349.08Z" style="fill:#fff"></path></g><path d="M192.44,393,72,323.4a1.47,1.47,0,0,1-.61-1.34v-8.74a4.44,4.44,0,0,1,.7-2.2l120.41,69.55a4.37,4.37,0,0,0-.69,2.2v8.73A1.46,1.46,0,0,0,192.44,393Z" style="fill:#5F210B"></path><g style="opacity:0.6000000000000001"><path d="M192.44,393,72,323.4a1.47,1.47,0,0,1-.61-1.34v-8.74a4.44,4.44,0,0,1,.7-2.2l120.41,69.55a4.37,4.37,0,0,0-.69,2.2v8.73A1.46,1.46,0,0,0,192.44,393Z" style="fill:#fff"></path></g><g style="opacity:0.4"><path d="M191.83,391.6v-8.73a4.64,4.64,0,0,1,2.09-3.62l51.2-30a1.27,1.27,0,0,1,2.09,1.2v8.74a4.61,4.61,0,0,1-2.09,3.61l-51.2,30a1.27,1.27,0,0,1-2.09-1.21Z" style="fill:#5F210B"></path></g><g id="freepik--bottom--inject-63"><path d="M116.62,305.11S155.5,292.42,170,288.26c9.06-2.6,18.5-8,25.37-7.12,5.54.75,13.91,5.4,15.14,16.63.19,1.37.38,3.34.38,3.34s-18,14.51-38.72,15.83S116.62,305.11,116.62,305.11Z"></path><path d="M116.62,305.11c-.54,11.39.51,25.79,8.85,33.35,6.06,5.51,25.49,20.42,48.4,14.11,17.27-4.77,33.7-18,40.6-24.63,2.54-2.44,9-12.76,9-12.76s17.5-5.38,17.27-6.76c-2.36-14-10.68-19.68-25.32-17.42-16.28,2.51-48.85,20-48.85,20Z" style="fill:#263238"></path></g></g><g id="freepik--Top--inject-63"><path d="M164.6,160.75c-5.34-5-10.59-10.17-14.51-11.37-2.16-.67-10.13.6-18.48,6-10.25,6.57-13.26,13-13.1,14.83.66,7,3.65,16.36,6.43,22.19C128.92,178.46,149.7,160.83,164.6,160.75Z" style="fill:#5F210B"></path><path d="M164.6,160.75c-5.34-5-10.59-10.17-14.51-11.37-2.16-.67-10.13.6-18.48,6-10.25,6.57-13.26,13-13.1,14.83.66,7,3.65,16.36,6.43,22.19C128.92,178.46,149.7,160.83,164.6,160.75Z" style="opacity:0.2"></path><path d="M156.56,153.44a63.21,63.21,0,0,0-36.62,24.66,80.56,80.56,0,0,0,5,14.26c4-13.9,24.76-31.53,39.66-31.61C161.84,158.17,159.1,155.54,156.56,153.44Z" style="fill:#37474f"></path><g id="freepik--Arm--inject-63"><path d="M180,245.64c1.49-1.79,2.94-3.8,5.06-4.7a31.79,31.79,0,0,1,5.2-1.58c1.59-.38,3.22-.5,4.77-1,3.14-.94,5.62-3,8.56-4.24.6-.24,1.21-.67,1.29-1.3a1.47,1.47,0,0,0-.35-1.08c-.83-1.08-2.4-1.21-3.75-1.05a12.54,12.54,0,0,0-2.86.67c-.53.21-1.37.17-1.18-.66a1.8,1.8,0,0,1,.66-.88c3.16-2.69,6.94-4.58,10.16-7.2a7.84,7.84,0,0,0,3.16-4.44,1.49,1.49,0,0,0-.22-1.27c-.52-.59-1.49-.27-2.19.09-3.27,1.7-5.86,2.9-9.14,4.59a32.7,32.7,0,0,1,4.59-3.76c1.17-.82,2.41-1.56,3.65-2.27a6.46,6.46,0,0,0,2.5-1.94,2.09,2.09,0,0,0,.11-2c-.32-.56-1.12-.56-1.69-.48a.69.69,0,0,1-.43,0,.74.74,0,0,1-.18-.21,2,2,0,0,0-1.5-.75,5.51,5.51,0,0,0-1.71.23,30.92,30.92,0,0,0-5,1.79,4,4,0,0,1-1.05.38,5.1,5.1,0,0,1-1.17,0,13.85,13.85,0,0,0-6.78,1.54,27.44,27.44,0,0,0-5.65,3.21c-3.73,2.89-6.82,6.51-10.26,9.72-.59.55-1.19,1.1-1.8,1.63-4.62,4-11.46,10.35-17.29,15.65-.49.44-1,.9-1.45,1.36Z" style="fill:#9e6767"></path><path d="M206.07,211.7a22.19,22.19,0,0,0-7.74,3.72,36.83,36.83,0,0,0-7,6.2s0,.12,0,.09a39,39,0,0,0,3.51-2.79c1.17-1,2.36-1.91,3.59-2.81s2.4-1.64,3.65-2.38a34.92,34.92,0,0,1,4-1.85C206.16,211.85,206.16,211.68,206.07,211.7Z" style="fill:#874c4c"></path><path d="M197.54,212.82a29.26,29.26,0,0,0-4.35,2,34,34,0,0,0-3.61,2.55c-.35.3-.71.6-1.05.92-.19.18-.91.76-.8,1a1.46,1.46,0,0,0,.71-.45,32.66,32.66,0,0,1,4.08-3,51.44,51.44,0,0,1,5-2.89C197.64,213,197.63,212.78,197.54,212.82Z" style="fill:#874c4c"></path><path d="M125.32,219.13c-7.06.41-16,5.73-17.34,18.38-1.24,12,3.49,36.12,5.16,42.53,2.23,8.6,6.32,8.6,10.59,6.46s24.38-11.37,32-14.75Z" style="fill:#263238"></path></g><ellipse cx="147.09" cy="179.62" rx="35.26" ry="15.65" transform="translate(-75.37 113.2) rotate(-34.06)" style="fill:#5F210B"></ellipse><ellipse cx="147.09" cy="179.62" rx="35.26" ry="15.65" transform="translate(-75.37 113.2) rotate(-34.06)" style="opacity:0.2"></ellipse><ellipse cx="147.9" cy="180.82" rx="35.26" ry="15.65" transform="translate(-75.9 113.85) rotate(-34.06)" style="fill:#5F210B"></ellipse><ellipse cx="147.9" cy="180.82" rx="35.26" ry="15.65" transform="translate(-75.9 113.85) rotate(-34.06)" style="opacity:0.4"></ellipse><path d="M171.82,172.07c1-1.69.18-3.58-1.1-4.95a10.48,10.48,0,0,0-4.81-2.68l-2.14,1.48a8.6,8.6,0,0,0,1.47,13.47,5,5,0,0,0,6.29-1.11,4.41,4.41,0,0,0-.08-5.67A3.23,3.23,0,0,0,171.82,172.07Z" style="fill:#263238"></path><path d="M172.73,205.16c-1.39,4.07-3.95,6.79-7.27,7.65a22.87,22.87,0,0,1-7.39.71,66,66,0,0,0,.3,7.81c.5,3.34-6.59,5.18-14.61,4.75s-15-5.44-12.72-7.61,2.42-9.14,1.84-12.07-4.87-8.86-7-16.45c1.71-4.89,7.73-11.55,16.09-17.2,7.4-5,14.84-8,20-8.47a23.33,23.33,0,0,1,6.23,7.45h0c.5.9.95,1.85,1.38,2.83,2.2,5.17,1.41,5.62,2.32,8.62C173.74,189.07,174.84,199,172.73,205.16Z" style="fill:#9e6767"></path><path d="M164,200.14a3.57,3.57,0,0,1-7-1.57Z" style="fill:#874c4c"></path><path d="M161.42,202.78a5,5,0,0,0-4.48-3,3.56,3.56,0,0,0,2.74,3.06A3.64,3.64,0,0,0,161.42,202.78Z" style="fill:#f28f8f"></path><path d="M155.75,186.28a1.88,1.88,0,0,1-1.05,2.45,1.93,1.93,0,1,1,1.05-2.45Z" style="fill:#263238"></path><path d="M155.2,180.05l-4.13,1.86a2.38,2.38,0,0,1,1.18-3.07A2.2,2.2,0,0,1,155.2,180.05Z" style="fill:#263238"></path><path d="M169.69,180.24l-4.34-1.41a2.19,2.19,0,0,1,2.8-1.51A2.39,2.39,0,0,1,169.69,180.24Z" style="fill:#263238"></path><path d="M169.27,185.31a1.7,1.7,0,1,1-1.8-1.68A1.73,1.73,0,0,1,169.27,185.31Z" style="fill:#263238"></path><path d="M170.7,193.54l-6.43,3.35-4.7-13.26C162,182.6,167.36,188.78,170.7,193.54Z" style="fill:#874c4c"></path><path d="M158.07,213.52s-3.32,0-8.64-2.33-7-6-8.2-8.91a13.66,13.66,0,0,0,8.14,11.55,42.87,42.87,0,0,0,8.61,2.08Z" style="fill:#874c4c"></path><path d="M168.25,171.73h0a20.61,20.61,0,0,1-5.16,1.76,37.46,37.46,0,0,1-19.71-.78,31.42,31.42,0,0,1,2.51,6.61,7,7,0,0,1-1.4,5.88c-.63.66-.32,1.77-.1,2.53a9.74,9.74,0,0,1,.73,2.9,1.58,1.58,0,0,1-.05.43,1.65,1.65,0,0,1-2.4,1,7.17,7.17,0,0,1-1.77-2.31c-2.56-4.63-7.54-4.47-9.42-2s-1.66,4.9.44,8.95a1.63,1.63,0,0,0,.09.19c1.47,2.79,4.54,4,6.71,3a3.73,3.73,0,0,0,1-.78c.18,1.84-.16,4.33-2,5.82a7.61,7.61,0,0,1-4.89,1.47c-.67-1.65-2.25-4.32-3.86-7.79-.61-.91-1.23-1.82-1.81-2.7s-1-1.49-1.4-2.21l0,0a7.73,7.73,0,0,1-.39-.67c-.44-4.86,6.31-13.31,16.56-20.24,11.7-7.9,23.52-10.86,26.41-6.58C169.29,167.53,169.19,169.47,168.25,171.73Z" style="fill:#263238"></path><path d="M120.16,221c-5.87,3.31-10.36,13.55-9.37,24.8.62,7.12,2.11,16.37,3.89,29.62a137.33,137.33,0,0,1,1.24,18.19c0,6.31-.22,20.11-.22,20.11s1.56,8.67,25.53,14.73c26.42,6.68,46.09-10.75,46.76-18,0,0-3-8.51-4.81-34.38-1.32-19.34-.24-31.08-2.3-35.28-1.52-3.09-3.33-8.45-7.78-9.81-3.09-.94-8.74-4.4-23.81-8.53C131.77,217.71,126.3,217.58,120.16,221Z" style="fill:#455a64"></path><path d="M161.89,226.5a38.27,38.27,0,0,1-10.47,2.05,36.62,36.62,0,0,1-16-3.06c-5.35-2.38-6.5-5.88-6.5-5.88s2-4,2.76-5.34S133,213,133,213l-.1,1.43s.45,2.26,6.17,4.44c7.7,2.94,16.08,1.49,17.07,1.32,2.37-.38,2-1.48,2-1.48,1.49.3,3.22,2.5,5,4.66s3.94,5.16,3.94,5.16Z" style="fill:#37474f"></path><path d="M233.54,274.57c-4.62,4-11.8,9.94-17.85,15a100.39,100.39,0,0,1-19.92,12.84c-5.9,2.67-9.33,3.23-14.35-6.12-2.46-4.58-4.57-9.34-6.8-14a157.28,157.28,0,0,1-7.28-17.72s-6.63-24.58,6.17-32.49c8.6,3.44,11.43,4.72,14.62,13.93C192,257.24,199,276.41,199,276.41a161.82,161.82,0,0,0,17.78-10.71c2.16-1.48,4.91-2.68,6.27-5a15.77,15.77,0,0,0,2.19-5,21.66,21.66,0,0,1,1.65-4.41c1.36-3,3.81-5.31,5.4-8.06a1.87,1.87,0,0,1,1.47-1.1,1.46,1.46,0,0,1,1,.49c.95,1,.87,2.55.53,3.86a12.15,12.15,0,0,1-1.06,2.74c-.27.5-.34,1.33.51,1.26a1.85,1.85,0,0,0,1-.53c3.1-2.77,5.49-6.25,8.52-9.1a7.86,7.86,0,0,1,4.82-2.52,1.49,1.49,0,0,1,1.23.39c.52.59.07,1.51-.39,2.16q-3.18,4.51-6.37,9a4,4,0,0,0,1.35-.86,44.67,44.67,0,0,0,3.79-3.62,32.14,32.14,0,0,0,2.71-3.34,5.2,5.2,0,0,1,3.32-2.34,1.15,1.15,0,0,1,.61,0c.65.25.6,1.18.42,1.86a.58.58,0,0,0,0,.43.68.68,0,0,0,.18.2,2.08,2.08,0,0,1,.54,1.59,5.62,5.62,0,0,1-.46,1.66,29.89,29.89,0,0,1-2.46,4.73,4.26,4.26,0,0,0-.52,1,5,5,0,0,0-.13,1.16,13.89,13.89,0,0,1-2.45,6.51,27.16,27.16,0,0,1-3.95,5.16c-3.37,3.31-7.37,5.88-11,8.85C234.78,273.51,234.16,274,233.54,274.57Z" style="fill:#9e6767"></path><path d="M255.43,242.75a58.17,58.17,0,0,1-4.29,6.06c-.76.94-1.56,1.85-2.38,2.73a29.28,29.28,0,0,0-2.57,2.78c-.07.1,0,.41.16.3a21,21,0,0,0,2.76-2.74c.87-.94,1.72-1.89,2.51-2.89a34.24,34.24,0,0,0,3.88-6.15C255.52,242.79,255.48,242.68,255.43,242.75Z" style="fill:#874c4c"></path><path d="M252.85,252.06a3.67,3.67,0,0,1,.11-.74,3.49,3.49,0,0,1,.15-.34c-.54.83-1.1,1.64-1.67,2.44q-1.8,2.47-3.75,4.85s0,.19.06.13a50.06,50.06,0,0,0,3.92-4.68C252.08,253.18,252.46,252.62,252.85,252.06Z" style="fill:#874c4c"></path><path d="M172.53,230.72c7.26,2.8,10.52,4.06,13.18,8.08s6.67,17.11,9.08,24.22,4.26,12.36,4.26,12.36l22.58-13s4.47,1.57,6.83,7.95a17.49,17.49,0,0,1,1.27,8.19s-16.61,15.69-24.92,20.66-14.14,7.62-18.28,4.71-6.06-7.22-9.34-13.25-8.37-19-11.16-26S161.67,238.82,172.53,230.72Z" style="fill:#37474f"></path><circle cx="227.01" cy="277.3" r="1.14" style="fill:#263238"></circle><path d="M225,279.39a1.14,1.14,0,1,1-1.14-1.14A1.14,1.14,0,0,1,225,279.39Z" style="fill:#263238"></path><path d="M221.93,281.48a1.14,1.14,0,1,1-1.14-1.14A1.14,1.14,0,0,1,221.93,281.48Z" style="fill:#263238"></path></g></g></g><g id="freepik--musical-notes--inject-63"><g id="freepik--musical-notes--inject-63"><path id="freepik--musical-note--inject-63" d="M71.17,166.53a4.22,4.22,0,0,1,1.51-.87,9,9,0,0,1,2.3-.39,16.1,16.1,0,0,0,3.11-.34,3.91,3.91,0,0,0,2.49-1.76,4,4,0,0,1-1.8.27c-1.46-.11-2.92-1.18-4.32-1.59-2.1-.61-3.82,0-5.82,1.15.53,1.83,1,3.69,1.53,5.53l1.2,4.35c0,.13.49,2,.49,2a4,4,0,0,0-1.72.07,3.22,3.22,0,1,0,4,2.24Z" style="fill:#f5f5f5"></path><path id="freepik--musical-note--inject-63" d="M86.18,186.22l-3.94,13.69a3.62,3.62,0,0,0-1.13-.56A3.73,3.73,0,1,0,83.67,204l3.53-12.27,13.29.3h0L97,204.16a3.62,3.62,0,0,0-1.13-.56,3.73,3.73,0,1,0,2.56,4.61h0l5.81-20.32Z" style="fill:#f5f5f5"></path></g></g></svg>
