<svg class="animated" id="freepik_stories-jazz-piano" xmlns="http://www.w3.org/2000/svg" viewBox="0 0 750 500" version="1.1" xmlns:xlink="http://www.w3.org/1999/xlink" xmlns:svgjs="http://svgjs.com/svgjs"><style>svg#freepik_stories-jazz-piano:not(.animated) .animable {opacity: 0;}svg#freepik_stories-jazz-piano.animated #freepik--Musical_notes--inject-45 {animation: 1.5s 1 forwards cubic-bezier(.36,-0.01,.5,1.38) slideUp,3s Infinite  linear floating;animation-delay: 0.6s,2.1s;opacity: 0}svg#freepik_stories-jazz-piano.animated #freepik--Speech_Bubble--inject-45 {animation: 1.3s 1 forwards cubic-bezier(.36,-0.01,.5,1.38) slideUp,3s Infinite  linear heartbeat;animation-delay: 0.1s,1.4000000000000001s;opacity: 0}svg#freepik_stories-jazz-piano.animated #freepik--Character--inject-45 {animation: 1s 1 forwards cubic-bezier(.36,-0.01,.5,1.38) slideLeft,6s Infinite  linear wind;animation-delay: 0s,1s;}svg#freepik_stories-jazz-piano.animated #freepik--Piano--inject-45 {animation: 1s 1 forwards cubic-bezier(.36,-0.01,.5,1.38) slideRight;animation-delay: 0s;}            @keyframes slideUp {                0% {                    opacity: 0;                    transform: translateY(30px);                }                100% {                    opacity: 1;                    transform: inherit;                }            }                    @keyframes floating {                0% {                    opacity: 1;                    transform: translateY(0px);                }                50% {                    transform: translateY(-10px);                }                100% {                    opacity: 1;                    transform: translateY(0px);                }            }                    @keyframes heartbeat {                0% {                    transform: scale(1);                }                10% {                    transform: scale(1.1);                }                30% {                    transform: scale(1);                }                40% {                    transform: scale(1);                }                50% {                    transform: scale(1.1);                }                60% {                    transform: scale(1);                }                100% {                    transform: scale(1);                }            }                    @keyframes slideLeft {                0% {                    opacity: 0;                    transform: translateX(-30px);                }                100% {                    opacity: 1;                    transform: translateX(0);                }            }                    @keyframes wind {                0% {                    transform: rotate( 0deg );                }                25% {                    transform: rotate( 1deg );                }                75% {                    transform: rotate( -1deg );                }            }                    @keyframes slideRight {                0% {                    opacity: 0;                    transform: translateX(30px);                }                100% {                    opacity: 1;                    transform: translateX(0);                }            }        </style><g id="freepik--background-complete--inject-45" style="transform-origin: 371.08px 230.271px 0px;" class="animable"><g id="el5ln2cmudlq3" style="transform-origin: 223.458px 102.846px 0px;" class="animable"><path d="M226.66,112.04c-.28,2.18-2.27,3.73-4.45,3.45-2.18-.28-3.73-2.27-3.45-4.45,.28-2.18,2.27-3.73,4.45-3.45,2.18,.28,3.73,2.27,3.45,4.45Z" style="fill: rgb(224, 224, 224); transform-origin: 222.71px 111.54px 0px;" id="el25iyryuin2m" class="animable"></path><path d="M226.25,110.65c-.21,.12-2.37-3.48-4.17-8.28-1.79-4.79-3.2-8.66-3-8.75,.24-.11,2.04,3.66,3.82,8.44,1.79,4.76,3.56,8.48,3.35,8.6Z" style="fill: rgb(224, 224, 224); transform-origin: 222.664px 102.139px 0px;" id="elv2uqi7e865" class="animable"></path><path d="M226.91,90.18c.21,.1-.9,2.05-3.3,3.19-2.39,1.16-4.6,.8-4.55,.58,0-.26,2.02-.31,4.17-1.37,2.17-1.02,3.47-2.56,3.68-2.4Z" style="fill: rgb(224, 224, 224); transform-origin: 222.997px 92.1747px 0px;" id="el0iom88ursqk" class="animable"></path><path d="M228.16,94.12c.22,.08-.79,2.07-3.22,3.02-2.41,.97-4.52,.22-4.41,0,.05-.25,1.97,.05,4.09-.82,2.14-.82,3.33-2.36,3.54-2.2Z" style="fill: rgb(224, 224, 224); transform-origin: 224.358px 95.8664px 0px;" id="elw1pqlrb0s4j" class="animable"></path></g><g id="el7ydhuppamcv" style="transform-origin: 341.728px 65.8656px 0px;" class="animable"><path d="M344.93,75.06c-.28,2.18-2.27,3.73-4.45,3.45-2.18-.28-3.73-2.27-3.45-4.45,.28-2.18,2.27-3.73,4.45-3.45,2.18,.28,3.73,2.27,3.45,4.45Z" style="fill: rgb(224, 224, 224); transform-origin: 340.98px 74.56px 0px;" id="eldoc1r2gcgk6" class="animable"></path><path d="M344.52,73.67c-.21,.12-2.37-3.48-4.17-8.28-1.79-4.79-3.2-8.66-3-8.75,.24-.11,2.04,3.66,3.82,8.44,1.79,4.76,3.56,8.48,3.35,8.6Z" style="fill: rgb(224, 224, 224); transform-origin: 340.934px 65.1588px 0px;" id="elde6az61xnqp" class="animable"></path><path d="M345.18,53.2c.21,.1-.9,2.05-3.3,3.19-2.39,1.16-4.6,.8-4.55,.58,0-.26,2.02-.31,4.17-1.37,2.17-1.02,3.47-2.56,3.68-2.4Z" style="fill: rgb(224, 224, 224); transform-origin: 341.267px 55.1947px 0px;" id="eliyu4vt7fzp" class="animable"></path><path d="M346.43,57.14c.22,.08-.79,2.07-3.22,3.02-2.41,.97-4.52,.22-4.41,0,.05-.25,1.97,.05,4.09-.82,2.14-.82,3.33-2.36,3.54-2.2Z" style="fill: rgb(224, 224, 224); transform-origin: 342.628px 58.8864px 0px;" id="el8t0pnp1ffe" class="animable"></path></g><g id="elwzc8cyfi4hk" style="transform-origin: 335.911px 201.019px 0px;" class="animable"><path d="M335.25,207.32c-.81,1.31-2.52,1.72-3.83,.92-1.31-.81-1.72-2.52-.92-3.83,.81-1.31,2.52-1.72,3.83-.92,1.31,.81,1.72,2.52,.92,3.83Z" style="fill: rgb(224, 224, 224); transform-origin: 332.875px 205.865px 0px;" id="el4et99xkzf9y" class="animable"></path><path d="M335.39,206.32c-.17,.02-.51-2.9-.27-6.48,.24-3.57,.46-6.44,.61-6.45,.19,0,.24,2.92,0,6.48-.23,3.55-.17,6.43-.34,6.45Z" style="fill: rgb(224, 224, 224); transform-origin: 335.464px 199.855px 0px;" id="el6m4vdw77k02" class="animable"></path><path d="M341.72,193.46c.1,.12-1.16,1.05-3.02,1.09-1.86,.05-3.17-.82-3.07-.95,.08-.16,1.38,.39,3.06,.33,1.68-.02,2.95-.63,3.04-.47Z" style="fill: rgb(224, 224, 224); transform-origin: 338.677px 193.993px 0px;" id="elvtc1w3zjyg" class="animable"></path><path d="M341.38,196.33c.12,.11-1.1,1.09-2.92,1-1.82-.08-2.94-1.17-2.81-1.27,.1-.15,1.24,.6,2.84,.66,1.6,.09,2.8-.54,2.89-.38Z" style="fill: rgb(224, 224, 224); transform-origin: 338.514px 196.688px 0px;" id="el87lyuw80xur" class="animable"></path></g><g id="elqv1ge5rya7k" style="transform-origin: 620.295px 132.005px 0px;" class="animable"><rect x="665.13" y="60.85" width="6.56" height="141.03" style="fill: rgb(224, 224, 224); transform-origin: 668.41px 131.365px 0px;" id="el68aq8wj2egm" class="animable"></rect><path d="M570.08,61.94h93.96c.05,0,.09,.04,.09,.09V201.98c0,.05-.04,.09-.09,.09h-93.96c-.05,0-.09-.04-.09-.09V62.04c0-.05,.04-.09,.09-.09Z" style="fill: rgb(245, 245, 245); transform-origin: 617.06px 132.005px 0px;" id="elnm1vzbtbb8l" class="animable"></path><path d="M665.13,203.16h-96.14c-.05,0-.09-.04-.09-.09V60.95c0-.05,.04-.09,.09-.09h96.14c.05,0,.09,.04,.09,.09V203.07c0,.05-.04,.09-.09,.09Zm-93.96-2.18h91.78c.05,0,.09-.04,.09-.09V63.13c0-.05-.04-.09-.09-.09h-91.78c-.05,0-.09,.04-.09,.09V200.89c0,.05,.04,.09,.09,.09Z" style="fill: rgb(235, 235, 235); transform-origin: 617.06px 132.01px 0px;" id="elg0uabka7v5" class="animable"></path><path d="M579.56,70.59h75.17c.05,0,.09,.04,.09,.09v122.56c0,.05-.04,.09-.09,.09h-75.17c-.05,0-.09-.04-.09-.09V70.68c0-.05,.04-.09,.09-.09Z" style="fill: rgb(255, 255, 255); transform-origin: 617.145px 131.96px 0px;" id="elhixuuvl30yf" class="animable"></path><rect x="595.91" y="105.39" width="42.31" height="49.59" rx=".06" ry=".06" style="fill: rgb(235, 235, 235); transform-origin: 617.065px 130.185px 0px;" id="el81vlj44ejt8" class="animable"></rect><path d="M634.87,148.91c.05,.16-2.03,1.07-6.01,.61-1.96-.27-4.39-.97-6.75-2.7-2.31-1.73-4.5-4.52-5.25-8.25-.77-3.7,.47-8.32,4.01-11.28,.88-.74,1.91-1.36,3.04-1.78,1.21-.45,2.51-.6,3.81-.44,1.29,.16,2.65,.61,3.81,1.66,1.17,1.06,1.8,2.84,1.5,4.43-.28,1.6-1.15,2.83-2.09,3.81-.97,.99-2.07,1.72-3.19,2.35-2.28,1.26-4.88,2.04-7.6,2.17-2.71,.13-5.58-.43-8.1-1.84-2.5-1.4-4.63-3.53-5.96-6.18-1.35-2.62-1.78-5.81-1.07-8.66,.69-2.84,2.3-5.38,4.56-7.13,1.14-.88,2.42-1.53,3.83-1.93,1.41-.36,2.87-.43,4.31-.13,1.42,.3,2.87,1,3.91,2.21,1.05,1.2,1.52,2.76,1.53,4.18,.02,1.43-.37,2.82-1.02,3.98-.64,1.17-1.5,2.11-2.41,2.9-1.83,1.55-3.88,2.57-5.99,3.18-2.11,.61-4.27,.77-6.31,.49-2.03-.29-3.94-1.03-5.49-2.1-3.12-2.12-4.92-5.33-5.24-8.3-.35-3.02,.75-5.51,1.94-7.12,1.22-1.64,2.63-2.48,3.59-2.87,.99-.37,1.55-.36,1.58-.27,.04,.13-.45,.35-1.25,.89-.78,.55-1.89,1.46-2.79,3-.88,1.51-1.6,3.7-1.14,6.08,.42,2.37,2.04,4.93,4.66,6.53,2.56,1.63,6.16,2.05,9.61,.92,1.71-.55,3.42-1.47,4.81-2.72,1.38-1.24,2.33-2.84,2.25-4.51-.04-1.68-1.1-2.86-2.9-3.2-.88-.17-1.86-.12-2.77,.13-.9,.28-1.82,.74-2.61,1.37-1.6,1.26-2.8,3.16-3.29,5.25-.5,2.08-.2,4.29,.81,6.29,.99,2,2.65,3.66,4.55,4.73,1.89,1.08,4.1,1.54,6.26,1.46,2.17-.08,4.3-.69,6.16-1.68,.94-.51,1.81-1.08,2.46-1.73,.67-.65,1.13-1.4,1.25-2.03,.12-.64-.07-1.19-.5-1.64-.45-.45-1.22-.79-2.04-.9-.82-.12-1.66-.05-2.4,.2-.81,.28-1.56,.7-2.24,1.22-1.34,1.05-2.35,2.49-2.91,4.02-.57,1.53-.71,3.11-.49,4.61,.45,3.03,2.15,5.53,4.03,7.14,1.92,1.62,4.03,2.46,5.8,2.89,3.58,.83,5.73,.42,5.75,.72Z" style="fill: rgb(224, 224, 224); transform-origin: 615.757px 129.748px 0px;" id="elp8ai6jh4r4" class="animable"></path></g><g id="elim2w9ml9bgn" style="transform-origin: 118.775px 132.005px 0px;" class="animable"><rect x="163.61" y="60.85" width="6.56" height="141.03" style="fill: rgb(224, 224, 224); transform-origin: 166.89px 131.365px 0px;" id="elcjrz57233hd" class="animable"></rect><rect x="68.47" y="61.94" width="94.15" height="140.13" rx=".09" ry=".09" style="fill: rgb(245, 245, 245); transform-origin: 115.545px 132.005px 0px;" id="els6xivqt6r6" class="animable"></rect><path d="M163.61,203.16H67.47c-.05,0-.09-.04-.09-.09V60.95c0-.05,.04-.09,.09-.09h96.14c.05,0,.09,.04,.09,.09V203.07c0,.05-.04,.09-.09,.09Zm-93.96-2.18h91.78c.05,0,.09-.04,.09-.09V63.13c0-.05-.04-.09-.09-.09H69.65c-.05,0-.09,.04-.09,.09V200.89c0,.05,.04,.09,.09,.09Z" style="fill: rgb(235, 235, 235); transform-origin: 115.54px 132.01px 0px;" id="el5a0uhq8diuw" class="animable"></path><rect x="77.95" y="70.59" width="75.36" height="122.75" rx=".09" ry=".09" style="fill: rgb(255, 255, 255); transform-origin: 115.63px 131.965px 0px;" id="el08i3ne6ibhan" class="animable"></rect><rect x="94.39" y="105.39" width="42.31" height="49.59" rx=".06" ry=".06" style="fill: rgb(235, 235, 235); transform-origin: 115.545px 130.185px 0px;" id="el815xmkr2xdv" class="animable"></rect><path d="M133.35,148.91c.05,.16-2.03,1.07-6.01,.61-1.96-.27-4.39-.97-6.75-2.7-2.31-1.73-4.5-4.52-5.25-8.25-.77-3.7,.47-8.32,4.01-11.28,.88-.74,1.91-1.36,3.04-1.78,1.21-.45,2.51-.6,3.81-.44,1.29,.16,2.65,.61,3.81,1.66,1.17,1.06,1.8,2.84,1.5,4.43-.28,1.6-1.15,2.83-2.09,3.81-.97,.99-2.07,1.72-3.19,2.35-2.28,1.26-4.88,2.04-7.6,2.17-2.71,.13-5.58-.43-8.1-1.84-2.5-1.4-4.63-3.53-5.96-6.18-1.35-2.62-1.78-5.81-1.07-8.66,.69-2.84,2.3-5.38,4.56-7.13,1.14-.88,2.42-1.53,3.83-1.93,1.41-.36,2.87-.43,4.31-.13,1.42,.3,2.87,1,3.91,2.21,1.05,1.2,1.52,2.76,1.53,4.18,.02,1.43-.37,2.82-1.02,3.98-.64,1.17-1.5,2.11-2.41,2.9-1.83,1.55-3.88,2.57-5.99,3.18-2.11,.61-4.27,.77-6.31,.49-2.03-.29-3.94-1.03-5.49-2.1-3.12-2.12-4.92-5.33-5.24-8.3-.35-3.02,.75-5.51,1.94-7.12,1.22-1.64,2.63-2.48,3.59-2.87,.99-.37,1.55-.36,1.58-.27,.04,.13-.45,.35-1.25,.89-.78,.55-1.89,1.46-2.79,3-.88,1.51-1.6,3.7-1.14,6.08,.42,2.37,2.04,4.93,4.66,6.53,2.56,1.63,6.16,2.05,9.61,.92,1.71-.55,3.42-1.47,4.81-2.72,1.38-1.24,2.33-2.84,2.25-4.51-.04-1.68-1.1-2.86-2.9-3.2-.88-.17-1.86-.12-2.77,.13-.9,.28-1.82,.74-2.61,1.37-1.6,1.26-2.8,3.16-3.29,5.25-.5,2.08-.2,4.29,.81,6.29,.99,2,2.65,3.66,4.55,4.73,1.89,1.08,4.1,1.54,6.26,1.46,2.17-.08,4.3-.69,6.16-1.68,.94-.51,1.81-1.08,2.46-1.73,.67-.65,1.13-1.4,1.25-2.03,.12-.64-.07-1.19-.5-1.64-.45-.45-1.22-.79-2.04-.9-.82-.12-1.66-.05-2.4,.2-.81,.28-1.56,.7-2.24,1.22-1.34,1.05-2.35,2.49-2.91,4.02-.57,1.53-.71,3.11-.49,4.61,.45,3.03,2.15,5.53,4.03,7.14,1.92,1.62,4.03,2.46,5.8,2.89,3.58,.83,5.73,.42,5.75,.72Z" style="fill: rgb(224, 224, 224); transform-origin: 114.237px 129.748px 0px;" id="el69a6d94nprv" class="animable"></path></g><g id="elvtj5svxd2c" style="transform-origin: 496.335px 92.185px 0px;" class="animable"><rect x="482.12" y="78.55" width="49.74" height="13.16" style="fill: rgb(235, 235, 235); transform-origin: 506.99px 85.13px 0px;" id="elvmaidr5hmbm" class="animable"></rect><path d="M510.82,105.56s-.01-.09-.02-.24c0-.18,0-.4-.02-.67,0-.62-.02-1.48-.04-2.59-.02-2.27-.05-5.54-.09-9.65l.15,.15c-11.36,.02-29.42,.06-49.73,.1,.11-.11-.26,.25,.25-.25h0v3.37c0,1.12,0,2.22,0,3.32,0,2.2,0,4.36,0,6.47l-.25-.25c14.16,.04,26.56,.08,35.44,.11,4.43,.03,7.98,.05,10.46,.07,1.21,.01,2.15,.02,2.83,.03,.3,0,.55,.01,.74,.02,.17,0,.26,.01,.26,.02,0,0-.07,.01-.23,.02-.18,0-.42,0-.71,.02-.66,0-1.59,.02-2.78,.03-2.47,.02-6,.04-10.4,.07-8.93,.03-21.38,.07-35.62,.11h-.25v-.25c0-2.12,0-4.28,0-6.47,0-1.1,0-2.21,0-3.32v-3.34h0v-.02h0c.51-.51,.14-.14,.26-.26,20.32,.04,38.38,.08,49.73,.1h.16v.15c-.04,4.16-.07,7.45-.09,9.75-.02,1.09-.03,1.94-.04,2.55,0,.27-.01,.48-.02,.65,0,.14-.01,.21-.02,.21Z" style="fill: rgb(224, 224, 224); transform-origin: 485.885px 98.9806px 0px;" id="elrekxwlhdh" class="animable"></path></g><g id="eltbxwk5ojeb" style="transform-origin: 624.96px 322.47px 0px;" class="animable"><rect x="654.19" y="245.74" width="49.74" height="13.16" style="fill: rgb(235, 235, 235); transform-origin: 679.06px 252.32px 0px;" id="elz72q4du3r5r" class="animable"></rect><path d="M596,398.94s-.01-.09-.02-.24c0-.18,0-.4-.02-.67,0-.62-.02-1.48-.04-2.59-.02-2.27-.05-5.54-.09-9.65l.15,.15c-11.36,.02-29.42,.06-49.73,.1,.11-.11-.26,.25,.25-.25h0v3.37c0,1.12,0,2.22,0,3.32,0,2.2,0,4.36,0,6.47l-.25-.25c14.16,.04,26.56,.08,35.44,.11,4.43,.03,7.98,.05,10.46,.07,1.21,.01,2.15,.02,2.83,.03,.3,0,.55,.01,.74,.02,.17,0,.26,.01,.26,.02,0,0-.07,.01-.23,.02-.18,0-.42,0-.71,.02-.66,0-1.59,.02-2.78,.03-2.47,.02-6,.04-10.4,.07-8.93,.03-21.38,.07-35.62,.11h-.25v-.25c0-2.12,0-4.28,0-6.47,0-1.1,0-2.21,0-3.32v-3.34h0v-.02h0c.51-.51,.14-.14,.26-.26,20.32,.04,38.38,.08,49.73,.1h.16v.15c-.04,4.16-.07,7.45-.09,9.75-.02,1.09-.03,1.94-.04,2.55,0,.27-.01,.48-.02,.65,0,.14-.01,.21-.02,.21Z" style="fill: rgb(224, 224, 224); transform-origin: 571.065px 392.361px 0px;" id="elxkggv0i0s9" class="animable"></path></g><path d="M273.75,54.33s-.01-.09-.02-.24c0-.18,0-.4-.02-.67,0-.62-.02-1.48-.04-2.59-.02-2.27-.05-5.54-.09-9.65l.15,.15c-11.36,.02-29.42,.06-49.73,.1,.11-.11-.26,.25,.25-.25h0v3.37c0,1.12,0,2.22,0,3.32,0,2.2,0,4.36,0,6.47l-.25-.25c14.16,.04,26.56,.08,35.44,.11,4.43,.03,7.98,.05,10.46,.07,1.21,.01,2.15,.02,2.83,.03,.3,0,.55,.01,.74,.02,.17,0,.26,.01,.26,.02,0,0-.07,.01-.23,.02-.18,0-.42,0-.71,.02-.66,0-1.59,.02-2.78,.03-2.47,.02-6,.04-10.4,.07-8.93,.03-21.38,.07-35.62,.11h-.25v-.25c0-2.12,0-4.28,0-6.47,0-1.1,0-2.21,0-3.32v-3.34h0v-.02h0c.51-.51,.14-.14,.26-.26,20.32,.04,38.38,.08,49.73,.1h.16v.15c-.04,4.16-.07,7.45-.09,9.75-.02,1.09-.03,1.94-.04,2.55,0,.27-.01,.48-.02,.65,0,.14-.01,.21-.02,.21Z" style="fill: rgb(224, 224, 224); transform-origin: 248.815px 47.7506px 0px;" id="elyhbv2tsr9jn" class="animable"></path><g id="elwox8dmu5a" style="transform-origin: 439.585px 405.99px 0px;" class="animable"><rect x="425.37" y="392.35" width="49.74" height="13.16" style="fill: rgb(235, 235, 235); transform-origin: 450.24px 398.93px 0px;" id="elb1m5f596ytg" class="animable"></rect><path d="M454.07,419.37s-.01-.09-.02-.24c0-.18,0-.4-.02-.67,0-.62-.02-1.48-.04-2.59-.02-2.27-.05-5.54-.09-9.65l.15,.15c-11.36,.02-29.42,.06-49.73,.1,.11-.11-.26,.25,.25-.25h0v3.37c0,1.12,0,2.22,0,3.32,0,2.2,0,4.36,0,6.47l-.25-.25c14.16,.04,26.56,.08,35.44,.11,4.43,.03,7.98,.05,10.46,.07,1.21,.01,2.15,.02,2.83,.03,.3,0,.55,.01,.74,.02,.17,0,.26,.01,.26,.02,0,0-.07,.01-.23,.02-.18,0-.42,0-.71,.02-.66,0-1.59,.02-2.78,.03-2.47,.02-6,.04-10.4,.07-8.93,.03-21.38,.07-35.62,.11h-.25v-.25c0-2.12,0-4.28,0-6.47,0-1.1,0-2.21,0-3.32v-3.34h0v-.02h0c.51-.51,.14-.14,.26-.26,20.32,.04,38.38,.08,49.73,.1h.16v.15c-.04,4.16-.07,7.45-.09,9.75-.02,1.09-.03,1.94-.04,2.55,0,.27-.01,.48-.02,.65,0,.14-.01,.21-.02,.21Z" style="fill: rgb(224, 224, 224); transform-origin: 429.135px 412.791px 0px;" id="el7cuodzc5mfj" class="animable"></path></g><g id="elzjo7ncp9m68" style="transform-origin: 73.75px 273.01px 0px;" class="animable"><rect x="59.53" y="259.37" width="49.74" height="13.16" style="fill: rgb(235, 235, 235); transform-origin: 84.4px 265.95px 0px;" id="eln8qz5t0toe" class="animable"></rect><path d="M88.24,286.39s-.01-.09-.02-.24c0-.18,0-.4-.02-.67,0-.62-.02-1.48-.04-2.59-.02-2.27-.05-5.54-.09-9.65l.15,.15c-11.36,.02-29.42,.06-49.73,.1,.11-.11-.26,.25,.25-.25h0v3.37c0,1.12,0,2.22,0,3.32,0,2.2,0,4.36,0,6.47l-.25-.25c14.16,.04,26.56,.08,35.44,.11,4.43,.03,7.98,.05,10.46,.07,1.21,.01,2.15,.02,2.83,.03,.3,0,.55,.01,.74,.02,.17,0,.26,.01,.26,.02,0,0-.07,.01-.23,.02-.18,0-.42,0-.71,.02-.66,0-1.59,.02-2.78,.03-2.47,.02-6,.04-10.4,.07-8.93,.03-21.39,.07-35.62,.11h-.25v-.25c0-2.12,0-4.28,0-6.47,0-1.1,0-2.21,0-3.32v-3.34h0v-.02h0c.51-.51,.14-.14,.26-.26,20.32,.04,38.38,.08,49.73,.1h.16v.15c-.04,4.16-.07,7.45-.09,9.75-.02,1.09-.03,1.94-.04,2.55,0,.27-.01,.48-.02,.65,0,.14-.01,.21-.02,.21Z" style="fill: rgb(224, 224, 224); transform-origin: 63.305px 279.811px 0px;" id="el3sk88vfijsr" class="animable"></path></g></g><g id="freepik--Floor--inject-45" style="transform-origin: 363.675px 467.49px 0px;" class="animable"><path d="M689.43,467.49c0,.14-145.86,.26-325.74,.26s-325.77-.12-325.77-.26,145.82-.26,325.77-.26,325.74,.12,325.74,.26Z" style="fill: rgb(38, 50, 56); transform-origin: 363.675px 467.49px 0px;" id="el9tcgvw02gc5" class="animable"></path></g><g id="freepik--Plant--inject-45" style="transform-origin: 653.98px 370.435px 0px;" class="animable"><g id="elkm5taiu1ncd" style="transform-origin: 653.98px 370.435px 0px;" class="animable"><path d="M654.61,371.63c12.22-12.51,31.38-17.77,48.28-13.25-14.68,9.84-31.17,15.12-48.85,15.26" style="fill: rgb(69, 90, 100); transform-origin: 678.465px 365.21px 0px;" id="el8s788na14xr" class="animable"></path><g id="elw28un5mzgq9" style="transform-origin: 653.98px 350.39px 0px;" class="animable"><path d="M670.99,313.65c-2.01-14.23,3.52-30.23,14.17-40.57,.35,14.1-5.6,29.96-14.17,40.57" style="fill: rgb(69, 90, 100); transform-origin: 677.878px 293.365px 0px;" id="elf3y13mia92q" class="animable"></path><path d="M662.47,340.52c7.59-14.51,20.05-26.42,34.89-33.34-4.45,16.38-18.46,29.78-35.02,33.49" style="fill: rgb(69, 90, 100); transform-origin: 679.85px 323.925px 0px;" id="elagb1sb9yzs" class="animable"></path><path d="M660.71,345.71c8.59,.24,17.29-.06,25.6-2.26,8.31-2.2,16.27-6.42,21.8-13.01-16.72,.02-33.39,5.11-47.27,14.43" style="fill: rgb(69, 90, 100); transform-origin: 684.41px 338.11px 0px;" id="elvfdhmb980y" class="animable"></path><path d="M665.07,328.63c-4.36-16.35-11.56-27.65-24.41-36.81-.97,7.95,.98,16.23,5.41,22.91,4.43,6.68,11.29,11.7,19,13.9" style="fill: rgb(69, 90, 100); transform-origin: 652.743px 310.225px 0px;" id="el7bpd2yqbdvi" class="animable"></path><path d="M632.63,356.82c-.23-9.5,5.9-18.83,14.7-22.41-.71,8.44-7.34,18.21-14.7,22.41" style="fill: rgb(69, 90, 100); transform-origin: 639.977px 345.615px 0px;" id="elmcye59bi1co" class="animable"></path><path d="M628.53,343.04c-.98-13.65-10.68-26.29-23.62-30.75,2.97,13.66,10.87,25.03,23.62,30.75" style="fill: rgb(69, 90, 100); transform-origin: 616.72px 327.665px 0px;" id="elbgg4bjp43xv" class="animable"></path><path d="M634.72,367.49c-3.03-4.33-7.97-7.03-13.09-8.37-5.12-1.34-10.46-1.46-15.75-1.57,7.13,7.85,17.84,12.31,28.44,11.84" style="fill: rgb(69, 90, 100); transform-origin: 620.3px 363.487px 0px;" id="el81eepwnmce8" class="animable"></path><path d="M637.92,387.19c-9.53-2.94-20.16-2.18-29.17,2.09-9.02,4.27-16.33,12.01-20.09,21.25,17.9-3.4,35.56-11.34,49.27-23.34" style="fill: rgb(69, 90, 100); transform-origin: 613.295px 397.978px 0px;" id="elsn5gyn3bk8b" class="animable"></path><path d="M660.5,390.23c-2.97,8.79-2.4,19.41,4.21,26.98,2.69-9.02,1.1-19.21-4.21-26.98" style="fill: rgb(69, 90, 100); transform-origin: 662.39px 403.72px 0px;" id="elz5dfpd9ks" class="animable"></path><path d="M672.11,385.35c.83,11.3,8.05,21.91,18.26,26.83,.51,.24,1.09,.48,1.61,.27,.81-.33,.88-1.43,.78-2.29-1.29-11.26-9.64-22.15-20.65-24.8" style="fill: rgb(69, 90, 100); transform-origin: 682.453px 398.94px 0px;" id="elo7eoo9tn4fs" class="animable"></path><path d="M679.69,384.2c5.03,5.43,12.36,8.66,19.76,8.7,7.4,.04,14.76-3.11,19.85-8.49-12.59-1.38-27.11-2.3-39.61-.2" style="fill: rgb(69, 90, 100); transform-origin: 699.495px 387.936px 0px;" id="elst0o3tgfxsl" class="animable"></path><g id="elolagty0ftq" style="transform-origin: 647.939px 355.63px 0px;" class="animable"><path d="M681.57,283.56s-.03,.13-.12,.37c-.09,.26-.22,.61-.38,1.06-.36,.96-.87,2.32-1.52,4.08-.68,1.76-1.46,3.94-2.36,6.46-.46,1.26-.94,2.61-1.46,4.04-.5,1.44-1.02,2.96-1.57,4.55-2.23,6.37-4.71,14.03-7.38,22.55-2.63,8.53-5.38,17.96-8.09,27.9-2.68,9.95-5.05,19.48-7.07,28.18-1.96,8.71-3.65,16.58-4.87,23.22-.31,1.66-.61,3.24-.89,4.73-.25,1.5-.49,2.91-.72,4.24-.46,2.64-.85,4.92-1.11,6.79-.28,1.85-.51,3.29-.66,4.3-.08,.47-.14,.84-.18,1.12-.04,.25-.07,.38-.08,.38,0,0,0-.13,.03-.38,.03-.28,.08-.65,.14-1.12,.13-1.01,.33-2.46,.57-4.31,.23-1.88,.6-4.16,1.03-6.81,.21-1.33,.44-2.74,.68-4.24,.27-1.5,.56-3.08,.86-4.74,1.18-6.66,2.83-14.53,4.77-23.25,2-8.71,4.36-18.25,7.04-28.21,2.71-9.95,5.49-19.37,8.14-27.9,2.7-8.52,5.21-16.16,7.48-22.53,.56-1.59,1.1-3.11,1.61-4.54,.53-1.43,1.03-2.77,1.49-4.03,.93-2.52,1.74-4.68,2.44-6.44,.69-1.74,1.23-3.1,1.6-4.05,.18-.44,.32-.79,.43-1.05,.1-.23,.15-.35,.16-.35Z" style="fill: rgb(38, 50, 56); transform-origin: 662.345px 355.545px 0px;" id="elxlvpurtias" class="animable"></path><path d="M612.42,319.57s.08,.06,.22,.2c.15,.16,.35,.37,.6,.63,.53,.56,1.29,1.4,2.24,2.5,1.9,2.21,4.58,5.49,7.41,9.88,2.83,4.38,5.73,9.96,7.75,16.58,2.08,6.6,3.37,14.1,4.65,21.94,2.56,15.7,5.7,29.76,7.97,39.93,1.15,5.06,2.08,9.16,2.73,12.04,.31,1.4,.55,2.5,.73,3.28l.18,.85c.04,.19,.05,.29,.04,.3,0,0-.04-.09-.09-.28-.06-.22-.13-.49-.22-.84-.19-.78-.47-1.87-.81-3.26-.69-2.87-1.67-6.96-2.88-12.01-2.36-10.15-5.55-24.21-8.12-39.92-1.28-7.84-2.56-15.32-4.6-21.89-1.98-6.59-4.83-12.14-7.61-16.53-2.78-4.4-5.41-7.7-7.27-9.94-.93-1.12-1.67-1.98-2.17-2.56l-.57-.66c-.13-.15-.19-.23-.18-.24Z" style="fill: rgb(38, 50, 56); transform-origin: 629.681px 373.635px 0px;" id="eldht78nhz5yl" class="animable"></path><path d="M683.45,383.67s-.16,.04-.45,.08c-.35,.04-.78,.09-1.3,.14-.29,.03-.6,.06-.94,.09-.35,.05-.72,.11-1.11,.17-.8,.12-1.71,.24-2.7,.46-.5,.1-1.02,.2-1.56,.31-.54,.14-1.1,.28-1.67,.42-1.17,.26-2.37,.69-3.65,1.08-2.53,.89-5.26,2.03-7.97,3.51-2.71,1.5-5.1,3.24-7.15,4.96-.99,.9-1.95,1.74-2.74,2.63-.85,.84-1.53,1.71-2.17,2.5-.67,.77-1.14,1.56-1.61,2.21-.48,.65-.82,1.25-1.1,1.75-.27,.45-.49,.82-.67,1.13-.16,.26-.25,.39-.26,.38s.05-.15,.18-.42c.16-.32,.36-.71,.59-1.18,.25-.51,.58-1.13,1.04-1.81,.45-.67,.9-1.49,1.56-2.28,.62-.81,1.3-1.71,2.15-2.57,.79-.91,1.75-1.78,2.74-2.69,2.05-1.77,4.47-3.53,7.2-5.05,2.74-1.5,5.5-2.64,8.06-3.51,1.3-.38,2.52-.79,3.7-1.04,.58-.14,1.15-.27,1.69-.4,.55-.1,1.07-.19,1.58-.28,1-.2,1.92-.29,2.73-.39,.4-.05,.77-.09,1.12-.13,.34-.02,.66-.04,.95-.05,.52-.02,.96-.04,1.31-.05,.3,0,.46,0,.46,.01Z" style="fill: rgb(38, 50, 56); transform-origin: 664.93px 394.565px 0px;" id="el0142dpre669go" class="animable"></path></g><path d="M687.04,319.88s-.3,.33-.91,.87c-.68,.59-1.55,1.35-2.59,2.25-2.2,1.88-5.26,4.46-8.67,7.28-3.4,2.82-6.5,5.35-8.76,7.17-1.08,.85-1.98,1.57-2.69,2.13-.64,.49-1.01,.76-1.03,.73-.02-.03,.3-.34,.91-.88,.68-.59,1.55-1.35,2.59-2.25,2.2-1.88,5.26-4.46,8.66-7.28,3.4-2.82,6.5-5.35,8.75-7.17,1.08-.85,1.98-1.57,2.69-2.13,.64-.49,1.01-.76,1.03-.73Z" style="fill: rgb(38, 50, 56); transform-origin: 674.715px 330.09px 0px;" id="el1ae2nknsc13" class="animable"></path><path d="M690.13,336.53c.04,.13-6.57,2.19-14.76,4.61-8.19,2.42-14.86,4.28-14.9,4.15-.04-.13,6.57-2.19,14.76-4.61,8.19-2.42,14.86-4.28,14.9-4.15Z" style="fill: rgb(38, 50, 56); transform-origin: 675.3px 340.91px 0px;" id="elb4iko37smai" class="animable"></path><path d="M665.72,329.9s-.27-.32-.68-.95c-.47-.71-1.05-1.6-1.74-2.65-1.48-2.24-3.58-5.29-6.06-8.53-2.48-3.25-4.87-6.07-6.64-8.09-.83-.95-1.53-1.75-2.09-2.39-.49-.57-.76-.89-.73-.91,.02-.02,.33,.26,.87,.78,.54,.52,1.29,1.31,2.21,2.29,1.83,1.97,4.27,4.77,6.77,8.03,2.49,3.26,4.55,6.35,5.96,8.64,.7,1.14,1.26,2.08,1.62,2.74,.36,.66,.55,1.03,.52,1.05Z" style="fill: rgb(38, 50, 56); transform-origin: 656.755px 318.144px 0px;" id="elffjrjq7xwqd" class="animable"></path><path d="M642.77,339.14c.06,.04-.56,1-1.55,2.55-.99,1.55-2.33,3.71-3.72,6.15-1.39,2.44-2.56,4.69-3.39,6.34-.83,1.64-1.34,2.66-1.4,2.64-.06-.02,.34-1.1,1.09-2.78,.75-1.69,1.88-3.98,3.28-6.43,1.39-2.45,2.79-4.59,3.85-6.1,1.06-1.51,1.78-2.4,1.83-2.36Z" style="fill: rgb(38, 50, 56); transform-origin: 637.739px 347.98px 0px;" id="el0hg7x7plq36" class="animable"></path><path d="M634.91,367.95c-.03,.07-1.29-.55-3.36-1.48-2.06-.93-4.95-2.14-8.2-3.29-3.26-1.14-6.27-1.99-8.46-2.55-2.19-.56-3.56-.87-3.55-.94,0-.03,.36,0,.98,.1,.63,.09,1.53,.26,2.64,.5,2.22,.48,5.26,1.28,8.54,2.42,3.28,1.15,6.15,2.42,8.19,3.43,1.02,.51,1.83,.94,2.38,1.25,.55,.32,.85,.5,.83,.53Z" style="fill: rgb(38, 50, 56); transform-origin: 623.125px 363.817px 0px;" id="el4hg0w4mn78w" class="animable"></path><path d="M638.15,387.24s-.14,.06-.41,.14c-.33,.08-.72,.18-1.19,.3-1.11,.26-2.6,.6-4.4,1.01-3.71,.86-8.87,1.94-14.36,3.79-5.49,1.87-10.2,4.25-13.4,6.29-1.6,1.02-2.85,1.92-3.69,2.57-.85,.64-1.31,1.01-1.33,.98-.01-.01,.09-.12,.3-.31,.21-.19,.5-.48,.92-.82,.81-.7,2.03-1.64,3.62-2.71,3.17-2.14,7.9-4.58,13.43-6.46,5.53-1.87,10.72-2.89,14.44-3.67,1.81-.35,3.31-.65,4.43-.87,1.05-.2,1.63-.29,1.64-.26Z" style="fill: rgb(38, 50, 56); transform-origin: 618.76px 394.768px 0px;" id="el1p3nihkzq5u" class="animable"></path><path d="M663.46,410.88c-.13,.02-.92-4.62-1.76-10.35-.84-5.74-1.41-10.41-1.28-10.43,.13-.02,.92,4.62,1.76,10.36,.84,5.74,1.41,10.41,1.28,10.42Z" style="fill: rgb(38, 50, 56); transform-origin: 661.94px 400.49px 0px;" id="elfjejhd9e7pq" class="animable"></path><path d="M686.73,402.43c-.06,.04-.84-.93-2.1-2.49-1.26-1.57-3-3.72-4.97-6.07-1.97-2.35-3.8-4.43-5.12-5.94-1.33-1.51-2.14-2.45-2.09-2.5,.02-.02,.26,.18,.67,.57,.41,.39,.98,.97,1.68,1.69,1.39,1.45,3.26,3.51,5.24,5.86,1.98,2.35,3.68,4.55,4.87,6.17,.6,.81,1.07,1.48,1.38,1.94,.31,.47,.47,.74,.45,.76Z" style="fill: rgb(38, 50, 56); transform-origin: 679.595px 393.93px 0px;" id="eldrl90106dn4" class="animable"></path></g><path d="M689.03,361.85s-.51,.17-1.45,.39c-1.02,.25-2.36,.57-3.98,.96-3.35,.83-7.96,2.09-12.96,3.77-5,1.68-9.43,3.46-12.6,4.83-1.52,.67-2.79,1.22-3.75,1.64-.88,.39-1.38,.59-1.39,.56-.01-.03,.45-.29,1.31-.73,.86-.45,2.12-1.06,3.69-1.78,3.15-1.45,7.57-3.28,12.59-4.97,5.01-1.68,9.65-2.9,13.03-3.64,1.69-.38,3.07-.65,4.02-.81,.95-.17,1.48-.24,1.49-.21Z" style="fill: rgb(38, 50, 56); transform-origin: 670.965px 367.926px 0px;" id="el91rmrr9ux8i" class="animable"></path><g id="elglhijpebkvj" style="transform-origin: 644.67px 442.635px 0px;" class="animable"><polygon points="616.22 417.48 616.22 430.7 619.53 430.7 627.95 467.79 660.08 467.79 668.72 431.07 673.12 430.7 673.12 417.48 616.22 417.48" style="fill: #5F210B; transform-origin: 644.67px 442.635px 0px;" id="el9syes76hk9l" class="animable"></polygon><path d="M670.92,431.07c0,.15-11.51,.28-25.7,.28s-25.7-.12-25.7-.28,11.5-.28,25.7-.28,25.7,.12,25.7,.28Z" style="fill: rgb(38, 50, 56); transform-origin: 645.22px 431.07px 0px;" id="elqnopj51jkkc" class="animable"></path></g></g></g><g id="freepik--Musical_notes--inject-45" style="transform-origin: 290.53px 136.857px 0px;" class="animable"><g id="elouw28fu5bzq" style="transform-origin: 322.732px 145.586px 0px;" class="animable"><path d="M320.89,154.08c-1.24,1.64-3.58,1.97-5.22,.73-1.64-1.24-1.97-3.58-.73-5.22,1.24-1.64,3.58-1.97,5.22-.73,1.64,1.24,1.97,3.58,.73,5.22Z" style="fill: rgb(38, 50, 56); transform-origin: 317.915px 151.835px 0px;" id="elsncopapswt" class="animable"></path><path d="M321.2,152.77c-.23,0-.3-3.92,.47-8.66,.78-4.72,1.43-8.52,1.64-8.5,.25,.02-.05,3.92-.83,8.62-.76,4.7-1.05,8.54-1.28,8.54Z" style="fill: rgb(38, 50, 56); transform-origin: 322.22px 144.19px 0px;" id="eluty047vmjyh" class="animable"></path><path d="M331.27,136.46c.12,.18-1.68,1.25-4.16,1.06-2.48-.17-4.11-1.49-3.96-1.65,.12-.21,1.78,.69,4.02,.83,2.24,.18,4.01-.47,4.1-.24Z" style="fill: rgb(38, 50, 56); transform-origin: 327.208px 136.69px 0px;" id="elsfli519bz2" class="animable"></path><path d="M330.44,140.23c.14,.17-1.61,1.31-4.01,.95-2.41-.33-3.77-1.93-3.58-2.05,.15-.18,1.58,.95,3.7,1.24,2.12,.33,3.8-.36,3.9-.14Z" style="fill: rgb(38, 50, 56); transform-origin: 326.641px 140.18px 0px;" id="elbzyyshbhei" class="animable"></path></g><g id="el4xhq8uehyuc" style="transform-origin: 259.705px 127.607px 0px;" class="animable"><g id="elmrv9vuqebod" style="transform-origin: 259.285px 126.372px 0px;" class="animable"><path d="M256.99,134.95c-1.01,1.86-3.33,2.55-5.2,1.54-1.86-1.01-2.55-3.33-1.54-5.19s3.33-2.55,5.19-1.54c1.86,1.01,2.55,3.33,1.54,5.2Z" style="fill: rgb(38, 50, 56); transform-origin: 253.615px 133.125px 0px;" id="elhbwirm51sf6" class="animable"></path><path d="M257.11,133.57c-.36,.06-1.16-3.93-1.1-8.88,.07-4.93,.26-8.87,.6-8.9,.39-.03,.8,4,.73,8.9-.05,4.89,.13,8.83-.23,8.88Z" style="fill: rgb(38, 50, 56); transform-origin: 256.677px 124.68px 0px;" id="el5e2h2k8ovvn" class="animable"></path><path d="M268.78,118.25c.13,.28-2.74,1.69-6.59,1.26-1.9-.21-3.57-.92-4.56-1.74-1.02-.8-1.28-1.62-1.14-1.7,.17-.12,.66,.42,1.66,.92,.99,.52,2.47,1.01,4.19,1.2,3.46,.41,6.33-.34,6.44,.06Z" style="fill: rgb(38, 50, 56); transform-origin: 262.62px 117.822px 0px;" id="elrx8s2y2go1" class="animable"></path></g><path d="M269.16,137.42c-1.01,1.86-3.33,2.55-5.19,1.54s-2.55-3.33-1.54-5.2c1.01-1.86,3.33-2.55,5.19-1.54,1.86,1.01,2.55,3.33,1.54,5.2Z" style="fill: rgb(38, 50, 56); transform-origin: 265.795px 135.59px 0px;" id="elmz84ohilnz" class="animable"></path><path d="M269.28,136.04c-.37,.06-1.16-3.93-1.1-8.88,.07-4.93,.26-8.87,.6-8.9,.39-.03,.8,4,.73,8.9-.05,4.89,.13,8.83-.23,8.88Z" style="fill: rgb(38, 50, 56); transform-origin: 268.847px 127.15px 0px;" id="eldoygit2f2pi" class="animable"></path><path d="M268.87,120.87c.18,.3-2.47,1.82-6.1,1.55-3.63-.25-6.04-2.14-5.82-2.41,.19-.34,2.65,.87,5.91,1.08,3.26,.26,5.86-.58,6.01-.22Z" style="fill: rgb(38, 50, 56); transform-origin: 262.907px 121.201px 0px;" id="elytxtakiu7em" class="animable"></path></g><g id="ele28hdx1xjvl" style="transform-origin: 286.245px 194.119px 0px;" class="animable"><g id="elaxzngb2004b" style="transform-origin: 284.242px 194.119px 0px;" class="animable"><path d="M284.61,199.62c-.29,1.39-1.65,2.29-3.04,2-1.39-.29-2.29-1.65-2-3.04,.29-1.39,1.65-2.29,3.04-2,1.39,.29,2.29,1.65,2,3.04Z" style="fill: rgb(38, 50, 56); transform-origin: 282.09px 199.1px 0px;" id="ely9yzectr97" class="animable"></path><path d="M284.42,198.7c-.22,.11-1.51-2.31-2.43-5.5-.91-3.18-1.55-5.76-1.34-5.84,.25-.09,1.29,2.42,2.19,5.59,.91,3.16,1.8,5.66,1.57,5.76Z" style="fill: rgb(38, 50, 56); transform-origin: 282.528px 193.034px 0px;" id="eltdm3rtela4" class="animable"></path><path d="M288.96,186.59c.14,.16-1.44,1.62-4,2.09-1.26,.24-2.47,.1-3.27-.23-.81-.32-1.14-.8-1.07-.87,.09-.11,.51,.14,1.25,.27,.74,.14,1.79,.17,2.93-.04,2.3-.41,4.01-1.45,4.15-1.21Z" style="fill: rgb(38, 50, 56); transform-origin: 284.79px 187.683px 0px;" id="el6tsi7gkbj0k" class="animable"></path></g><path d="M292.92,198.85c-.29,1.39-1.65,2.29-3.04,2s-2.29-1.65-2-3.04c.29-1.39,1.65-2.29,3.04-2,1.39,.29,2.29,1.65,2,3.04Z" style="fill: rgb(38, 50, 56); transform-origin: 290.4px 198.33px 0px;" id="elricv1hche3s" class="animable"></path><path d="M292.72,197.93c-.22,.11-1.51-2.31-2.43-5.5-.91-3.18-1.55-5.76-1.34-5.84,.25-.09,1.29,2.42,2.19,5.59,.91,3.16,1.8,5.66,1.57,5.76Z" style="fill: rgb(38, 50, 56); transform-origin: 290.828px 192.264px 0px;" id="elgbeo29i224p" class="animable"></path><path d="M289.52,188.25c.17,.16-1.24,1.65-3.63,2.18-2.38,.54-4.3-.21-4.21-.42,.06-.26,1.87,.05,4.01-.45,2.15-.46,3.66-1.51,3.82-1.3Z" style="fill: rgb(38, 50, 56); transform-origin: 285.605px 189.427px 0px;" id="elsfx46py3e3" class="animable"></path></g><g id="elmv750qfsv9" style="transform-origin: 290.832px 81.3752px 0px;" class="animable"><g id="elda4mcsdhen8" style="transform-origin: 290.681px 80.1402px 0px;" class="animable"><path d="M288.49,86.84c-.86,1.39-2.69,1.82-4.08,.95-1.39-.86-1.82-2.69-.95-4.08s2.69-1.82,4.08-.95c1.39,.86,1.82,2.69,.95,4.08Z" style="fill: rgb(38, 50, 56); transform-origin: 285.975px 85.275px 0px;" id="elu8exxllta7r" class="animable"></path><path d="M288.65,85.78c-.28,.03-.71-3.09-.44-6.9,.28-3.8,.61-6.83,.87-6.84,.3,0,.43,3.12,.15,6.9-.27,3.77-.3,6.82-.59,6.84Z" style="fill: rgb(38, 50, 56); transform-origin: 288.755px 78.9101px 0px;" id="ela2n4wdmr9y" class="animable"></path><path d="M298.35,74.5c.09,.22-2.19,1.18-5.15,.67-1.46-.25-2.71-.88-3.44-1.55-.75-.67-.92-1.31-.8-1.36,.14-.08,.49,.35,1.24,.78,.74,.44,1.86,.89,3.18,1.12,2.65,.47,4.9,.03,4.96,.34Z" style="fill: rgb(38, 50, 56); transform-origin: 293.639px 73.7838px 0px;" id="el3q6utcc3dgj" class="animable"></path></g><path d="M297.77,89.31c-.86,1.39-2.69,1.82-4.08,.95-1.39-.86-1.82-2.69-.95-4.08,.86-1.39,2.69-1.82,4.08-.95,1.39,.86,1.82,2.69,.95,4.08Z" style="fill: rgb(38, 50, 56); transform-origin: 295.255px 87.745px 0px;" id="elra1lv2w8pj" class="animable"></path><path d="M297.92,88.24c-.28,.03-.71-3.09-.44-6.9,.28-3.8,.61-6.83,.87-6.84,.3,0,.43,3.12,.15,6.9-.27,3.77-.3,6.82-.58,6.84Z" style="fill: rgb(38, 50, 56); transform-origin: 298.025px 81.3701px 0px;" id="elzfky07ehhet" class="animable"></path><path d="M298.31,76.52c.13,.24-1.99,1.29-4.78,.91-2.79-.36-4.56-1.93-4.38-2.12,.16-.25,2,.8,4.51,1.11,2.5,.35,4.55-.18,4.64,.11Z" style="fill: rgb(38, 50, 56); transform-origin: 293.727px 76.392px 0px;" id="elb21xtcwaub5" class="animable"></path></g></g><g id="freepik--Speech_Bubble--inject-45" style="transform-origin: 135.891px 138.746px 0px;" class="animable"><g id="elkkeo5z0ii1h" style="transform-origin: 135.891px 138.746px 0px;" class="animable"><g id="elf9sz1wiyqi" style="transform-origin: 133.219px 138.3px 0px;" class="animable"><g id="elfhel6atbdcg"><circle cx="133.34" cy="138.33" r="27.44" style="fill: rgb(255, 255, 255); transform-origin: 133.34px 138.33px 0px; transform: rotate(-45deg);" class="animable" id="elca16zvb91"></circle></g><path d="M160.79,138.33s-.03-.15-.05-.44c-.02-.32-.05-.75-.09-1.3-.02-.29-.04-.61-.06-.96-.04-.35-.11-.73-.18-1.14-.13-.83-.26-1.79-.58-2.83-.49-2.12-1.48-4.62-3.05-7.26-1.58-2.64-3.85-5.39-6.95-7.73-3.08-2.31-6.98-4.28-11.47-5.08-4.46-.77-9.5-.63-14.29,1.2-1.22,.39-2.37,.99-3.55,1.56-.57,.31-1.12,.67-1.69,1.01-.58,.32-1.11,.73-1.64,1.13-1.11,.76-2.07,1.71-3.08,2.62-.91,1.01-1.88,2-2.66,3.15-1.62,2.25-3.03,4.74-3.89,7.49-.89,2.73-1.36,5.63-1.4,8.58,.04,2.95,.51,5.85,1.4,8.58,.85,2.75,2.27,5.24,3.89,7.49,.79,1.15,1.75,2.14,2.66,3.15,1.01,.91,1.98,1.86,3.08,2.62,.53,.41,1.06,.81,1.64,1.13,.57,.34,1.12,.7,1.69,1.01,1.18,.57,2.33,1.17,3.55,1.56,4.8,1.82,9.83,1.96,14.29,1.2,4.49-.79,8.38-2.76,11.47-5.08,3.09-2.34,5.37-5.09,6.95-7.73,1.57-2.65,2.56-5.15,3.05-7.26,.32-1.04,.44-2,.58-2.83,.06-.41,.14-.79,.18-1.14,.02-.35,.04-.67,.06-.96,.04-.55,.07-.98,.09-1.3,.02-.29,.04-.44,.05-.44s.01,.15,0,.44c0,.32-.02,.75-.04,1.31-.01,.29-.02,.61-.04,.96-.03,.35-.1,.74-.15,1.15-.12,.83-.23,1.8-.53,2.85-.46,2.14-1.44,4.67-2.99,7.36-1.57,2.68-3.85,5.48-6.97,7.87-3.11,2.37-7.05,4.38-11.61,5.21-4.53,.8-9.65,.67-14.54-1.17-1.24-.4-2.41-1.01-3.61-1.58-.59-.32-1.15-.68-1.73-1.03-.59-.33-1.13-.74-1.67-1.15-1.13-.77-2.11-1.74-3.15-2.67-.93-1.03-1.91-2.04-2.72-3.21-1.65-2.29-3.09-4.83-3.97-7.63-.9-2.78-1.39-5.74-1.43-8.74,.04-3.01,.53-5.96,1.43-8.74,.87-2.8,2.31-5.34,3.97-7.63,.81-1.17,1.78-2.18,2.72-3.21,1.03-.93,2.02-1.89,3.14-2.67,.54-.41,1.08-.82,1.67-1.15,.58-.34,1.14-.71,1.73-1.03,1.2-.57,2.37-1.18,3.61-1.58,4.89-1.84,10.01-1.97,14.53-1.17,4.56,.83,8.5,2.84,11.61,5.21,3.12,2.39,5.4,5.19,6.97,7.87,1.56,2.69,2.53,5.22,2.99,7.36,.31,1.05,.42,2.02,.53,2.86,.06,.42,.12,.8,.15,1.15,.01,.35,.03,.67,.04,.96,.02,.56,.03,.99,.04,1.31,0,.29,0,.44,0,.44Z" style="fill: rgb(38, 50, 56); transform-origin: 133.219px 138.3px 0px;" id="el2ey99k8zjzv" class="animable"></path></g><g id="elmq2be8x1gh" style="transform-origin: 161.726px 162.351px 0px;" class="animable"><path d="M166.1,162.37c0,2.35-1.91,4.26-4.26,4.26s-4.26-1.91-4.26-4.26,1.91-4.26,4.26-4.26,4.26,1.91,4.26,4.26Z" style="fill: rgb(255, 255, 255); transform-origin: 161.84px 162.37px 0px;" id="elwmdwtmcmsu" class="animable"></path><path d="M166.1,162.37s-.05-.38-.23-1.02c-.18-.62-.62-1.53-1.56-2.23-.91-.69-2.4-1.08-3.84-.54-1.42,.5-2.65,2.01-2.63,3.78-.02,1.77,1.21,3.28,2.63,3.78,1.44,.54,2.93,.16,3.84-.54,.94-.69,1.38-1.6,1.56-2.23,.18-.64,.18-1.02,.23-1.02,.02,0,.1,.38-.03,1.07-.13,.67-.54,1.67-1.54,2.47-.96,.8-2.61,1.27-4.23,.69-1.6-.53-3.01-2.23-2.99-4.23-.02-2,1.39-3.7,2.99-4.23,1.62-.58,3.26-.1,4.22,.69,1,.8,1.41,1.8,1.54,2.47,.13,.68,.06,1.07,.04,1.07Z" style="fill: rgb(38, 50, 56); transform-origin: 161.726px 162.351px 0px;" id="ela92m6rfk38d" class="animable"></path></g><g id="eljlfv1eu0x8d" style="transform-origin: 132.209px 138.649px 0px;" class="animable"><g id="elsc58ylxsg9" style="transform-origin: 131.846px 137.579px 0px;" class="animable"><path d="M129.86,145.02c-.87,1.61-2.89,2.21-4.51,1.34s-2.21-2.89-1.34-4.51,2.89-2.21,4.51-1.34,2.21,2.89,1.34,4.51Z" style="fill: rgb(38, 50, 56); transform-origin: 126.935px 143.434px 0px;" id="elcyxpmtz14mq" class="animable"></path><path d="M129.96,143.82c-.32,.05-1-3.41-.95-7.7,.06-4.27,.22-7.69,.52-7.72,.34-.02,.69,3.47,.63,7.72-.05,4.24,.12,7.66-.2,7.7Z" style="fill: rgb(38, 50, 56); transform-origin: 129.587px 136.11px 0px;" id="el00uatt03iilo" class="animable"></path><path d="M140.08,130.54c.11,.24-2.38,1.47-5.72,1.09-1.65-.18-3.09-.8-3.95-1.51-.88-.7-1.11-1.41-.99-1.47,.15-.1,.57,.36,1.44,.79,.86,.45,2.14,.88,3.64,1.04,3,.35,5.49-.3,5.58,.05Z" style="fill: rgb(38, 50, 56); transform-origin: 134.737px 130.169px 0px;" id="el599aecduj4j" class="animable"></path></g><path d="M140.41,147.16c-.87,1.61-2.89,2.21-4.51,1.34-1.61-.87-2.21-2.89-1.34-4.51s2.89-2.21,4.51-1.34c1.61,.87,2.21,2.89,1.34,4.51Z" style="fill: rgb(38, 50, 56); transform-origin: 137.485px 145.574px 0px;" id="el5acpulvmb9a" class="animable"></path><path d="M140.51,145.96c-.32,.05-1-3.41-.95-7.7,.06-4.27,.22-7.69,.52-7.72,.34-.02,.69,3.47,.63,7.72-.05,4.24,.12,7.66-.2,7.7Z" style="fill: rgb(38, 50, 56); transform-origin: 140.137px 138.25px 0px;" id="ela4q95wfn3h4" class="animable"></path><path d="M140.16,132.81c.16,.26-2.15,1.58-5.29,1.34-3.15-.21-5.24-1.86-5.04-2.09,.17-.29,2.3,.76,5.13,.94,2.82,.23,5.08-.5,5.21-.19Z" style="fill: rgb(38, 50, 56); transform-origin: 134.993px 133.094px 0px;" id="el60awbdgf344" class="animable"></path></g></g></g><g id="freepik--Character--inject-45" style="transform-origin: 172.065px 313.026px 0px;" class="animable"><g id="el19kotapmpsp" style="transform-origin: 177.015px 439.005px 0px;" class="animable"><path d="M200.43,420.64l-16.61,22.95s17.37,24.37,14.71,28.9l-44.93-30.18,24.43-36.8,22.4,15.14Z" style="fill: rgb(38, 50, 56); transform-origin: 177.015px 439px 0px;" id="elatigdmd9nwm" class="animable"></path><path d="M171.25,432.28c-1.03-.34-2.3,.25-2.7,1.27-.4,1.03,.17,2.32,1.2,2.68,1.02,.36,2.57-.3,2.85-1.36,.28-1.06-.47-2.55-1.55-2.65" style="fill: rgb(224, 224, 224); transform-origin: 170.54px 434.256px 0px;" id="elxdtfqnodxkh" class="animable"></path><path d="M153.6,442.31l2.61-3.61,42.11,30.29s1.41,2.23,.22,3.51l-44.93-30.18Z" style="fill: rgb(69, 90, 100); transform-origin: 176.309px 455.6px 0px;" id="eln9mjd4cspoq" class="animable"></path><path d="M184.7,443.84c-.16,.22-1.32-.42-2.88-.43-1.56-.05-2.76,.54-2.91,.32-.17-.18,1.05-1.29,2.94-1.25,1.89,.03,3.04,1.18,2.85,1.36Z" style="fill: rgb(255, 255, 255); transform-origin: 181.807px 443.182px 0px;" id="elrcnhlrkyt6" class="animable"></path><path d="M188.09,448.99c-.09,.25-1.3-.01-2.68,.43-1.39,.4-2.26,1.29-2.47,1.14-.23-.1,.49-1.51,2.22-2.03,1.72-.53,3.07,.24,2.93,.46Z" style="fill: rgb(255, 255, 255); transform-origin: 185.499px 449.462px 0px;" id="elrpxy6pbwn9a" class="animable"></path><path d="M186.92,456.52c-.23-.09,.21-1.41,1.59-2.25,1.38-.85,2.73-.64,2.7-.39,0,.27-1.1,.47-2.23,1.18-1.14,.68-1.83,1.58-2.07,1.45Z" style="fill: rgb(255, 255, 255); transform-origin: 189.036px 455.091px 0px;" id="elj3di65ds71" class="animable"></path><path d="M187.92,438.2c-.23,.14-1.03-.84-2.33-1.59-1.28-.77-2.53-1-2.52-1.27-.02-.25,1.48-.44,2.99,.46,1.52,.89,2.08,2.29,1.85,2.39Z" style="fill: rgb(255, 255, 255); transform-origin: 185.515px 436.673px 0px;" id="eljqalnq2ofb" class="animable"></path></g><g id="el3ewxj0jc4kv" style="transform-origin: 210.67px 285.455px 0px;" class="animable"><g id="eljs68vlf1a9" style="transform-origin: 187.825px 285.455px 0px;" class="animable"><path d="M175.91,267.67c.36,.92,2.85,10.47,2.85,10.47,0,0,19.08-8.36,29.65-9.49l5.16,1.3,.45,15.73s-45.49,18.65-48.61,17.52c-3.12-1.13-3.78-27.1-3.78-27.1l14.28-8.44Z" style="fill: #5F210B; transform-origin: 187.825px 285.455px 0px;" id="el4j8l29qv59l" class="animable"></path><g id="elyilonn4txq"><path d="M175.91,267.67c.36,.92,2.85,10.47,2.85,10.47,0,0,19.08-8.36,29.65-9.49l5.16,1.3,.45,15.73s-45.49,18.65-48.61,17.52c-3.12-1.13-3.78-27.1-3.78-27.1l14.28-8.44Z" style="opacity: 0.3; transform-origin: 187.825px 285.455px 0px;" class="animable" id="elv9pdzkf7tjm"></path></g></g><path d="M259.71,285.59c-.2-.31-7.18-6.81-8.49-7.5-1.31-.68-6-2.07-7.93-3.1-1.93-1.03-2.37-2.05-3.23-2.37-.86-.32-15.78-2.42-18.53-2.7s-8.62,1.92-9.36,2c-.73,.08,2.04,11.25,2.29,11.22s5.14-1.3,5.47-1.34c.33-.04,3.01,1.16,5.12,1.59,2.11,.43,8.01,.78,8.01,.78,0,0,11.3,8.35,13.03,8.33,1.73-.02,2.78-1.79,1.28-2.7-1.5-.91-5.7-5.41-5.96-5.54-.26-.14-1.86-1.94-1.86-1.94,0,0,.92-.68,2.2-.24,1.29,.44,4.65,2.55,5.48,3.37,.83,.82,4.94,5.98,7.23,5.82,2.29-.17,2.65-.7,2.02-1.95s-6.49-7.3-6.49-7.3c0,0,4.85,5.17,7.17,5.25,2.32,.08,2.54-1.68,2.54-1.68Z" style="fill: rgb(111, 68, 57); transform-origin: 235.879px 281.198px 0px;" id="elle4r2oobqpl" class="animable"></path></g><g id="elrrkfnn7al6o" style="transform-origin: 193.296px 196.016px 0px;" class="animable"><g id="elx8o4zq5ccdr" style="transform-origin: 193.296px 196.016px 0px;" class="animable"><path d="M220.8,194.42c2.03,1.86,5.48,1.89,7.54,.06,2.06-1.83,2.43-5.26,.82-7.49,2.4-.41,4.43-2.47,4.8-4.88,.37-2.41-.95-4.98-3.12-6.09,1.33-2,1.53-4.71,.5-6.88-1.03-2.17-3.26-3.73-5.65-3.96-.81-3.41-4.22-6-7.71-5.86-1.63-1.72-4.43-2.22-6.55-1.16-2.13,1.06-3.42,3.58-3.03,5.93" style="fill: rgb(38, 50, 56); transform-origin: 221.176px 176.72px 0px;" id="elhglw2sua1l" class="animable"></path><g id="elhats2koik5o" style="transform-origin: 189.503px 196.016px 0px;" class="animable"><g id="elmu2q3x16p6c" style="transform-origin: 189.503px 197.93px 0px;" class="animable"><path d="M213.73,163.08l1,.73c10.03,7.33,12.76,21.13,6.27,31.72-6.04,9.85-12.84,20.66-16.55,25.6-7.67,10.24-19.18,4.3-19.18,4.3l-8.19,13.05-24.51-19.09,30.66-46.65c6.91-11.41,19.31-16.89,30.52-9.67Z" style="fill: rgb(174, 116, 97); transform-origin: 188.542px 199.148px 0px;" id="ell0rob8jhqx" class="animable"></path><path d="M185.27,225.45s-6.81-4.38-10.57-13.81c0,0-2.22,10.05,8.77,16.64l1.8-2.83Z" style="fill: rgb(111, 68, 57); transform-origin: 179.893px 219.96px 0px;" id="elanpo4si94gq" class="animable"></path><path d="M206.74,199.17c.3-.11,.97,1.43,2.61,2.33,1.63,.92,3.32,.7,3.38,1.01,.04,.14-.36,.41-1.11,.53-.73,.12-1.83,.02-2.85-.55-1.02-.57-1.66-1.44-1.94-2.11-.28-.69-.25-1.16-.1-1.2Z" style="fill: rgb(38, 50, 56); transform-origin: 209.675px 201.125px 0px;" id="el2yv77fhc5cc" class="animable"></path><path d="M191.8,188.15c.33-.02,.64,1.68,2.08,3.02,1.42,1.36,3.16,1.61,3.15,1.93,0,.15-.46,.31-1.23,.21-.76-.09-1.83-.49-2.73-1.33-.89-.84-1.33-1.88-1.45-2.62-.12-.75,.02-1.21,.18-1.21Z" style="fill: rgb(38, 50, 56); transform-origin: 194.302px 190.745px 0px;" id="eljdtrx0zzwb" class="animable"></path><path d="M196.42,203.85c.06-.1,1.17,.45,2.92,1.42,.44,.25,.88,.45,1.15,.23,.31-.22,.46-.78,.61-1.4,.33-1.26,.69-2.58,1.06-3.96,1.54-5.61,2.98-10.11,3.2-10.04,.23,.06-.84,4.67-2.39,10.28-.39,1.38-.76,2.69-1.12,3.95-.18,.57-.3,1.29-.95,1.75-.33,.22-.79,.23-1.1,.11-.32-.11-.55-.27-.76-.41-1.67-1.09-2.68-1.81-2.62-1.9Z" style="fill: rgb(38, 50, 56); transform-origin: 200.904px 198.183px 0px;" id="elgrzhbjhrioo" class="animable"></path><path d="M201.86,187.77c-.5,.25-1.55-1.18-3.18-2.46-1.61-1.31-3.25-2.03-3.1-2.56,.08-.25,.64-.39,1.48-.27,.83,.12,1.93,.53,2.9,1.31,.97,.78,1.6,1.74,1.88,2.52,.28,.78,.25,1.34,.02,1.47Z" style="fill: rgb(38, 50, 56); transform-origin: 198.806px 185.118px 0px;" id="elieotbbmxw" class="animable"></path><path d="M218.57,194.36c-.58,.17-1.74-1.05-3.41-2.07-1.64-1.06-3.25-1.58-3.34-2.18-.03-.28,.42-.53,1.26-.53,.83,0,2.03,.31,3.16,1.02,1.13,.71,1.93,1.66,2.28,2.4,.36,.75,.32,1.26,.05,1.35Z" style="fill: rgb(38, 50, 56); transform-origin: 215.3px 191.978px 0px;" id="elpo1jycuearb" class="animable"></path><path d="M223.46,190.07s2-8.46-.02-12.25c-2.44-4.59-7.1-1.63-9.96-5.26-2.87-3.64-5.19-8.02-10.9-7.93-6.25,.11-5.93,3.62-9.52,8.02-14.58,17.85-21.82,20.63-16.39,11.17,.59-1.04-1.51-3.74,1.05-8.08,3.33-5.63,7.78-12.16,11.68-15.03,3.28-2.42,6.66-3.29,11.63-3.33,7.83-.08,14.86,4.93,19.25,8.86,4.39,3.93,9.53,16.04,3.19,23.83Z" style="fill: rgb(38, 50, 56); transform-origin: 200.652px 173.725px 0px;" id="elws3rwtng3d" class="animable"></path><path d="M177.53,184.02c1.1-1.64,.64-3.91-1.05-4.91-2.06-1.22-5-1.7-7.79,2.38-4.93,7.23,3.34,10.69,3.5,10.49,.1-.13,3.31-4.91,5.34-7.96Z" style="fill: rgb(174, 116, 97); transform-origin: 172.625px 185.117px 0px;" id="elgk9qp3tw296" class="animable"></path><path d="M172.47,188.19s-.19,0-.47-.05c-.27-.05-.67-.22-.95-.62-.57-.8-.39-2.45,.47-3.78,.43-.67,1-1.2,1.58-1.56,.58-.38,1.18-.51,1.61-.32,.44,.17,.56,.59,.51,.85-.04,.27-.19,.38-.16,.42,0,.03,.24-.02,.38-.35,.07-.16,.1-.39,.02-.65-.08-.26-.28-.51-.57-.66-.58-.34-1.44-.17-2.08,.22-.68,.38-1.33,.96-1.81,1.72-.95,1.49-1.13,3.36-.29,4.38,.42,.48,.95,.62,1.28,.6,.35-.03,.49-.16,.48-.19Z" style="fill: rgb(111, 68, 57); transform-origin: 172.84px 184.84px 0px;" id="el0jc6ihv6hbt6" class="animable"></path></g><path d="M187.66,170.44c.46,1.3,.96,2.65,1.98,3.57,1.03,.92,2.75,1.2,3.74,.25,.44-.43,.74-1.09,1.34-1.23,.72-.17,1.32,.49,1.87,.98,1.9,1.72,5.95,1.2,7.93-.42-.05,1.17,.93,2.24,2.09,2.31,1.17,.07,1.67-.01,2.81-.27,1.14-.26,2.47-.26,3.31,.56,.47,.46,.73,1.12,1.29,1.46,.99,.6,2.23-.16,3.05-.98,.81-.82,1.71-1.81,2.86-1.74,1.07,.07,1.81,1.03,2.58,1.77,.76,.75,2.01,1.35,2.84,.68,.43-.35,.58-.95,.62-1.51,.16-2.53-1.67-5.06-4.14-5.68,1.01-2.84,.16-6.25-2.08-8.27-2.23-2.02-5.71-2.54-8.44-1.25-.5-2.45-2.26-4.6-4.55-5.58-2.29-.99-5.06-.78-7.18,.53-1.39-1.71-3.83-2.47-5.95-1.86-2.11,.61-3.78,2.56-4.04,4.74-1.8-.2-3.81,.27-4.9,1.71-1.09,1.44-.73,3.94,.96,4.59-1.4,.72-2.07,2.61-1.43,4.05,.64,1.44,2.48,2.22,3.96,1.66" style="fill: rgb(38, 50, 56); transform-origin: 204.978px 165.708px 0px;" id="elzfbt6qo9nu9" class="animable"></path><path d="M220.84,172.65s-.03,.05-.1,.13c-.07,.08-.17,.2-.32,.34-.3,.28-.79,.67-1.51,.99-.72,.31-1.67,.58-2.79,.53-1.11-.03-2.4-.39-3.5-1.29l.23-.07c-.22,.76-.81,1.45-1.57,1.85-.75,.42-1.6,.66-2.48,.85-.43,.08-.87,.24-1.38,.23-.5,0-.98-.16-1.42-.4-.87-.48-1.59-1.38-1.68-2.48l.32,.12c-1.21,1.27-3.03,2.1-4.92,2.03-1.03,0-2.07-.32-2.88-.93-.81-.61-1.4-1.4-1.92-2.17l.25,.05c-1.02,.6-2.15,.92-3.26,.96-1.1,.04-2.26-.31-2.95-1.13-1.41-1.57-1.5-3.77-.77-5.23l.11,.19c-1.16-.15-2.08-.76-2.69-1.42-.63-.66-.96-1.39-1.14-1.99-.18-.61-.18-1.11-.16-1.44,.04-.33,.08-.5,.09-.5,.06,0-.16,.71,.21,1.89,.19,.58,.54,1.27,1.15,1.89,.6,.62,1.49,1.17,2.57,1.3l.19,.02-.08,.17c-.67,1.38-.55,3.45,.78,4.89,.63,.73,1.66,1.04,2.7,1,1.04-.04,2.13-.35,3.08-.92l.15-.09,.1,.14c.52,.76,1.09,1.52,1.84,2.07,.74,.57,1.68,.85,2.66,.86,1.79,.06,3.5-.7,4.65-1.9l.29-.3,.03,.42c.07,.93,.7,1.75,1.48,2.19,.39,.22,.82,.36,1.26,.36,.42,.01,.86-.13,1.3-.22,.87-.19,1.7-.41,2.4-.8,.71-.37,1.23-.97,1.44-1.65l.07-.21,.17,.14c1.02,.86,2.25,1.22,3.32,1.28,1.08,.07,2.01-.16,2.71-.44,1.42-.6,1.95-1.36,1.99-1.31Z" style="fill: rgb(69, 90, 100); transform-origin: 202.581px 169.04px 0px;" id="el7gdlltwhmak" class="animable"></path></g></g><path d="M194.26,209.29c.05-.33-2.14-.53-3.52-2.54-1.39-2.01-.93-4.32-1.24-4.37-.13-.04-.47,.48-.59,1.46-.12,.96,.06,2.4,.91,3.64,.85,1.23,2.08,1.84,2.97,1.99,.91,.17,1.47-.03,1.47-.18Z" style="fill: rgb(38, 50, 56); transform-origin: 191.569px 205.956px 0px;" id="elbofipe39ne" class="animable"></path></g><g id="elo8f4ocx001"><path d="M132.3,258.29s-5.85,49.67,6.1,57.32c8.9,5.69,9.03,5.24,9.03,5.24l9.9-36.35-20.98-40.1s-3.79,2.4-4.04,13.89Z" style="opacity: 0.3; transform-origin: 144.099px 282.629px 0px;" class="animable" id="elozr09vwhtkb"></path></g><g id="el3qzu1sglhyh" style="transform-origin: 251.87px 444.075px 0px;" class="animable"><path d="M247.42,419.83l4.56,27.96s29.53,4.86,30.87,9.95l-53.09,10.58-8.87-43.27,26.53-5.21Z" style="fill: rgb(38, 50, 56); transform-origin: 251.87px 444.075px 0px;" id="elqcakd2ahnyo" class="animable"></path><path d="M235.1,448.72c-.97,.49-1.45,1.8-1,2.81,.45,1.01,1.77,1.52,2.74,1.04,.98-.47,1.6-2.03,1.04-2.98-.56-.95-2.13-1.46-2.97-.77" style="fill: rgb(224, 224, 224); transform-origin: 236.011px 450.627px 0px;" id="elzbi9f1oaaw" class="animable"></path><path d="M229.76,468.31l-.73-4.4,51.17-8.5s2.57,.57,2.64,2.32l-53.09,10.58Z" style="fill: rgb(69, 90, 100); transform-origin: 255.935px 461.86px 0px;" id="el5ai28tr7muu" class="animable"></path><path d="M252.79,447.34c.04,.27-1.23,.64-2.33,1.74-1.14,1.07-1.56,2.34-1.82,2.28-.25,0-.18-1.65,1.19-2.96,1.35-1.32,2.98-1.32,2.97-1.07Z" style="fill: rgb(255, 255, 255); transform-origin: 250.663px 449.282px 0px;" id="el93rii40n9li" class="animable"></path><path d="M258.82,448.57c.11,.24-.92,.91-1.58,2.2-.7,1.27-.68,2.52-.94,2.56-.24,.09-.72-1.42,.13-3,.83-1.59,2.34-2.01,2.39-1.76Z" style="fill: rgb(255, 255, 255); transform-origin: 257.387px 450.918px 0px;" id="elp6br5kuj4x" class="animable"></path><path d="M263.33,454.7c-.22,.1-.85-1.14-.47-2.71,.37-1.58,1.48-2.39,1.63-2.19,.19,.19-.44,1.12-.73,2.41-.32,1.29-.17,2.41-.43,2.49Z" style="fill: rgb(255, 255, 255); transform-origin: 263.633px 452.238px 0px;" id="elglu5eihr00q" class="animable"></path><path d="M251.05,441.08c-.06,.26-1.32,.14-2.77,.53-1.45,.36-2.49,1.09-2.67,.89-.19-.16,.73-1.36,2.44-1.8,1.7-.45,3.09,.14,3,.38Z" style="fill: rgb(255, 255, 255); transform-origin: 248.32px 441.535px 0px;" id="el0xu58a9lz9ed" class="animable"></path></g><g id="elyitx1hlbm8" style="transform-origin: 129.471px 263.558px 0px;" class="animable"><g id="el7suy9ydg8w" style="transform-origin: 163.642px 279.74px 0px;" class="animable"><path d="M182.34,235.89c0,.42,.7,9.55-.56,11.24-1.26,1.69-2.95,1.4-2.95,1.4l-3.08-.64-.76-9.57,7.35-2.43Z" style="fill: rgb(69, 90, 100); transform-origin: 178.762px 242.219px 0px;" id="elyy4ngnhxq4" class="animable"></path><path d="M178.76,245.43s-1.1,14.85-1.92,20.59c-.82,5.74-16.04,54.49-17.69,57.57l-6.82-.34-7.58-.78,30.24-77.03h3.77Z" style="fill: rgb(69, 90, 100); transform-origin: 161.755px 284.51px 0px;" id="el3bxurw4fmi4" class="animable"></path><path d="M182.21,245.95s.11,.5-.27,1.18c-.36,.69-1.29,1.39-2.44,1.6-1.15,.21-2.18,.01-2.88-.17-.71-.19-1.12-.38-1.1-.45,.02-.07,.46,0,1.17,.09,.7,.09,1.69,.2,2.71,.02,1.03-.19,1.84-.73,2.23-1.28,.41-.54,.49-1,.58-.98Z" style="fill: rgb(38, 50, 56); transform-origin: 178.872px 247.385px 0px;" id="elw7kjhgszfwo" class="animable"></path></g><path d="M152.59,207.84c-3.07,1.02-10.04,.24-28.55,14.59-18.51,14.35-46.22,70.54-48.36,90.77,0,0,5.18,14.04,20.91,10.8,15.74-3.24,21.75-10.18,36.56-6.02s12.96,6.47,12.96,6.47c0,0,23.14-63.85,28.69-73.57,5.55-9.72-11.06-46.74-22.21-43.04Z" style="fill: rgb(38, 50, 56); transform-origin: 125.792px 266.033px 0px;" id="el12plsx0ogw2a" class="animable"></path><path d="M134.56,304.48s-.16,.03-.47,.05c-.37,0-.82,.02-1.36,.03-1.18,.01-2.88,.04-4.99,.1-4.21,.11-10.02,.41-16.4,1.11-6.38,.71-12.12,1.67-16.25,2.48-2.07,.4-3.74,.74-4.89,.99l-1.33,.26c-.31,.05-.47,.08-.47,.06,0-.02,.15-.07,.45-.16,.36-.1,.79-.22,1.31-.36,1.14-.31,2.8-.7,4.86-1.15,4.12-.9,9.87-1.93,16.27-2.64,6.4-.7,12.23-.94,16.45-.96,2.11-.01,3.82,.02,4.99,.07,.54,.03,.99,.05,1.36,.07,.31,.02,.47,.04,.47,.06Z" style="fill: rgb(69, 90, 100); transform-origin: 111.48px 306.927px 0px;" id="elprsow277xz" class="animable"></path><path d="M154.08,206.92l8.81-4.29s11.75,14.09,14.15,19.8c2.2,5.22,6.76,12.16,6.17,13.02-.59,.86-7.31,6.78-7.31,6.78,0,0-6.53-14.27-9.17-18.74-2.64-4.47-11.58-15.95-12.66-16.56Z" style="fill: #5F210B; transform-origin: 168.666px 222.43px 0px;" id="el0s5ou7mo96h" class="animable"></path><path d="M124.05,300.43s-.16,.05-.47,.09c-.37,.04-.81,.1-1.35,.16-1.17,.13-2.87,.28-4.98,.45-2.1,.16-4.61,.33-7.4,.46-1.4,.06-2.86,.12-4.37,.18-.76,.02-1.53,.05-2.31,.07-.4,0-.77,.03-1.2,.02-.41-.03-.92-.05-1.29-.51-.16-.22-.22-.52-.14-.79,.08-.27,.25-.46,.42-.61,.35-.29,.75-.47,1.15-.58,.76-.22,1.5-.42,2.24-.61,1.48-.38,2.91-.69,4.29-.95,2.75-.52,5.25-.83,7.36-1,2.11-.17,3.82-.21,5-.21,.59,0,1.05,.02,1.36,.03,.31,.01,.47,.03,.47,.05,0,.04-.65,.07-1.83,.12-1.18,.06-2.88,.15-4.97,.37-2.09,.22-4.58,.56-7.3,1.1-1.36,.27-2.79,.6-4.25,.98-.73,.19-1.47,.4-2.22,.61-.35,.1-.69,.25-.95,.47-.27,.23-.35,.49-.19,.71,.14,.21,.52,.29,.88,.3,.39,0,.78-.01,1.17-.02,.78-.02,1.55-.04,2.31-.06,1.51-.05,2.97-.1,4.37-.15,2.76-.13,5.26-.25,7.4-.35,2.04-.12,3.73-.21,4.99-.28,1.18-.06,1.83-.09,1.83-.05Z" style="fill: rgb(69, 90, 100); transform-origin: 112.287px 299.231px 0px;" id="elskcg3ogprvf" class="animable"></path></g><g id="elwkm9r41w9kl" style="transform-origin: 191.956px 267.671px 0px;" class="animable"><path d="M256.07,289.23c-.2-.31-7.18-6.82-8.49-7.5-1.31-.68-6-2.07-7.93-3.1-1.93-1.03-2.37-2.05-3.23-2.37-.86-.32-15.78-2.42-18.53-2.7-2.75-.28-8.62,1.92-9.36,2s2.04,11.25,2.29,11.22c.24-.03,5.14-1.3,5.47-1.34,.33-.04,3.01,1.16,5.12,1.59s8.01,.78,8.01,.78c0,0,11.3,8.35,13.03,8.33,1.73-.02,2.78-1.79,1.28-2.7-1.5-.91-5.7-5.41-5.96-5.54-.26-.14-1.86-1.94-1.86-1.94,0,0,.92-.68,2.2-.24,1.29,.44,4.65,2.55,5.48,3.37,.83,.82,4.94,5.98,7.23,5.82,2.29-.17,2.65-.7,2.02-1.95-.63-1.25-6.49-7.3-6.49-7.3,0,0,4.85,5.17,7.17,5.25s2.54-1.68,2.54-1.68Z" style="fill: rgb(174, 116, 97); transform-origin: 232.238px 284.838px 0px;" id="elf9l9pisyl84" class="animable"></path><path d="M211.26,271.16l4.13,15.85-8.93,4.78s-10.76,8.58-15.9,11.79c-5.13,3.21-22.97,14.02-33.24,13.06s-15.91-4.14-19.12-14.73c-3.21-10.59-5.78-41.4-5.78-41.4-7.06-4.17-3.85-13.48-3.85-13.48,.72-4.47,7.38-26.32,23.11-28.24,15.73-1.93,16.37,15.4,15.4,26.96-.96,11.55-.64,31.45,0,35.3s29.88-8.54,34.34-7.98l9.83-1.92Z" style="fill: #5F210B; transform-origin: 171.616px 267.671px 0px;" id="el1dqcrvhyfes" class="animable"></path><path d="M134.02,239.71c.08,.02-.16,1.21-.48,3.14-.32,1.93-.69,4.61-.9,7.58-.21,2.98-.21,5.68-.16,7.64,.05,1.96,.12,3.17,.04,3.18-.06,0-.27-1.19-.41-3.16-.15-1.96-.2-4.69,0-7.69,.21-3,.65-5.69,1.06-7.62,.42-1.92,.78-3.09,.84-3.07Z" style="fill: rgb(38, 50, 56); transform-origin: 133.007px 250.48px 0px;" id="elt8qz9i478qm" class="animable"></path><path d="M205.87,288.69c-.14,.04-1.25-3.42-2.47-7.73-1.23-4.31-2.11-7.84-1.97-7.88,.14-.04,1.25,3.42,2.47,7.73,1.23,4.31,2.11,7.84,1.97,7.88Z" style="fill: rgb(38, 50, 56); transform-origin: 203.65px 280.885px 0px;" id="el91kwetzn61n" class="animable"></path><path d="M168.42,283.27s-.25,.46-.79,1.24c-.54,.77-1.35,1.87-2.42,3.19-1.06,1.31-2.37,2.84-3.91,4.47-.77,.81-1.59,1.65-2.46,2.49-.44,.42-.89,.84-1.35,1.27-.23,.21-.47,.44-.76,.63-.29,.19-.66,.36-1.09,.29-.89-.18-1.18-1.14-1.03-1.81,.14-.7,.5-1.22,.79-1.76,.61-1.07,1.29-2.04,1.98-2.92,1.39-1.77,2.84-3.18,4.09-4.32,1.25-1.14,2.3-2.01,3.04-2.6,.73-.59,1.15-.9,1.18-.88,.02,.03-.35,.39-1.05,1.03-.69,.64-1.71,1.55-2.92,2.72-1.2,1.17-2.62,2.59-3.96,4.35-.67,.88-1.33,1.83-1.92,2.88-.28,.52-.62,1.06-.72,1.6-.12,.51,.15,1.13,.61,1.2,.47,.07,.97-.37,1.41-.79,.46-.43,.9-.85,1.35-1.26,.87-.84,1.7-1.66,2.47-2.46,1.55-1.6,2.88-3.09,3.97-4.37,1.09-1.28,1.95-2.34,2.54-3.07,.59-.73,.92-1.14,.95-1.11Z" style="fill: rgb(38, 50, 56); transform-origin: 161.496px 289.713px 0px;" id="elsb8ejv8h6ba" class="animable"></path></g><g id="elydhkv9cikv" style="transform-origin: 165.405px 378.23px 0px;" class="animable"><path d="M163.09,416.48c.59-.3,22.52-43.12,22.52-43.12l25.43-7.2,3.55,37.59-19.34,34.01-32.16-21.28Z" style="fill: rgb(38, 50, 56); transform-origin: 188.84px 401.96px 0px;" id="elq3efa8fiokk" class="animable"></path><g id="els2fjbdlb2rc"><path d="M180.49,383.18c.59-.3,5.12-9.81,5.12-9.81l25.43-7.2,3.55,37.59-8.53,14.99-8.94-38.73-16.64,3.15Z" style="opacity: 0.3; transform-origin: 197.535px 392.46px 0px;" class="animable" id="el95fssmebpkj"></path></g><path d="M76.95,323.89c-1.39,23.54,15.63,44.14,39,47.25,14.23,1.9,28.94,3.59,34.41,3.31,11.84-.59,51.5-1.48,51.5-1.48l4.14-1.46-.84,2.15s9.12,65.31,12.67,69.75c3.55,4.44,36.11-6.51,36.11-6.51,0,0-11.84-66.89-13.02-74.28-1.18-7.4-2.37-21.31-5.03-25.45-2.66-4.14-18.94-10.65-29-10.95-10.06-.3-59.47-3.49-59.47-3.49l-20.9-9.54h-48.66s-.54,4.39-.91,10.69Z" style="fill: rgb(38, 50, 56); transform-origin: 165.405px 378.83px 0px;" id="elqi67rp930kn" class="animable"></path><g id="elrd3fxn5ttrp"><path d="M213.28,338.9v4.93l25.06,1.24s-.87-5.12-2.45-7.9c-1.86-3.26-22.61,1.73-22.61,1.73Z" style="opacity: 0.3; transform-origin: 225.81px 340.567px 0px;" class="animable" id="elh0a3r4osjij"></path></g><g id="elwfuvrur9i5"><path d="M76.87,321.54s5.89,9.45,19.21,10.12c5.4,.27,13.42-7.34,22.76-9.11,13.7-2.61,28.59,.19,28.59,.19l-4.57-10.75s-65.82,3.15-65.26,3.69c.56,.54-.72,5.87-.72,5.87Z" style="opacity: 0.3; transform-origin: 112.15px 321.829px 0px;" class="animable" id="elyd0n7w19qi"></path></g><path d="M216.35,439.3s-.03-.07-.07-.22c-.04-.18-.09-.4-.15-.66-.13-.63-.31-1.48-.53-2.56-.44-2.28-1.07-5.49-1.84-9.44-.76-3.99-1.7-8.74-2.64-14.02-.9-5.3-1.88-11.11-2.92-17.22-1.3-7.8-2.52-15.13-3.57-21.45v-.08l.02-.07c.4-.74,.79-1.46,1.17-2.17l.28,.3c-.95,.42-1.86,.82-2.74,1.21l-.04,.02h-.04c-5.36,.15-9.76,.28-12.88,.37-1.5,.03-2.68,.05-3.54,.07-.38,0-.68,0-.93,0-.21,0-.32,0-.32-.02,0-.01,.11-.02,.32-.04,.24-.02,.55-.04,.93-.06,.86-.04,2.04-.1,3.54-.18,3.11-.13,7.51-.32,12.87-.55l-.08,.02c.88-.4,1.79-.81,2.73-1.23l.58-.26-.3,.57c-.37,.71-.76,1.43-1.15,2.17l.02-.14c1.07,6.32,2.32,13.64,3.64,21.44,1.02,6.11,1.99,11.93,2.88,17.23,.95,5.27,1.81,10.02,2.53,14.03,.7,3.96,1.28,7.19,1.68,9.47,.18,1.09,.33,1.95,.43,2.58,.04,.27,.07,.49,.1,.68,.02,.15,.03,.23,.02,.23Z" style="fill: rgb(69, 90, 100); transform-origin: 200.982px 405.19px 0px;" id="elfcxexcgrsdu" class="animable"></path></g><path d="M253.95,436.9s-.39,.22-1.12,.54c-.73,.32-1.81,.74-3.14,1.24-2.67,1-6.43,2.24-10.66,3.29-4.23,1.05-8.13,1.71-10.97,2.06-1.42,.18-2.57,.29-3.36,.35-.8,.06-1.24,.07-1.24,.04,0-.04,.43-.12,1.22-.24,.89-.14,2.01-.31,3.33-.51,2.81-.45,6.68-1.16,10.89-2.2,4.21-1.05,7.96-2.23,10.66-3.13,1.27-.43,2.34-.79,3.19-1.08,.75-.26,1.18-.38,1.19-.35Z" style="fill: rgb(69, 90, 100); transform-origin: 238.705px 440.668px 0px;" id="el8mz6gqm1o4x" class="animable"></path><g id="elc2nvzrw4ppq" style="transform-origin: 108.21px 416.37px 0px;" class="animable"><rect x="71.5" y="374.48" width="75.92" height="92.84" style="fill: rgb(69, 90, 100); transform-origin: 109.46px 420.9px 0px;" id="ell3wmnkwl029" class="animable"></rect><g id="el75s4m3uayd7"><rect x="71.5" y="382.38" width="75.92" height="5.57" style="opacity: 0.3; transform-origin: 109.46px 385.165px 0px;" class="animable" id="elarbwhw8z2jf"></rect></g><rect x="61.28" y="365.42" width="93.86" height="18.12" rx="9.06" ry="9.06" style="fill: #5F210B; transform-origin: 108.21px 374.48px 0px;" id="el2az3ckiukd2" class="animable"></rect></g></g><g id="freepik--Piano--inject-45" style="transform-origin: 432.961px 272.528px 0px;" class="animable"><g id="elykoz2ybd06h" style="transform-origin: 432.961px 272.528px 0px;" class="animable"><path d="M255.06,338.83s.97,11.74,22.61,11c21.64-.73,30.81,7.34,31.17,21.27h11v-32.27h-64.78Z" style="fill: rgb(38, 50, 56); transform-origin: 287.45px 354.965px 0px;" id="el7hj0a1t5m7a" class="animable"></path><path d="M381.45,338.83s-.97,11.74-22.61,11c-21.64-.73-30.81,7.34-31.17,21.27h-11v-32.27h64.78Z" style="fill: rgb(38, 50, 56); transform-origin: 349.06px 354.965px 0px;" id="el51ggk8cvavp" class="animable"></path><rect x="310.95" y="369.6" width="14.62" height="98.26" style="fill: rgb(38, 50, 56); transform-origin: 318.26px 418.73px 0px;" id="elfhfql4tosz" class="animable"></rect><path d="M512.59,338.83s.97,11.74,22.61,11,30.81,7.34,31.17,21.27h11v-32.27h-64.78Z" style="fill: rgb(38, 50, 56); transform-origin: 544.98px 354.965px 0px;" id="elp2e8y6etj6d" class="animable"></path><path d="M638.97,338.83s-.97,11.74-22.61,11c-21.64-.73-30.81,7.34-31.17,21.27h-11v-32.27h64.78Z" style="fill: rgb(38, 50, 56); transform-origin: 606.58px 354.965px 0px;" id="elesmyc4zt3pb" class="animable"></path><rect x="568.14" y="368.17" width="15.4" height="99.62" style="fill: rgb(38, 50, 56); transform-origin: 575.84px 417.98px 0px;" id="el66slc4o336b" class="animable"></rect><rect x="209.78" y="323.7" width="446.16" height="15.13" style="fill: rgb(38, 50, 56); transform-origin: 432.86px 331.265px 0px;" id="el3hxjqzjocad" class="animable"></rect><path d="M646.77,181.32c-3.19-4.46-13.8-13.43-23.81-16.28-38.15-10.86-111.98-16.51-124.76-21.95-14.06-5.99-14.1-10.46-23.33-30.38-23.83-51.39-109.01-31.88-109.01-31.88,0,0,0,153.21-2.79,152.49h292.71s4.15-33.61-9-52.02Z" style="fill: rgb(38, 50, 56); transform-origin: 509.736px 155.259px 0px;" id="elvvszso5aj5b" class="animable"></path><path d="M650.23,199.77c-.08-.32-.32-1.25-.83-3.27-.66-2.1-1.67-5.22-3.74-8.87-2.05-3.63-5.14-7.83-9.76-11.6-2.31-1.87-4.96-3.64-7.99-5.13-3.01-1.53-6.42-2.61-10.07-3.45-14.58-3.55-32.28-6.18-51.95-8.68-9.84-1.25-20.19-2.44-30.91-3.71-5.36-.64-10.82-1.29-16.35-2.02-5.53-.74-11.14-1.51-16.77-2.64-2.79-.58-5.64-1.25-8.19-2.53-2.58-1.18-5.1-2.5-7.31-4.26-2.22-1.74-4.02-3.96-5.44-6.32-1.43-2.37-2.58-4.85-3.72-7.3-1.11-2.46-2.2-4.9-3.29-7.32-1.09-2.41-2.15-4.82-3.39-7.09l-.89-1.72c-.28-.58-.68-1.09-1.01-1.64-.71-1.07-1.36-2.16-2.1-3.19-.78-.99-1.56-1.98-2.33-2.96-.37-.51-.81-.95-1.24-1.4l-1.28-1.35c-3.46-3.51-7.24-6.57-11.31-8.9-.97-.65-2.03-1.15-3.05-1.69-1.03-.53-2.02-1.1-3.08-1.52-1.04-.46-2.07-.91-3.1-1.36-1.05-.38-2.09-.77-3.12-1.14-4.15-1.45-8.27-2.55-12.29-3.3-4.01-.82-7.91-1.27-11.64-1.64-7.47-.63-14.27-.59-20.21-.3-5.95,.3-11.05,.87-15.21,1.44-4.16,.57-7.36,1.16-9.53,1.58-1.07,.22-1.89,.39-2.46,.5-.55,.12-.84,.17-.84,.17,0,0,.28-.09,.83-.22,.55-.13,1.37-.32,2.45-.55,2.16-.46,5.37-1.07,9.52-1.68,4.15-.6,9.26-1.21,15.22-1.53,5.96-.32,12.77-.39,20.26,.22,3.74,.36,7.66,.8,11.68,1.61,4.04,.74,8.18,1.84,12.36,3.28,1.04,.38,2.09,.76,3.14,1.15,1.03,.45,2.07,.9,3.12,1.36,1.06,.43,2.07,1,3.1,1.53,1.03,.55,2.09,1.05,3.07,1.7,4.1,2.34,7.92,5.42,11.42,8.96l1.29,1.36c.43,.45,.88,.9,1.25,1.41,.78,.99,1.57,1.99,2.36,2.99,.75,1.03,1.41,2.14,2.12,3.21,.34,.55,.74,1.07,1.02,1.65l.9,1.73c1.26,2.29,2.32,4.69,3.41,7.11,1.09,2.42,2.19,4.86,3.29,7.32,1.13,2.45,2.28,4.91,3.69,7.25,1.4,2.34,3.15,4.48,5.32,6.19,2.16,1.72,4.65,3.02,7.21,4.19,2.53,1.26,5.28,1.9,8.08,2.49,5.6,1.13,11.21,1.89,16.73,2.64,5.53,.73,10.98,1.39,16.34,2.02,10.72,1.27,21.07,2.48,30.91,3.74,19.68,2.53,37.39,5.2,51.98,8.8,3.65,.86,7.1,1.97,10.13,3.51,3.04,1.51,5.71,3.31,8.02,5.2,4.63,3.82,7.71,8.06,9.75,11.73,2.05,3.68,3.03,6.83,3.66,8.94,.25,1.07,.44,1.89,.57,2.45,.13,.55,.16,.84,.16,.84Z" style="fill: rgb(69, 90, 100); transform-origin: 508.03px 141.354px 0px;" id="el6e3xw9g9jgh" class="animable"></path><path d="M363.84,338.83c0,1.33-45.58,119.78-45.58,119.78l6.78,3.22,45.91-121.23-7.11-1.78Z" style="fill: rgb(38, 50, 56); transform-origin: 344.605px 400.325px 0px;" id="eldtb9alafp" class="animable"></path><polygon points="317.89 454.88 269.28 461.47 269.72 467.79 289.83 467.86 290.35 463.72 319.01 461.47 317.89 454.88" style="fill: rgb(38, 50, 56); transform-origin: 294.145px 461.37px 0px;" id="el0n4yhf8wctvm" class="animable"></polygon><g id="elsxewbzfldqq"><polygon points="403.27 120.77 401.09 120.77 405.98 234.06 426.62 234.06 403.27 120.77" style="opacity: 0.3; transform-origin: 413.855px 177.415px 0px;" class="animable" id="elr76gke7cj7"></polygon></g><path d="M395.66,234.06c1.04-2.64,0-113.09,0-113.09l7.62-.2,7.62,113.29h-15.23Z" style="fill: rgb(69, 90, 100); transform-origin: 403.28px 177.415px 0px;" id="elgtr4wrz2vam" class="animable"></path><path d="M210.09,325.63s-.31-22.34-.31-29.66,3.02-14.19,13.59-13.8c10.57,.39,27.78,4.64,38.27-.02,10.49-4.66,10.29-8.62,10.49-17.91,.16-7.61,.74-30.9,.74-30.9h382.9v93.39l-445.68-1.1Z" style="fill: rgb(38, 50, 56); transform-origin: 432.775px 280.035px 0px;" id="el03ox2rvsukbx" class="animable"></path><path d="M328.01,371c0,.14-4.33,.26-9.68,.26s-9.68-.12-9.68-.26,4.33-.26,9.68-.26,9.68,.12,9.68,.26Z" style="fill: rgb(69, 90, 100); transform-origin: 318.33px 371px 0px;" id="el7s1jlzyuw99" class="animable"></path><path d="M585.64,371.1c0,.14-4.39,.26-9.8,.26s-9.8-.12-9.8-.26,4.39-.26,9.8-.26,9.8,.12,9.8,.26Z" style="fill: rgb(69, 90, 100); transform-origin: 575.84px 371.1px 0px;" id="elvlpu2cbi99" class="animable"></path><g id="eltwb0ulifapm"><g style="opacity: 0.3; transform-origin: 318.455px 341.985px 0px;" class="animable" id="elc85925016sk"><path d="M255.59,338.9c41.77,7.51,84.07,8.68,125.73,.63l-125.73-.63Z" id="el3ls99bgb2gk" style="transform-origin: 318.455px 341.985px 0px;" class="animable"></path></g></g><g id="elm5gyst7gty"><g style="opacity: 0.3; transform-origin: 574.87px 341.758px 0px;" class="animable" id="elwxz6q71nuid"><path d="M512.68,338.96c41.77,7.51,82.71,7.89,124.38-.16l-124.38,.16Z" id="els904wtqdjoj" style="transform-origin: 574.87px 341.758px 0px;" class="animable"></path></g></g><g id="el3jkzwt86m5v"><polygon points="453.97 234.06 350.4 323.7 404.01 323.73 512.59 233.34 453.97 234.06" style="opacity: 0.3; transform-origin: 431.495px 278.535px 0px;" class="animable" id="el7ofpo4csnu9"></polygon></g><g id="elq5t73zwdey"><polygon points="523.12 234.06 419.31 323.77 431.92 323.77 540.13 233.34 523.12 234.06" style="opacity: 0.3; transform-origin: 479.72px 278.555px 0px;" class="animable" id="el1r271rozl6y"></polygon></g><path d="M655.77,338.83s-.78,.02-2.29,.03c-1.52,0-3.78,.01-6.74,.03-5.93,.01-14.66,.03-25.91,.05-22.51,.02-55.1,.05-95.4,.08-80.62,.02-192.11,.05-315.65,.08h-.26v-15.65h.26c123.57,.03,235.07,.06,315.67,.08,40.3,.03,72.88,.06,95.38,.08,11.25,.02,19.98,.04,25.9,.05,2.96,.01,5.21,.02,6.73,.03,1.52,0,2.29,.03,2.29,.03,0,0-.78,.02-2.29,.03-1.52,0-3.78,.01-6.73,.03-5.93,.01-14.66,.03-25.9,.05-22.51,.02-55.09,.05-95.38,.08-80.61,.02-192.1,.05-315.67,.08l.26-.26v15.13l-.26-.26c123.54,.03,235.03,.06,315.65,.08,40.3,.03,72.89,.06,95.4,.08,11.25,.02,19.98,.04,25.91,.05,2.96,.01,5.21,.02,6.74,.03,1.52,0,2.29,.03,2.29,.03Z" style="fill: rgb(69, 90, 100); transform-origin: 432.645px 331.275px 0px;" id="elqc7nqt8sxdd" class="animable"></path><path d="M655.77,233.34c0,.14-85.49,.26-190.92,.26s-190.94-.12-190.94-.26,85.47-.26,190.94-.26,190.92,.12,190.92,.26Z" style="fill: rgb(69, 90, 100); transform-origin: 464.84px 233.34px 0px;" id="el6uvkchzjp6t" class="animable"></path></g></g><defs>     <filter id="active" height="200%">         <feMorphology in="SourceAlpha" result="DILATED" operator="dilate" radius="2"></feMorphology>                <feFlood flood-color="#32DFEC" flood-opacity="1" result="PINK"></feFlood>        <feComposite in="PINK" in2="DILATED" operator="in" result="OUTLINE"></feComposite>        <feMerge>            <feMergeNode in="OUTLINE"></feMergeNode>            <feMergeNode in="SourceGraphic"></feMergeNode>        </feMerge>    </filter>    <filter id="hover" height="200%">        <feMorphology in="SourceAlpha" result="DILATED" operator="dilate" radius="2"></feMorphology>                <feFlood flood-color="#ff0000" flood-opacity="0.5" result="PINK"></feFlood>        <feComposite in="PINK" in2="DILATED" operator="in" result="OUTLINE"></feComposite>        <feMerge>            <feMergeNode in="OUTLINE"></feMergeNode>            <feMergeNode in="SourceGraphic"></feMergeNode>        </feMerge>            <feColorMatrix type="matrix" values="0   0   0   0   0                0   1   0   0   0                0   0   0   0   0                0   0   0   1   0 "></feColorMatrix>    </filter></defs></svg>