<svg class="animated" id="freepik_stories-jazz-piano" xmlns="http://www.w3.org/2000/svg" viewBox="0 0 750 500" version="1.1" xmlns:xlink="http://www.w3.org/1999/xlink" xmlns:svgjs="http://svgjs.com/svgjs"><style>svg#freepik_stories-jazz-piano:not(.animated) .animable {opacity: 0;}svg#freepik_stories-jazz-piano.animated #freepik--Piano--inject-65 {animation: 6s Infinite  linear wind;animation-delay: 0s;}svg#freepik_stories-jazz-piano.animated #freepik--musical-notes--inject-65 {animation: 3s Infinite  linear floating;animation-delay: 0s;}            @keyframes wind {                0% {                    transform: rotate( 0deg );                }                25% {                    transform: rotate( 1deg );                }                75% {                    transform: rotate( -1deg );                }            }                    @keyframes floating {                0% {                    opacity: 1;                    transform: translateY(0px);                }                50% {                    transform: translateY(-10px);                }                100% {                    opacity: 1;                    transform: translateY(0px);                }            }        </style><g id="freepik--background-complete--inject-65" style="transform-origin: 375px 222.32px 0px;" class="animable"><path d="M167.38,42.46c43.42-.67,91.7-.65,135.16,0-43.47.64-91.73.66-135.16,0Z" style="fill: rgb(235, 235, 235); transform-origin: 234.96px 42.4563px 0px;" id="elwm4a1ul1eml" class="animable"></path><path d="M152.07,60.77c44.75-.66,94.49-.65,139.27,0-44.79.65-94.51.66-139.27,0Z" style="fill: rgb(235, 235, 235); transform-origin: 221.705px 60.77px 0px;" id="elix2q2nlrl2i" class="animable"></path><path d="M181.37,42.46a81.83,81.83,0,0,1,0,18.31,81.24,81.24,0,0,1,0-18.31Z" style="fill: rgb(235, 235, 235); transform-origin: 181.368px 51.615px 0px;" id="elmszr6t3g8m" class="animable"></path><path d="M249.54,42.46a81.83,81.83,0,0,1,0,18.31,81.24,81.24,0,0,1,0-18.31Z" style="fill: rgb(235, 235, 235); transform-origin: 249.538px 51.615px 0px;" id="elr1gyfljldw" class="animable"></path><path d="M215.45,60.69a81.33,81.33,0,0,1,0,18.32,81.92,81.92,0,0,1,0-18.32Z" style="fill: rgb(235, 235, 235); transform-origin: 215.452px 69.85px 0px;" id="eli41t985bi8b" class="animable"></path><path d="M104.63,317.05c43.43-.66,91.71-.65,135.16,0-43.46.65-91.72.66-135.16,0Z" style="fill: rgb(235, 235, 235); transform-origin: 172.21px 317.05px 0px;" id="elbuknamoauno" class="animable"></path><path d="M72.22,335.36c44.75-.66,94.49-.64,139.27,0-44.79.65-94.51.67-139.27,0Z" style="fill: rgb(235, 235, 235); transform-origin: 141.855px 335.364px 0px;" id="ele1fumm508a" class="animable"></path><path d="M560.38,298.86c27.91-.66,58.79-.66,86.71,0-27.92.66-58.8.66-86.71,0Z" style="fill: rgb(235, 235, 235); transform-origin: 603.735px 298.86px 0px;" id="eldemd607omnr" class="animable"></path><path d="M591.06,317.05c27.92-.66,58.8-.66,86.72,0-27.92.66-58.8.66-86.72,0Z" style="fill: rgb(235, 235, 235); transform-origin: 634.42px 317.05px 0px;" id="elxijogxjcyl" class="animable"></path><path d="M139.57,317.05a81.83,81.83,0,0,1,0,18.31,81.24,81.24,0,0,1,0-18.31Z" style="fill: rgb(235, 235, 235); transform-origin: 139.568px 326.205px 0px;" id="elyppw7m7ygmr" class="animable"></path><path d="M207.77,317.05a81.83,81.83,0,0,1,0,18.31,81.83,81.83,0,0,1,0-18.31Z" style="fill: rgb(235, 235, 235); transform-origin: 207.77px 326.205px 0px;" id="elx8abk37y9r" class="animable"></path><path d="M602,317.05a81.24,81.24,0,0,1,0,18.31,81.83,81.83,0,0,1,0-18.31Z" style="fill: rgb(235, 235, 235); transform-origin: 602.002px 326.205px 0px;" id="elj67e7ogzv3g" class="animable"></path><path d="M670.17,317.05a81.24,81.24,0,0,1,0,18.31,81.83,81.83,0,0,1,0-18.31Z" style="fill: rgb(235, 235, 235); transform-origin: 670.172px 326.205px 0px;" id="elogop0xufy" class="animable"></path><path d="M105.45,335.29a81.24,81.24,0,0,1,0,18.31,81.83,81.83,0,0,1,0-18.31Z" style="fill: rgb(235, 235, 235); transform-origin: 105.452px 344.445px 0px;" id="elxvkra0ks7ub" class="animable"></path><path d="M173.77,335.29a81.83,81.83,0,0,1,0,18.31,81.24,81.24,0,0,1,0-18.31Z" style="fill: rgb(235, 235, 235); transform-origin: 173.768px 344.445px 0px;" id="elr85sm8npevp" class="animable"></path><path d="M636.39,298.35a81.92,81.92,0,0,1,0,18.32,81.33,81.33,0,0,1,0-18.32Z" style="fill: rgb(235, 235, 235); transform-origin: 636.388px 307.51px 0px;" id="eldguer9q7pmc" class="animable"></path><path d="M436.38,159.75c44.75-.66,94.49-.65,139.27,0-44.79.65-94.51.67-139.27,0Z" style="fill: rgb(235, 235, 235); transform-origin: 506.015px 159.752px 0px;" id="elfa65bk09ptl" class="animable"></path><path d="M484.6,178.07c30.07-.67,63.5-.65,93.59,0-30.09.65-63.52.66-93.59,0Z" style="fill: rgb(235, 235, 235); transform-origin: 531.395px 178.068px 0px;" id="eltw1i74yvwdj" class="animable"></path><path d="M533.85,141.44a81.24,81.24,0,0,1,0,18.31,81.83,81.83,0,0,1,0-18.31Z" style="fill: rgb(235, 235, 235); transform-origin: 533.852px 150.595px 0px;" id="elzz6btfd8n1h" class="animable"></path><path d="M499.77,159.75a81.92,81.92,0,0,1,0,18.32,81.33,81.33,0,0,1,0-18.32Z" style="fill: rgb(235, 235, 235); transform-origin: 499.768px 168.91px 0px;" id="elkrk51y757vp" class="animable"></path><path d="M567.94,159.75a81.92,81.92,0,0,1,0,18.32,81.33,81.33,0,0,1,0-18.32Z" style="fill: rgb(235, 235, 235); transform-origin: 567.938px 168.91px 0px;" id="elk3qc7pzbgz" class="animable"></path><path d="M484.16,426.46c44.75-.66,94.49-.65,139.27,0-44.79.65-94.51.67-139.27,0Z" style="fill: rgb(235, 235, 235); transform-origin: 553.795px 426.462px 0px;" id="elm0frjdz36s" class="animable"></path><path d="M484.6,408.15c30.07-.67,63.5-.65,93.59,0-30.09.64-63.52.66-93.59,0Z" style="fill: rgb(235, 235, 235); transform-origin: 531.395px 408.146px 0px;" id="elmbfa71qm0kk" class="animable"></path><path d="M533.85,444.78a81.92,81.92,0,0,1,0-18.32,81.33,81.33,0,0,1,0,18.32Z" style="fill: rgb(235, 235, 235); transform-origin: 533.852px 435.62px 0px;" id="elyfixasnbnpa" class="animable"></path><path d="M499.77,426.46a81.24,81.24,0,0,1,0-18.31,81.83,81.83,0,0,1,0,18.31Z" style="fill: rgb(235, 235, 235); transform-origin: 499.768px 417.305px 0px;" id="eldy2dulfiv3" class="animable"></path><path d="M567.94,426.46a81.24,81.24,0,0,1,0-18.31,81.83,81.83,0,0,1,0,18.31Z" style="fill: rgb(235, 235, 235); transform-origin: 567.938px 417.305px 0px;" id="elo3ck9iw0jar" class="animable"></path><path d="M89.35,231.08c19.26-.68,38.66-.68,57.93,0-19.27.67-38.67.67-57.93,0Z" style="fill: rgb(235, 235, 235); transform-origin: 118.315px 231.076px 0px;" id="elm2xrjh0bg8" class="animable"></path><path d="M75.8,249.39c30.07-.66,63.5-.65,93.59,0-30.09.65-63.51.67-93.59,0Z" style="fill: rgb(235, 235, 235); transform-origin: 122.595px 249.392px 0px;" id="elrgkyl27mcv8" class="animable"></path><path d="M105.48,212.76a81.33,81.33,0,0,1,0,18.32,81.92,81.92,0,0,1,0-18.32Z" style="fill: rgb(235, 235, 235); transform-origin: 105.482px 221.92px 0px;" id="ely310owxyn98" class="animable"></path><path d="M139.57,231.08a81.83,81.83,0,0,1,0,18.31,81.24,81.24,0,0,1,0-18.31Z" style="fill: rgb(235, 235, 235); transform-origin: 139.568px 240.235px 0px;" id="eltdd728xku69" class="animable"></path><path d="M552.49,0H371.42s36.21,43.33,93.43,43.33S552.49,0,552.49,0Z" style="fill: rgb(235, 235, 235); transform-origin: 461.955px 21.665px 0px;" id="elbdk46nx4m3l" class="animable"></path><g id="elwmgaoqsc1cj"><g style="opacity: 0.2; transform-origin: 460.655px 19.588px 0px;" class="animable"><path d="M381.49,2.58c23.11,17.16,50.35,31.57,79.57,33,14.58.57,29-3.25,42.23-9.2A146.8,146.8,0,0,0,539.82,2.58a140.34,140.34,0,0,1-36.21,24.48c-16.52,7.77-35.35,11.61-53.53,8.4-25.31-4.34-48.62-17.12-68.59-32.88Z" id="elxgdmsiqx9jj" style="transform-origin: 460.655px 19.588px 0px;" class="animable"></path><path d="M392.62,2.58a137.33,137.33,0,0,0,61.14,27.85c-2.53-.4-6-.76-8.41-1.32A112.21,112.21,0,0,1,392.62,2.58Z" id="el1k5bjj0319a" style="transform-origin: 423.19px 16.505px 0px;" class="animable"></path><path d="M531.29,2.58c-21.68,18-51.57,28.59-79.63,22.15a87.75,87.75,0,0,0,10.58,1.16c24.86,1.23,49.34-8.6,69-23.31Z" id="el7t5mue98m5y" style="transform-origin: 491.475px 14.6037px 0px;" class="animable"></path><path d="M408.85,2.58C419.89,12.22,434,18,448.39,20.2a94.49,94.49,0,0,0,29.07-.71A116.11,116.11,0,0,0,518.11,3.55a107.11,107.11,0,0,1-29.74,14.23A100.45,100.45,0,0,1,463,22c-19.54.6-39.77-5.9-54.13-19.38Z" id="elri5m6zofiul" style="transform-origin: 463.48px 12.309px 0px;" class="animable"></path></g></g><path d="M197.51,0H378.58s-36.21,43.33-93.43,43.33S197.51,0,197.51,0Z" style="fill: rgb(235, 235, 235); transform-origin: 288.045px 21.665px 0px;" id="el4zijtonglac" class="animable"></path><g id="el5tjv35jg5iu"><g style="opacity: 0.2; transform-origin: 289.345px 19.578px 0px;" class="animable"><path d="M368.51,2.58c-20,15.76-43.28,28.54-68.59,32.88-18.18,3.21-37-.63-53.53-8.4A140.34,140.34,0,0,1,210.18,2.58a146.8,146.8,0,0,0,36.53,23.78c13.22,6,27.65,9.77,42.23,9.2,29.22-1.41,56.45-15.82,79.57-33Z" id="el3rnvygu6wa3" style="transform-origin: 289.345px 19.578px 0px;" class="animable"></path><path d="M357.38,2.58a112.21,112.21,0,0,1-52.73,26.53c-2.44.56-5.91.93-8.41,1.32A137.33,137.33,0,0,0,357.38,2.58Z" id="elaugbf3xfwt" style="transform-origin: 326.81px 16.505px 0px;" class="animable"></path><path d="M218.71,2.58c19.71,14.71,44.19,24.54,69,23.31a87.75,87.75,0,0,0,10.58-1.16c-28.06,6.44-57.95-4.14-79.63-22.15Z" id="elh2b41v9l3ae" style="transform-origin: 258.475px 14.6042px 0px;" class="animable"></path><path d="M341.15,2.58C326.79,16.06,306.56,22.56,287,22a100.45,100.45,0,0,1-25.39-4.18A107.52,107.52,0,0,1,231.89,3.55a116.11,116.11,0,0,0,40.65,15.94,94.49,94.49,0,0,0,29.07.71c14.4-2.2,28.5-8,39.54-17.62Z" id="ellavnvtm6bw" style="transform-origin: 286.52px 12.3067px 0px;" class="animable"></path></g></g><path d="M220-.14H0S44,65.42,113.53,65.42,220-.14,220-.14Z" style="fill: rgb(219, 219, 219); transform-origin: 110px 32.64px 0px;" id="ellm7056xo3t" class="animable"></path><g id="elg5f8xbtayc9"><g style="opacity: 0.2; transform-origin: 108.43px 29.3766px 0px;" class="animable"><path d="M12.24,3.77C35.15,25.38,64.17,45.61,95.36,52.25c18.19,4,37.3.87,54.08-6.86,21.12-9.62,39.68-24.45,55.18-41.62A174.22,174.22,0,0,1,162.19,39.7c-16,9.48-34.35,16-53.12,15.22C72.5,53,37.71,28.64,12.24,3.77Z" id="elnmzh9kfzlrq" style="transform-origin: 108.43px 29.3766px 0px;" class="animable"></path><path d="M25.76,3.77c17.64,18,39.6,32.18,63.8,39.42,1.52.53,3.64,1.07,5.22,1.43l5.28,1.28A115.72,115.72,0,0,1,69,36.2,136.27,136.27,0,0,1,25.76,3.77Z" id="el4k8es9ngown" style="transform-origin: 62.91px 24.835px 0px;" class="animable"></path><path d="M194.27,3.77C169.89,29,132.83,47.11,97.51,37.28c1.15.23,3.82.74,4.91,1l5,.68c32.54,3.35,63.81-13.35,86.88-35.17Z" id="el77n58q1nsb9" style="transform-origin: 145.905px 21.885px 0px;" class="animable"></path><path d="M45.49,3.77A86.9,86.9,0,0,0,92.7,30.48c24.24,4.66,49.43-2.42,70.39-14.78A117.31,117.31,0,0,0,178.24,5.23a121.82,121.82,0,0,1-35.61,21.12c-2.07.77-4.47,1.51-6.58,2.25l-6.71,1.81-6.82,1.35-6.9.86-4.63.21c-24.73,1-49.54-10.26-65.5-29.06Z" id="eloh8dc58urns" style="transform-origin: 111.865px 18.3307px 0px;" class="animable"></path></g></g><path d="M750-.14H530s44,65.56,113.53,65.56S750-.14,750-.14Z" style="fill: rgb(219, 219, 219); transform-origin: 640px 32.64px 0px;" id="el4cmohmrbjxx" class="animable"></path><g id="elks4u056twmo"><g style="opacity: 0.2; transform-origin: 638.415px 29.3766px 0px;" class="animable"><path d="M542.22,3.77c22.91,21.61,51.94,41.84,83.12,48.48,18.19,4,37.3.87,54.09-6.86,21.11-9.62,39.67-24.45,55.18-41.62A174.45,174.45,0,0,1,692.17,39.7c-16,9.48-34.35,16-53.12,15.22-36.57-2-71.36-26.28-96.83-51.15Z" id="el61w0w5vumuf" style="transform-origin: 638.415px 29.3766px 0px;" class="animable"></path><path d="M555.74,3.77c17.64,18,39.6,32.18,63.8,39.42,1.52.53,3.64,1.07,5.22,1.43L630,45.9A115.72,115.72,0,0,1,599,36.2,136.27,136.27,0,0,1,555.74,3.77Z" id="elsbhybq3o" style="transform-origin: 592.87px 24.835px 0px;" class="animable"></path><path d="M724.25,3.77C699.87,29,662.81,47.11,627.49,37.28c1.15.23,3.82.74,4.92,1l5,.68c32.54,3.35,63.81-13.35,86.88-35.17Z" id="ellydr0q5o5jc" style="transform-origin: 675.89px 21.885px 0px;" class="animable"></path><path d="M575.47,3.77a86.9,86.9,0,0,0,47.21,26.71c24.24,4.66,49.43-2.42,70.39-14.78A117.31,117.31,0,0,0,708.22,5.23a121.69,121.69,0,0,1-35.61,21.12c-2.07.77-4.47,1.51-6.58,2.25l-6.71,1.81-6.82,1.35-6.9.86-4.63.21c-24.73,1-49.54-10.26-65.5-29.06Z" id="elaxo3bf0mhxe" style="transform-origin: 641.845px 18.3308px 0px;" class="animable"></path></g></g></g><g id="freepik--Floor--inject-65" style="transform-origin: 375px 476.53px 0px;" class="animable"><path d="M73.89,476.53c192.91-.61,409.31-.62,602.22,0-192.91.62-409.31.61-602.22,0Z" style="fill: rgb(38, 50, 56); transform-origin: 375px 476.53px 0px;" id="el7tml7klta4v" class="animable"></path></g><g id="freepik--Light--inject-65" style="transform-origin: 375px 250px 0px;" class="animable"><g id="elc4z0mjgpbkm"><circle cx="375" cy="250" r="183.92" style="fill: rgb(95, 33, 11); opacity: 0.2; transform-origin: 375px 250px 0px;" class="animable"></circle></g></g><g id="freepik--Character--inject-65" style="transform-origin: 235.34px 313.855px 0px;" class="animable"><path d="M148.05,329.21h40.12a17.49,17.49,0,0,1,17.49,17.49v6.82a0,0,0,0,1,0,0h-75.1a0,0,0,0,1,0,0V346.7A17.49,17.49,0,0,1,148.05,329.21Z" style="fill: rgb(95, 33, 11); transform-origin: 168.11px 341.365px 0px;" id="elucztr11sz0o" class="animable"></path><g id="el41o85yka6jr"><path d="M148.05,329.21h40.12a17.49,17.49,0,0,1,17.49,17.49v6.82a0,0,0,0,1,0,0h-75.1a0,0,0,0,1,0,0V346.7A17.49,17.49,0,0,1,148.05,329.21Z" style="opacity: 0.2; transform-origin: 168.11px 341.365px 0px;" class="animable"></path></g><rect x="127.03" y="353.52" width="82.16" height="5.3" style="fill: rgb(55, 71, 79); transform-origin: 168.11px 356.17px 0px;" id="elu64t2zy3ii7" class="animable"></rect><rect x="127.03" y="471.56" width="82.16" height="5.3" style="fill: rgb(38, 50, 56); transform-origin: 168.11px 474.21px 0px;" id="elvqht5xsdo7m" class="animable"></rect><rect x="137.94" y="370.25" width="60.35" height="7.21" style="fill: rgb(55, 71, 79); transform-origin: 168.115px 373.855px 0px;" id="els31mv0dc85q" class="animable"></rect><rect x="124.39" y="358.82" width="87.46" height="11.44" style="fill: rgb(38, 50, 56); transform-origin: 168.12px 364.54px 0px;" id="el3u3wxzk0oa9" class="animable"></rect><rect x="162.12" y="377.46" width="11.99" height="94.07" style="fill: rgb(38, 50, 56); transform-origin: 168.115px 424.495px 0px;" id="el599c2s3aodp" class="animable"></rect><path d="M258.91,474.2c-2.73.34-77.82-15.2-80.24-17.55-.3-.26,1-7.08,2.84-16.39l0-.18c1.17-5.9,21.48-53.93,21.48-53.93l48.73,12-20.65,44.62s9.29,6.29,17.27,12.3l0,0c4.93,3.69,9.18,7,10.1,8.09C260.87,466.06,261.63,473.88,258.91,474.2Z" style="fill: rgb(247, 169, 160); transform-origin: 219.63px 430.178px 0px;" id="elcvqm0rr79yt" class="animable"></path><path d="M258.9,474.19c-2.72.35-77.81-15.2-80.24-17.54-.29-.26,1-7.08,2.85-16.39l0-.17c.43-2.2,3.54-10.26,7.25-19.51,8,1.9,36.75,8.76,47.21,11.65l-4.89,10.58s9.28,6.3,17.27,12.3v0c4.93,3.68,9.19,7,10.1,8.09C260.87,466.07,261.64,473.88,258.9,474.19Z" style="fill: rgb(235, 235, 235); transform-origin: 219.628px 447.388px 0px;" id="el215qqf6tdzt" class="animable"></path><path d="M259.16,474.55c-2.81.32-78-15.42-80.44-17.83-.95-.91.35-12.74,4.07-25.33l48.43,10.21s25.14,18.71,27.58,21.65S262,474.22,259.16,474.55Z" style="fill: rgb(95, 33, 11); transform-origin: 219.701px 452.972px 0px;" id="elsa5r8y85vq" class="animable"></path><g id="elp4ozc6hyaw"><path d="M259.16,474.55c-2.81.32-78-15.42-80.44-17.83-.95-.91.35-12.74,4.07-25.33l48.43,10.21s25.14,18.71,27.58,21.65S262,474.22,259.16,474.55Z" style="fill: rgb(255, 255, 255); opacity: 0.5; transform-origin: 219.701px 452.972px 0px;" class="animable"></path></g><path d="M258.71,471.31c-12.53-2.94-63.35-13.66-76-15.62-.11,0-.12.05,0,.08,12.36,3.19,63.27,13.49,75.94,15.75C258.94,471.57,259,471.38,258.71,471.31Z" style="fill: rgb(38, 50, 56); transform-origin: 220.762px 463.609px 0px;" id="el1exl2u1zmsa" class="animable"></path><path d="M234.91,443.69c-5-1.13-11.25-.57-15.24,2.89-.16.14,0,.36.2.31a71.14,71.14,0,0,1,15-2.56A.32.32,0,0,0,234.91,443.69Z" style="fill: rgb(38, 50, 56); transform-origin: 227.408px 445.03px 0px;" id="elfk0fd28u41m" class="animable"></path><path d="M238.48,446c-5-1.13-11.24-.57-15.24,2.9-.16.13,0,.35.2.3a71.77,71.77,0,0,1,15-2.56A.32.32,0,0,0,238.48,446Z" style="fill: rgb(38, 50, 56); transform-origin: 230.978px 447.34px 0px;" id="el8gda17dzja9" class="animable"></path><path d="M242.06,448.35c-5-1.12-11.25-.57-15.25,2.9-.15.13,0,.35.21.31A71.15,71.15,0,0,1,242,449,.32.32,0,0,0,242.06,448.35Z" style="fill: rgb(38, 50, 56); transform-origin: 234.553px 449.696px 0px;" id="elvv2egklul3t" class="animable"></path><path d="M245.63,450.69c-5-1.13-11.24-.57-15.24,2.89-.16.14,0,.35.2.31a70.49,70.49,0,0,1,15-2.56A.32.32,0,0,0,245.63,450.69Z" style="fill: rgb(38, 50, 56); transform-origin: 238.128px 452.028px 0px;" id="elarj1raqpv3t" class="animable"></path><path d="M233.05,444l-51.73-12.21S224.75,336.18,221,331.15c-1.9-2.52-50.05-3.26-65.37-16.26C135.69,298,149,272.22,149,272.22l53.78-1.59s-.64,11.25,1.45,12.94c1.39,1.13,65.47,6.52,72.51,28.15C285.41,338.24,233.05,444,233.05,444Z" style="fill: rgb(38, 50, 56); transform-origin: 211.179px 357.315px 0px;" id="el7k9ugrzg0a3" class="animable"></path><path d="M230.16,326.69c-1.08-.93-2.7-1-4.06-1.27-7.76-1.29-15.52-2.61-23.29-3.91-7.26-1.21-14.57-2.3-21.8-3.7-6-1.15-12.07-2.71-17.25-6A25,25,0,0,1,153.18,298c-1.81-5.71-1.94-11.84-1.37-17.75.14-1.45.41-2.89.68-4.32,0-.1-.16-.14-.18,0-2,11-2.14,23.83,6.12,32.62,4,4.28,9.56,6.8,15.2,8.43,6.37,1.84,13,2.71,19.56,3.81l23.3,3.89c3.73.62,7.52,1.11,11.23,1.88a3.81,3.81,0,0,1,2,.9,2.88,2.88,0,0,1,.33,2.69c-.37,1.83-.87,3.64-1.39,5.44C224.44,350,194,418,193.13,419.56a.15.15,0,0,0,.26.13c7.13-12.7,29.72-64.9,34.43-78.6a86.31,86.31,0,0,0,3.05-10.66C231.14,329.13,231.3,327.66,230.16,326.69Z" style="fill: rgb(55, 71, 79); transform-origin: 191.119px 347.791px 0px;" id="eldjlsojemzbs" class="animable"></path><path d="M235.43,431.46c-1.41-.66-15-3.89-18-4.6-6-1.4-24.91-5.54-28.38-5.93-.09,0-.13.13,0,.16,2.94,1,15,4,18,4.65,6,1.37,26.67,6,28.38,6A.14.14,0,0,0,235.43,431.46Z" style="fill: rgb(55, 71, 79); transform-origin: 212.268px 426.335px 0px;" id="eljltlrhefmlh" class="animable"></path><path d="M345,467.78c-2.49,1.18-78.69,9.78-81.72,8.3-.36-.15-1.28-7-2.39-16.46l0-.18c-.73-6-8.51-56.8-8.51-56.8L300,396.69l8.83,49.91s10.79,3.09,20.25,6.31l0,0c5.83,2,10.91,3.8,12.11,4.55C344.33,459.44,347.49,466.63,345,467.78Z" style="fill: rgb(247, 169, 160); transform-origin: 299.138px 436.47px 0px;" id="elu8xnoji3qj" class="animable"></path><path d="M345,467.78c-2.49,1.17-78.69,9.78-81.72,8.3-.36-.15-1.28-7-2.39-16.45l0-.19c-.05-.41-.1-.84-.16-1.26s-.08-.61-.13-.91-.13-.91-.19-1.36c-.57-4-1.52-10.38-2.58-17.41l48.52-6,2.49,14.08s10.79,3.1,20.25,6.31l0,0c5.83,2,10.91,3.8,12.11,4.54C344.32,459.44,347.49,466.63,345,467.78Z" style="fill: rgb(235, 235, 235); transform-origin: 301.863px 454.375px 0px;" id="el07d1p8qq4pv5" class="animable"></path><path d="M345.35,468c-2.57,1.19-78.88,9.62-82,8.1-1.18-.57-3.62-12.21-4-25.34l49.21-5.37s29.71,10,32.95,12S347.92,466.85,345.35,468Z" style="fill: rgb(95, 33, 11); transform-origin: 302.82px 460.836px 0px;" id="el6wgqcmen1cd" class="animable"></path><g id="elw00oa0h4tr"><path d="M345.35,468c-2.57,1.19-78.88,9.62-82,8.1-1.18-.57-3.62-12.21-4-25.34l49.21-5.37s29.71,10,32.95,12S347.92,466.85,345.35,468Z" style="fill: rgb(255, 255, 255); opacity: 0.5; transform-origin: 302.82px 460.836px 0px;" class="animable"></path></g><path d="M343.92,465.1c-12.83,1.1-64.46,6.74-77.06,8.8-.1,0-.09.09,0,.08,12.74-.81,64.32-6.87,77.07-8.67C344.21,465.27,344.19,465.08,343.92,465.1Z" style="fill: rgb(38, 50, 56); transform-origin: 305.46px 469.54px 0px;" id="el07ha7b4nhvw8" class="animable"></path><path d="M312.69,446.26c-5.12.49-10.86,3-13.58,7.49-.1.18.15.33.29.23a71.71,71.71,0,0,1,13.45-7.1A.32.32,0,0,0,312.69,446.26Z" style="fill: rgb(38, 50, 56); transform-origin: 306.089px 450.131px 0px;" id="elezuyiktdh3g" class="animable"></path><path d="M316.82,447.36c-5.13.5-10.87,3-13.59,7.5-.1.18.15.32.29.23A71.53,71.53,0,0,1,317,448,.32.32,0,0,0,316.82,447.36Z" style="fill: rgb(38, 50, 56); transform-origin: 310.225px 451.233px 0px;" id="el9cqszfc4wy9" class="animable"></path><path d="M320.94,448.47c-5.13.49-10.86,2.95-13.58,7.49-.11.18.14.33.29.23a70.53,70.53,0,0,1,13.45-7.1A.32.32,0,0,0,320.94,448.47Z" style="fill: rgb(38, 50, 56); transform-origin: 314.337px 452.341px 0px;" id="elwtt97kro06e" class="animable"></path><path d="M325.06,449.57c-5.12.5-10.86,3-13.58,7.5-.11.17.15.32.29.23a70.87,70.87,0,0,1,13.45-7.11A.32.32,0,0,0,325.06,449.57Z" style="fill: rgb(38, 50, 56); transform-origin: 318.457px 453.443px 0px;" id="elfsz6rwy0zrk" class="animable"></path><path d="M310.82,445.36l-55.13,5.43s-5.17-91.76-9.41-97.18c-5.65-7.24-84.79-7.07-101.76-30.66-15.24-21.18-2.38-51.16-2.38-51.16L202.07,270a124.06,124.06,0,0,1-5.55,18.87s72.19,13.32,92.41,35.47C302.58,339.29,310.82,445.36,310.82,445.36Z" style="fill: rgb(38, 50, 56); transform-origin: 223.945px 360.395px 0px;" id="el2d6ouejuc77" class="animable"></path><path d="M207.06,284.77A29.19,29.19,0,0,0,202,286.4c-1.72.66-3.42,1.4-5.07,2.21a100.31,100.31,0,0,0-9.48,5.36c-.1.06,0,.2.09.15,3.24-1.69,6.59-3.2,9.95-4.65l4.84-2.09a50.75,50.75,0,0,0,4.89-2.16C207.41,285.11,207.29,284.73,207.06,284.77Z" style="fill: rgb(55, 71, 79); transform-origin: 197.361px 289.449px 0px;" id="el7e5szd9przo" class="animable"></path><path d="M203.46,270c-.68,2.74-1.28,5.49-2.07,8.2-.36,1.25-.71,2.51-1.18,3.72-.4,1-1,2.18-2.18,2.41-1.35.26-1.74-.9-1.63-2a36.2,36.2,0,0,1,.69-3.74c.28-1.42.57-2.84.83-4.27.13-.71.26-1.42.38-2.14,0-.18.17-1.54.27-1.93,0,0,0,.06.07.05h.05s.08,0,.08-.07,0-.13-.07-.21a.1.1,0,0,0-.12,0c-.26.14-.28.5-.36.76-.22.7-.45,1.39-.65,2.08-.38,1.31-.75,2.62-1.08,3.94s-.66,2.64-1,3.95a6.18,6.18,0,0,0-.26,3,2.3,2.3,0,0,0,2.14,1.75c0,.09-.1.18-.14.27-.12.27-.21.56-.31.83s-.2.57-.28.86a2.84,2.84,0,0,0-.08.42c0,.16,0,.31,0,.47a.22.22,0,0,0,.42.15c.07-.14.18-.24.26-.38a2.34,2.34,0,0,0,.19-.46,7.71,7.71,0,0,0,.24-.82c.07-.28.16-.56.21-.84a4,4,0,0,0,0-.5,3.2,3.2,0,0,0,1.58-.6,5.33,5.33,0,0,0,1.63-2.5c.41-1.14.73-2.32,1.05-3.49a50.89,50.89,0,0,0,1.75-8.81A.26.26,0,0,0,203.46,270Z" style="fill: rgb(55, 71, 79); transform-origin: 199.521px 279.286px 0px;" id="el0ssgz74h6agm" class="animable"></path><path d="M167.82,276.68c-.24,1.35-.4,2.73-.71,4.07s-.67,2.63-1.1,3.92a13.87,13.87,0,0,1-1.67,3.52,13.09,13.09,0,0,1-2.65,2.71,22.65,22.65,0,0,1-6.43,3.57,29.24,29.24,0,0,1-3.57,1c-.63.14-1.26.25-1.91.33a4,4,0,0,0-1.53.36.31.31,0,0,0,0,.53,5.56,5.56,0,0,0,2.84.09,20.65,20.65,0,0,0,3-.53,22.15,22.15,0,0,0,5.74-2.42,18.18,18.18,0,0,0,4.8-3.92,13.75,13.75,0,0,0,2.56-5.63,27.67,27.67,0,0,0,.84-7.63A.14.14,0,0,0,167.82,276.68Z" style="fill: rgb(55, 71, 79); transform-origin: 158.071px 286.769px 0px;" id="elxau121b16hg" class="animable"></path><path d="M254.82,357.21a17.35,17.35,0,0,0-1-4.76c-1.25-3.19-3.9-4.8-7.11-5.61-3.78-1-7.7-1.53-11.55-2.16s-7.89-1.21-11.84-1.76c-8-1.11-16-2.14-24-3.48a193.26,193.26,0,0,1-23.53-5.3c-7.08-2.14-14.34-4.78-20-9.7-12.19-10.57-12.64-28.29-11.15-43.11.21-2.09.47-4.18.72-6.27,0-.11-.15-.15-.16,0-1,8.35-2.09,16.75-1.26,25.16a41,41,0,0,0,6.67,19.49c4.12,5.92,10.24,9.75,16.84,12.41a131.54,131.54,0,0,0,22.45,6.47c15.82,3.32,32,4.72,47.87,7.45q2.94.5,5.87,1.07a24.12,24.12,0,0,1,5.3,1.42c3.62,1.62,4.65,5.13,5.06,8.77,1.51,13.29,7.48,77,7.46,79.12,0,.19.29.17.29,0C262.14,414,256.34,374.31,254.82,357.21Z" style="fill: rgb(55, 71, 79); transform-origin: 202.707px 355.759px 0px;" id="elb1re5qu6i3" class="animable"></path><path d="M248.24,358.33c-.43-2.19-.83-5.1-3.18-6.1a28,28,0,0,0-3.82-1.14c-1.39-.36-2.78-.72-4.18-1-6.46-1.39-13-2.27-19.54-3.14-.12,0-.17.15-.05.18,5.53,1.06,11.07,2.15,16.57,3.4,2.74.63,5.49,1.28,8.2,2,1.12.31,2.64.52,3.42,1.44a9,9,0,0,1,1.33,3.7c1.26,5.33,4.27,38.73,4.7,45.06a.14.14,0,0,0,.27,0C252.08,396.89,249.32,363.77,248.24,358.33Z" style="fill: rgb(55, 71, 79); transform-origin: 234.683px 374.891px 0px;" id="elt4zpcknd12s" class="animable"></path><path d="M306.65,435.55c-1.55-.18-15.46,1-18.53,1.27-6.13.54-25.4,2.54-28.81,3.25a.09.09,0,0,0,0,.17c3.11.05,15.46-.93,18.52-1.22,6.14-.57,27.2-2.68,28.84-3.19A.15.15,0,0,0,306.65,435.55Z" style="fill: rgb(55, 71, 79); transform-origin: 283.003px 437.887px 0px;" id="elo7euhhzvbmk" class="animable"></path><path d="M196.89,289a201.29,201.29,0,0,1,32.69,6.71,228,228,0,0,1,31.55,11.42c5.73,2.58,11.28,5.46,16.79,8.49.11.06,0,.22-.1.16a257.7,257.7,0,0,0-30.68-13.39,246.26,246.26,0,0,0-31.95-9.28c-6.1-1.33-12.25-2.36-18.41-3.39C196.37,289.69,196.48,289,196.89,289Z" style="fill: rgb(55, 71, 79); transform-origin: 237.244px 302.397px 0px;" id="eltv7b4tixjxa" class="animable"></path><path d="M140.3,270.41c.11.22,65.51,12.58,65.51,12.58l1.72-6.28s1.87-68.18-.48-73.06c-2.87-5.94-9.67-9.33-15.79-7.61C178.43,199.66,140.16,270.13,140.3,270.41Z" style="fill: rgb(235, 235, 235); transform-origin: 174.267px 239.291px 0px;" id="ellyn8wehnzms" class="animable"></path><path d="M191.26,196s3.55,40.79,3.51,49.21-.89,60.45-.89,60.45l-61.12-11.19a135.08,135.08,0,0,1,8.93-28.41c8.07-17.63,22.64-42.75,39.81-63.11C186.45,197.13,191.26,196,191.26,196Z" style="fill: rgb(95, 33, 11); transform-origin: 163.765px 250.83px 0px;" id="elmab0xgp1map" class="animable"></path><g id="el0rkf2wtxdm3"><g style="opacity: 0.5; transform-origin: 163.765px 250.83px 0px;" class="animable"><path d="M191.26,196s3.55,40.79,3.51,49.21-.89,60.45-.89,60.45l-61.12-11.19a135.08,135.08,0,0,1,8.93-28.41c8.07-17.63,22.64-42.75,39.81-63.11C186.45,197.13,191.26,196,191.26,196Z" style="fill: rgb(255, 255, 255); transform-origin: 163.765px 250.83px 0px;" id="elj6mep40ff0k" class="animable"></path></g></g><g id="elnvgknxfoanl"><rect x="165.21" y="276.92" width="19.12" height="3.1" style="fill: rgb(38, 50, 56); transform-origin: 174.77px 278.47px 0px; transform: rotate(4.64deg);" class="animable"></rect></g><path d="M191.26,196s4.1,38.18,4,47.11-1,44.3-1,44.3-1.08-40.06-1.58-42.25S186,226.06,186,226.06l5.28-6-6.09-7.89Z" style="fill: rgb(38, 50, 56); transform-origin: 190.226px 241.705px 0px;" id="el3ftuuw56zkm" class="animable"></path><polygon points="206.36 201.47 210.67 218.09 208.67 220.46 211.15 226.91 208.27 243.43 207.66 271.3 206.36 201.47" style="fill: rgb(38, 50, 56); transform-origin: 208.755px 236.385px 0px;" id="elstdo4tpn8e" class="animable"></polygon><path d="M202,213.2c-4.18-.24-9.82-8.94-11-14.57-.08-.38,1.46-3.72,3.15-7.87,1-2.53,2.09-5.36,2.88-8l15.45,9a44.08,44.08,0,0,0-4.65,9.72,5.79,5.79,0,0,0-.21,1.12,1.81,1.81,0,0,1,0,.19C207.31,205,206.05,213.43,202,213.2Z" style="fill: rgb(247, 169, 160); transform-origin: 201.739px 197.982px 0px;" id="elzdseq9zddsp" class="animable"></path><path d="M207.62,202.59a1.68,1.68,0,0,1,0,.18,10.82,10.82,0,0,1-1.74-.41c-9.57-3.08-8.33-15.55-7.78-19l3.86,2.25,10.54,6.14a44,44,0,0,0-4.63,9.72A5.15,5.15,0,0,0,207.62,202.59Z" style="fill: rgb(38, 50, 56); transform-origin: 205.114px 193.065px 0px;" id="elaf7pcwc7nwb" class="animable"></path><path d="M224.19,164.63a11.63,11.63,0,0,1,3.09,9.22c-.67,5.62-3.22,10.91-3.68,11.06S224.19,164.63,224.19,164.63Z" style="fill: rgb(38, 50, 56); transform-origin: 225.416px 174.77px 0px;" id="ela1l4j1656pw" class="animable"></path><path d="M199,164.36c-3.15,5.62-3.77,23.7-.34,28.51,5,7,15,9.74,21.42,3.32,6.21-6.22,6.61-29.79,2.59-34.36C216.76,155.1,203.65,156.07,199,164.36Z" style="fill: rgb(247, 169, 160); transform-origin: 210.822px 178.599px 0px;" id="elgcstv036fre" class="animable"></path><path d="M213.62,180.54s-.1.06-.1.11c0,1.22-.23,2.61-1.34,3,0,0,0,.08,0,.07C213.54,183.56,213.8,181.7,213.62,180.54Z" style="fill: rgb(38, 50, 56); transform-origin: 212.925px 182.13px 0px;" id="el8csllgnlter" class="animable"></path><path d="M212.58,179.23c-2-.23-2.26,3.7-.45,3.91S214.22,179.42,212.58,179.23Z" style="fill: rgb(38, 50, 56); transform-origin: 212.289px 181.184px 0px;" id="elt4gpae5hla" class="animable"></path><path d="M220.63,181.27c0-.05.09.06.09.11-.14,1.22-.08,2.63,1,3.12,0,0,0,.07,0,.06C220.36,184.27,220.31,182.4,220.63,181.27Z" style="fill: rgb(38, 50, 56); transform-origin: 221.094px 182.909px 0px;" id="eldw1wuqmo8d" class="animable"></path><path d="M221.82,180.09c2,0,1.81,3.93,0,3.93S220.17,180.08,221.82,180.09Z" style="fill: rgb(38, 50, 56); transform-origin: 221.886px 182.055px 0px;" id="el7vmqb005jv5" class="animable"></path><path d="M211.18,176.59c.55-.08,1-.24,1.57-.37a2.63,2.63,0,0,0,1.54-.69.83.83,0,0,0,0-1,2,2,0,0,0-2-.44,3,3,0,0,0-1.88,1.12A.89.89,0,0,0,211.18,176.59Z" style="fill: rgb(38, 50, 56); transform-origin: 212.36px 175.289px 0px;" id="eleahz2zdfre7" class="animable"></path><path d="M223.5,176.86a16,16,0,0,1-1.52-.52,2.64,2.64,0,0,1-1.46-.84.82.82,0,0,1,.13-1,2.06,2.06,0,0,1,2.08-.23,3,3,0,0,1,1.75,1.3A.88.88,0,0,1,223.5,176.86Z" style="fill: rgb(38, 50, 56); transform-origin: 222.501px 175.488px 0px;" id="elm7m0wrby23" class="animable"></path><path d="M210.78,191c.26.32.49.75.93.84a3.17,3.17,0,0,0,1.33-.13s.08,0,.05.07a1.65,1.65,0,0,1-1.62.45,1.3,1.3,0,0,1-.81-1.19A.06.06,0,0,1,210.78,191Z" style="fill: rgb(38, 50, 56); transform-origin: 211.877px 191.622px 0px;" id="elckydegtuiad" class="animable"></path><path d="M212.53,187.51A4.15,4.15,0,0,0,215,189.7a5.16,5.16,0,0,0,1.47.27h.55a.3.3,0,0,0,.28-.24h0a.49.49,0,0,0,0-.12h0v-.11c.15-.93.25-2.35.25-2.35.31.21,1.94,1.22,2,.73a63,63,0,0,0,.06-12.66.12.12,0,0,0-.23,0c-.43,3.89-.18,7.83-.56,11.74a7.08,7.08,0,0,0-1.86-.85c-.14,0-.14,2.76-.24,3.17l0,0a5.75,5.75,0,0,1-4.08-1.88C212.58,187.33,212.47,187.4,212.53,187.51Z" style="fill: rgb(38, 50, 56); transform-origin: 216.206px 182.552px 0px;" id="elbxqi2dqxc9t" class="animable"></path><path d="M216,189.42a4.79,4.79,0,0,1-2.11,1.21,2.19,2.19,0,0,1-1.31-.09c-.91-.38-.82-1.25-.55-2a5,5,0,0,1,.58-1.08A6.23,6.23,0,0,0,216,189.42Z" style="fill: rgb(38, 50, 56); transform-origin: 213.922px 189.075px 0px;" id="elg94r3cyfwne" class="animable"></path><path d="M213.89,190.63a2.19,2.19,0,0,1-1.31-.09c-.91-.38-.82-1.25-.55-2A2.23,2.23,0,0,1,213.89,190.63Z" style="fill: rgb(255, 154, 187); transform-origin: 212.867px 189.615px 0px;" id="eloxz4b2ny40m" class="animable"></path><path d="M198.12,181.17c1.92.66,4.37-5.12,5.08-7.35.63-2,1.49-8.25,1.6-8.67s8.31,5.87,13.27,4.6,8.4-5.56,8.54-7.62-5.78-7.49-11.05-7.94-12.65,6-12.65,6a25,25,0,0,0,2.46-3c-.08-.24-3.54,1-4.25,3.41,0,0,.78-3,.53-3.09s-3,2.45-2.47,4.45c0,0-3.16,2.55-3.54,5.45S195.85,180.39,198.12,181.17Z" style="fill: rgb(38, 50, 56); transform-origin: 211.073px 167.695px 0px;" id="elak2xi4pouvd" class="animable"></path><path d="M221.6,168.84a16.33,16.33,0,0,1-4.7,1.5,10.94,10.94,0,0,1-5.27-1,16.73,16.73,0,0,1-4.55-2.91c-1.19-1.05-2.24-2.31-3.52-3.26-.32-.24-.72.22-.53.53a17.72,17.72,0,0,0,8.69,6.88,10.17,10.17,0,0,0,9.9-1.67S221.62,168.83,221.6,168.84Z" style="fill: rgb(38, 50, 56); transform-origin: 212.3px 167.148px 0px;" id="eljlzkqdu6onr" class="animable"></path><path d="M229.55,168.85s-2.27-8-4.85-11-7-7-10.21-7c-1.47,0-7.15,4.8-7.94,4.91-2.11.31-6.88-.59-8.38.46-3.33,2.31-3.57,15.58-3.57,15.58s13.4-1.54,19-2.23S229.55,168.85,229.55,168.85Z" style="fill: rgb(95, 33, 11); transform-origin: 212.075px 161.325px 0px;" id="eln2sc8afaa7" class="animable"></path><g id="el0630fd5xqm38"><path d="M229.55,168.85s-2.27-8-4.85-11-7-7-10.21-7c-1.47,0-7.15,4.8-7.94,4.91-2.11.31-6.88-.59-8.38.46-3.33,2.31-3.57,15.58-3.57,15.58s13.4-1.54,19-2.23S229.55,168.85,229.55,168.85Z" style="fill: rgb(255, 255, 255); opacity: 0.5; transform-origin: 212.075px 161.325px 0px;" class="animable"></path></g><path d="M229.55,168.85s-10.32,0-15.94.68-19,2.22-19,2.22,0-1.37.17-3.3c2.39-.45,11.67-2.15,17.25-2.5,2-.14,13.13-.32,16.48-.37C229.15,167.43,229.55,168.85,229.55,168.85Z" style="fill: rgb(38, 50, 56); transform-origin: 212.08px 168.665px 0px;" id="el595i8ksxcel" class="animable"></path><path d="M188.2,176.88s20.59-4,27.37-4.21,21.05-.06,21.05-.06l-7.07-3.76s-9.65,0-13.57.11-21.38,2.8-21.38,2.8Z" style="fill: rgb(95, 33, 11); transform-origin: 212.41px 172.865px 0px;" id="elopgk6bjs99" class="animable"></path><g id="elbbtbmycdun5"><path d="M188.2,176.88s20.59-4,27.37-4.21,21.05-.06,21.05-.06l-7.07-3.76s-9.65,0-13.57.11-21.38,2.8-21.38,2.8Z" style="fill: rgb(255, 255, 255); opacity: 0.5; transform-origin: 212.41px 172.865px 0px;" class="animable"></path></g><path d="M201.12,179.47s-2.37-6.61-5.27-5.91-2.17,9.54.48,11.45a3.12,3.12,0,0,0,4.47-.52Z" style="fill: rgb(247, 169, 160); transform-origin: 197.552px 179.616px 0px;" id="elr6c6adx81bl" class="animable"></path><path d="M196.12,176.09s-.07,0,0,.07c1.84,1.41,2.41,3.63,2.63,5.83a1.73,1.73,0,0,0-2.37-1.13c-.06,0,0,.12,0,.12a1.92,1.92,0,0,1,1.86,1.21,8.86,8.86,0,0,1,.53,1.91c0,.21.4.2.39,0v0C199.93,181.39,198.89,177.13,196.12,176.09Z" style="fill: rgb(38, 50, 56); transform-origin: 197.748px 180.172px 0px;" id="elbqa4yelj7cg" class="animable"></path><polygon points="207.29 205.29 203.62 212.66 192.4 193.9 190.07 197.99 200.46 219.01 203.65 213.64 206.44 218.12 208.23 209.21 207.29 205.29" style="fill: rgb(235, 235, 235); transform-origin: 199.15px 206.455px 0px;" id="elxuvqps3gjro" class="animable"></polygon><path d="M190.07,198c3.33,7.25,6.83,14.42,10.37,21.57l.25-.42,3.16-5.38h-.4l2.84,4.44.24.38c.6-3.12,1.15-6.25,1.7-9.38-.66,3-1.34,5.91-2,8.88l.33-.06-2.74-4.51-.2-.33-.2.33-3.21,5.36h.46c-3.46-7-7-14-10.63-20.9Z" style="fill: rgb(38, 50, 56); transform-origin: 199.135px 208.775px 0px;" id="el0qzwsunchk6h" class="animable"></path><path d="M179.93,212.89c.77,22.22,8.71,62,13.89,68,4.6,5.31,32.81,6.05,45.26,6.59,4.66.2,5.61-31.63.63-31.74-6-.14-25.26-2.54-26.2-3.8s-11.73-26.68-20.1-42.21C185.82,195.64,179.64,204.48,179.93,212.89Z" style="fill: rgb(247, 169, 160); transform-origin: 211.477px 244.9px 0px;" id="el0t4ppgrjp7g" class="animable"></path><path d="M256.89,257.54C266.12,260,268.11,262,277,260c5.83-1.36,9.2,1.77,4.49,5.84-7.7,6.66-20.26,6-24.55,4.53Z" style="fill: rgb(247, 169, 160); transform-origin: 270.303px 264.44px 0px;" id="elg3h13bmgipa" class="animable"></path><path d="M230.22,256.22s12.07-1.33,22.16.3c7,1.13,21.88,5.28,29.57,24.92,1.82,4.66,1.11,12.59-4.63,6.06-4.07-4.64-5.26-8.81-8.12-11.07,0,0-2.1,10-6.84,11.62a91.88,91.88,0,0,1-12.69,3.42,20.45,20.45,0,0,1-.85-2.32s-4.57,1.11-10.88-2.27Z" style="fill: rgb(247, 169, 160); transform-origin: 256.529px 273.589px 0px;" id="el1offaqjdojg" class="animable"></path><path d="M258.87,258.66c2.37,2.85,7.28,9,9.56,15.38,2.53,7.12,5.48,21.51.21,23.33-3.87,1.33-5.48-4.07-5.48-4.07s0,6.21-3.79,6.64c-3.42.4-4.42-3.85-4.42-3.85s-.66,3.76-4,3.51c-4.06-.3-2-8.13-5.84-12C244.22,286.75,258.87,258.66,258.87,258.66Z" style="fill: rgb(247, 169, 160); transform-origin: 258.322px 279.313px 0px;" id="el9g0wgko6z2m" class="animable"></path><path d="M260.46,275.46a30,30,0,0,1,2.8,17.72c0,.16-.15.22-.16.07a74.14,74.14,0,0,0-2.71-17.76S260.44,275.43,260.46,275.46Z" style="fill: rgb(38, 50, 56); transform-origin: 261.987px 284.394px 0px;" id="eldiplph50h7r" class="animable"></path><path d="M253.35,278.22c1.27,2.79,3.26,11.1,1.74,17.86,0,.15-.17.2-.16.06a79.72,79.72,0,0,0-1.65-17.9S253.33,278.19,253.35,278.22Z" style="fill: rgb(38, 50, 56); transform-origin: 254.459px 287.217px 0px;" id="el6904hxy03l" class="animable"></path><path d="M235.17,292.57l2-39.32L214.41,251c-5.71-12.2-17.13-36.59-22.34-44.43-6.12-9.2-12.91-5.56-12.93,5.7,0,25.75,9.66,66.31,13.89,71.15C199.11,290.33,235.17,292.57,235.17,292.57Z" style="fill: rgb(95, 33, 11); transform-origin: 208.155px 246.963px 0px;" id="el2oxzm11yqcq" class="animable"></path><g id="elx536pnrt1qq"><path d="M235.17,292.57l2-39.32L214.41,251c-5.71-12.2-17.13-36.59-22.34-44.43-6.12-9.2-12.91-5.56-12.93,5.7,0,25.75,9.66,66.31,13.89,71.15C199.11,290.33,235.17,292.57,235.17,292.57Z" style="fill: rgb(255, 255, 255); opacity: 0.5; transform-origin: 208.155px 246.963px 0px;" class="animable"></path></g><path d="M226.62,289.16c-.31-2.63.19-13.58.34-16.31s1.15-13.63,1.31-16.43c0-.15.23-.19.23,0-.12,2.77-1.15,30.14-1.73,32.77A.08.08,0,0,1,226.62,289.16Z" style="fill: rgb(38, 50, 56); transform-origin: 227.51px 272.762px 0px;" id="elbcu63z749nj" class="animable"></path><path d="M207.81,289.1a63.1,63.1,0,0,1-9.29-2.32,19.19,19.19,0,0,1-4.39-2,8.7,8.7,0,0,1-2.95-3.89c-5-11.82-6.76-24.66-9-37.21-1-6.3-1.85-12.62-2.49-19,1,5.63,2.25,13.33,3.27,18.84,2.41,12.43,4.28,25.21,8.83,37a7.9,7.9,0,0,0,2.63,3.71,20.69,20.69,0,0,0,4.21,2.1,70.14,70.14,0,0,0,9.14,2.73Z" style="fill: rgb(38, 50, 56); transform-origin: 193.75px 256.89px 0px;" id="elswi9deayzi" class="animable"></path><path d="M180.54,231a10.23,10.23,0,0,1-1.31-4c.41,1.32,1,2.63,1.31,4Z" style="fill: rgb(38, 50, 56); transform-origin: 179.885px 229px 0px;" id="el00bbvn1hads6f" class="animable"></path><path d="M201.73,225c4.6,8.22,8.09,17,12.61,25.31.06.13.18.26.23.36a30.65,30.65,0,0,0,3.26.49l6.43.7,12.87,1.39h0v0l-.11,1.06,0-1.07,0,0c-7-.38-14-.85-21-1.66a9.18,9.18,0,0,1-1.91-.36,1.86,1.86,0,0,1-.5-.6c-4.51-8.19-8-17.28-12-25.7Z" style="fill: rgb(38, 50, 56); transform-origin: 219.37px 239.615px 0px;" id="el1372lbtzx86" class="animable"></path><path d="M203.17,225.73a10.24,10.24,0,0,1,.83,4.11c-.25-1.36-.67-2.73-.83-4.11Z" style="fill: rgb(38, 50, 56); transform-origin: 203.585px 227.785px 0px;" id="elvqitniexq1o" class="animable"></path></g><g id="freepik--Piano--inject-65" style="transform-origin: 426.855px 268.22px 0px;" class="animable animator-active"><rect x="365.1" y="339.03" width="4.54" height="137.51" style="fill: rgb(38, 50, 56); transform-origin: 367.37px 407.785px 0px;" id="elcy7303h5hmb" class="animable"></rect><rect x="356.01" y="339.03" width="4.54" height="137.51" style="fill: rgb(38, 50, 56); transform-origin: 358.28px 407.785px 0px;" id="elilf5ukt3c8" class="animable"></rect><rect x="303.94" y="469.54" width="72.77" height="6.99" style="fill: rgb(38, 50, 56); transform-origin: 340.325px 473.035px 0px;" id="eleqkidskgdc" class="animable"></rect><path d="M311.41,257.91V66.33a6.43,6.43,0,0,1,6.43-6.43H428.29a44.34,44.34,0,0,1,44.34,44.34V139c0,37.75,30.6,58.35,68.35,58.35h47a19.91,19.91,0,0,1,19.91,19.92v40.67Z" style="fill: rgb(38, 50, 56); transform-origin: 459.65px 158.92px 0px;" id="elp1i90uj5n9c" class="animable"></path><path d="M607.92,217.23v40.68H311.4V66.33a6.44,6.44,0,0,1,6.44-6.43H428.29a44.35,44.35,0,0,1,44.35,44.34V139c0,37.75,30.59,58.35,68.35,58.35h47A19.91,19.91,0,0,1,607.92,217.23Z" style="fill: rgb(95, 33, 11); transform-origin: 459.66px 158.905px 0px;" id="elyfjkg2jk9v7" class="animable"></path><g id="elzyunksmqnza"><path d="M607.92,217.23v40.68H311.4V66.33a6.44,6.44,0,0,1,6.44-6.43H428.29a44.35,44.35,0,0,1,44.35,44.34V139c0,37.75,30.59,58.35,68.35,58.35h47A19.91,19.91,0,0,1,607.92,217.23Z" style="opacity: 0.7; transform-origin: 459.66px 158.905px 0px;" class="animable"></path></g><g id="el6k51tgxfmo7"><path d="M607.92,217.23v40.68H311.4V232.72C419.86,226,428.29,151.89,428.29,59.9a44.35,44.35,0,0,1,44.35,44.34V139c0,37.75,30.59,58.35,68.35,58.35h47A19.91,19.91,0,0,1,607.92,217.23Z" style="opacity: 0.1; transform-origin: 459.66px 158.905px 0px;" class="animable"></path></g><rect x="380.24" y="116.95" width="8.58" height="140.96" style="fill: rgb(95, 33, 11); transform-origin: 384.53px 187.43px 0px;" id="elutfe9413ti" class="animable"></rect><g id="ely921thvszj"><rect x="380.24" y="116.95" width="8.58" height="140.96" style="opacity: 0.5; transform-origin: 384.53px 187.43px 0px;" class="animable"></rect></g><path d="M607.93,257.91V339H245.78V309a10.4,10.4,0,0,1,10.4-10.4h30.47a24.77,24.77,0,0,0,24.76-24.77V257.91Z" style="fill: rgb(95, 33, 11); transform-origin: 426.855px 298.455px 0px;" id="el8hp8ynmaogg" class="animable"></path><g id="elo30ielmlx7h"><path d="M607.93,257.91V339H245.78V309a10.4,10.4,0,0,1,10.4-10.4h30.47a24.77,24.77,0,0,0,24.76-24.77V257.91Z" style="opacity: 0.7; transform-origin: 426.855px 298.455px 0px;" class="animable"></path></g><g id="elhgv65ylmw4a"><g style="opacity: 0.3; transform-origin: 440.79px 298.465px 0px;" class="animable"><polygon points="488.55 339.02 465.11 339.02 523.76 257.91 547.2 257.91 488.55 339.02" style="fill: rgb(95, 33, 11); transform-origin: 506.155px 298.465px 0px;" id="elifyucki7fyc" class="animable"></polygon><polygon points="511.52 339.02 499.8 339.02 558.46 257.91 570.18 257.91 511.52 339.02" style="fill: rgb(95, 33, 11); transform-origin: 534.99px 298.465px 0px;" id="eldwcn2hymj9e" class="animable"></polygon><polygon points="323.12 339.02 311.4 339.02 370.06 257.91 381.77 257.91 323.12 339.02" style="fill: rgb(95, 33, 11); transform-origin: 346.585px 298.465px 0px;" id="elujpmmnnisn8" class="animable"></polygon></g></g><rect x="318.65" y="264.97" width="282.22" height="4.54" style="fill: rgb(38, 50, 56); transform-origin: 459.76px 267.24px 0px;" id="el1qffhb6qx53" class="animable"></rect><rect x="253.21" y="329.09" width="347.3" height="4.54" style="fill: rgb(95, 33, 11); transform-origin: 426.86px 331.36px 0px;" id="elg7b0qs15yk9" class="animable"></rect><rect x="299.35" y="339.03" width="43.56" height="26.08" style="fill: rgb(95, 33, 11); transform-origin: 321.13px 352.07px 0px;" id="elipqpacuwcv" class="animable"></rect><g id="ell4g3bma5q7h"><rect x="299.35" y="339.03" width="43.56" height="26.08" style="opacity: 0.7; transform-origin: 321.13px 352.07px 0px;" class="animable"></rect></g><g id="elub3f79i39c"><polygon points="342.9 344.41 299.35 349.79 299.35 339.02 342.9 339.02 342.9 344.41" style="opacity: 0.1; transform-origin: 321.125px 344.405px 0px;" class="animable"></polygon></g><polygon points="328.44 476.53 313.81 476.53 309.25 365.1 332.99 365.1 328.44 476.53" style="fill: rgb(95, 33, 11); transform-origin: 321.12px 420.815px 0px;" id="el15qug9dymju" class="animable"></polygon><g id="elncp3n8lval"><polygon points="328.44 476.53 313.81 476.53 309.25 365.1 332.99 365.1 328.44 476.53" style="opacity: 0.7; transform-origin: 321.12px 420.815px 0px;" class="animable"></polygon></g><polygon points="313.81 476.53 313.49 470.82 328.76 470.82 328.44 476.53 313.81 476.53" style="fill: rgb(95, 33, 11); transform-origin: 321.125px 473.675px 0px;" id="elrz5i8jtay" class="animable"></polygon><g id="elr6qbrc0fxuk"><polygon points="313.81 476.53 313.49 470.82 328.76 470.82 328.44 476.53 313.81 476.53" style="opacity: 0.2; transform-origin: 321.125px 473.675px 0px;" class="animable"></polygon></g><g id="el7kg6rdw37i4"><polygon points="309.25 365.1 309.52 369.82 332.8 368.48 332.99 365.1 309.25 365.1" style="opacity: 0.1; transform-origin: 321.12px 367.46px 0px;" class="animable"></polygon></g><rect x="510.81" y="339.03" width="43.56" height="26.08" style="fill: rgb(95, 33, 11); transform-origin: 532.59px 352.07px 0px;" id="elfa1pkmdniqt" class="animable"></rect><g id="els1x0v157689"><rect x="510.81" y="339.03" width="43.56" height="26.08" style="opacity: 0.7; transform-origin: 532.59px 352.07px 0px;" class="animable"></rect></g><g id="el3a0synhj067"><polygon points="554.36 344.41 510.81 349.79 510.81 339.02 554.36 339.02 554.36 344.41" style="opacity: 0.1; transform-origin: 532.585px 344.405px 0px;" class="animable"></polygon></g><polygon points="539.9 476.53 525.27 476.53 520.72 365.1 544.45 365.1 539.9 476.53" style="fill: rgb(95, 33, 11); transform-origin: 532.585px 420.815px 0px;" id="elhrb5kuzf4bu" class="animable"></polygon><g id="el6p0keij7til"><polygon points="539.9 476.53 525.27 476.53 520.72 365.1 544.45 365.1 539.9 476.53" style="opacity: 0.7; transform-origin: 532.585px 420.815px 0px;" class="animable"></polygon></g><polygon points="525.27 476.53 524.95 470.82 540.22 470.82 539.9 476.53 525.27 476.53" style="fill: rgb(95, 33, 11); transform-origin: 532.585px 473.675px 0px;" id="el5qj2nc582nf" class="animable"></polygon><g id="eln4h6pg4kpkm"><polygon points="525.27 476.53 524.95 470.82 540.22 470.82 539.9 476.53 525.27 476.53" style="opacity: 0.2; transform-origin: 532.585px 473.675px 0px;" class="animable"></polygon></g><g id="elyp3q2uset7"><polygon points="520.72 365.1 520.98 369.82 544.26 368.48 544.45 365.1 520.72 365.1" style="opacity: 0.1; transform-origin: 532.585px 367.46px 0px;" class="animable"></polygon></g></g><g id="freepik--musical-notes--inject-65" style="transform-origin: 260.795px 126.933px 0px;" class="animable"><path d="M241.13,149.11a5.24,5.24,0,1,1-2.51-7A5.25,5.25,0,0,1,241.13,149.11Z" style="fill: rgb(69, 90, 100); transform-origin: 236.397px 146.856px 0px;" id="elkb312l2q22" class="animable"></path><g id="elghvg3w6t9wp"><rect x="242.96" y="123.11" width="4" height="26.35" style="fill: rgb(69, 90, 100); transform-origin: 244.96px 136.285px 0px; transform: rotate(25.23deg);" class="animable"></rect></g><path d="M259.73,149.45a5.25,5.25,0,1,1-2.51-7A5.25,5.25,0,0,1,259.73,149.45Z" style="fill: rgb(69, 90, 100); transform-origin: 254.986px 147.201px 0px;" id="els51s4ks0brp" class="animable"></path><g id="elfj4x1nb808m"><rect x="261.56" y="123.45" width="4" height="26.35" style="fill: rgb(69, 90, 100); transform-origin: 263.56px 136.625px 0px; transform: rotate(25.23deg);" class="animable"></rect></g><polygon points="270.97 125.61 247.26 126.7 248.77 123.52 272.47 122.42 270.97 125.61" style="fill: rgb(69, 90, 100); transform-origin: 259.865px 124.56px 0px;" id="el0ornx07s8qb" class="animable"></polygon><polygon points="268.13 131.62 244.43 132.71 245.94 129.52 269.64 128.43 268.13 131.62" style="fill: rgb(69, 90, 100); transform-origin: 257.035px 130.57px 0px;" id="elsif5wmhiz0f" class="animable"></polygon><path d="M284.25,97.32a2.2,2.2,0,1,1-1.75-2.58A2.2,2.2,0,0,1,284.25,97.32Z" style="fill: rgb(69, 90, 100); transform-origin: 282.09px 96.9015px 0px;" id="el3289n34zvg2" class="animable"></path><g id="el2lhmvx5d84x"><rect x="283.62" y="86.14" width="1.69" height="11.1" style="fill: rgb(69, 90, 100); transform-origin: 284.465px 91.69px 0px; transform: rotate(10.77deg);" class="animable"></rect></g><path d="M291.87,95.5a2.2,2.2,0,1,1-1.75-2.58A2.21,2.21,0,0,1,291.87,95.5Z" style="fill: rgb(69, 90, 100); transform-origin: 289.709px 95.0815px 0px;" id="eli3bfhywtr3" class="animable"></path><g id="el9t1mms5nzcn"><rect x="291.24" y="84.32" width="1.69" height="11.1" style="fill: rgb(69, 90, 100); transform-origin: 292.085px 89.87px 0px; transform: rotate(10.77deg);" class="animable"></rect></g><polygon points="293.95 84.6 284.4 87.54 284.68 86.08 294.22 83.14 293.95 84.6" style="fill: rgb(69, 90, 100); transform-origin: 289.31px 85.34px 0px;" id="el0m4ilzz69fy" class="animable"></polygon><path d="M234.67,72.89a4,4,0,1,1-1.93-5.39A4.05,4.05,0,0,1,234.67,72.89Z" style="fill: rgb(69, 90, 100); transform-origin: 231.066px 71.1368px 0px;" id="elvd13lj1stl" class="animable"></path><g id="el9bmoijfz685"><rect x="236.09" y="52.8" width="3.09" height="20.36" style="fill: rgb(69, 90, 100); transform-origin: 237.635px 62.98px 0px; transform: rotate(25.23deg);" class="animable"></rect></g><g id="el2lpsqws1i96"><rect x="250.91" y="53.23" width="3.09" height="5.88" style="fill: rgb(69, 90, 100); transform-origin: 252.455px 56.17px 0px; transform: rotate(25.23deg);" class="animable"></rect></g><polygon points="254.77 54.88 239.41 55.58 240.57 53.12 255.93 52.42 254.77 54.88" style="fill: rgb(69, 90, 100); transform-origin: 247.67px 54px 0px;" id="el56veqe7d8n" class="animable"></polygon><polygon points="252.59 59.52 237.22 60.22 238.38 57.76 253.75 57.06 252.59 59.52" style="fill: rgb(69, 90, 100); transform-origin: 245.485px 58.64px 0px;" id="elaszhqi4sz1" class="animable"></polygon><path d="M290.68,197.55a4.24,4.24,0,1,1-3.89-4.57A4.24,4.24,0,0,1,290.68,197.55Z" style="fill: rgb(69, 90, 100); transform-origin: 286.454px 197.207px 0px;" id="el18dc474mljv" class="animable"></path><g id="elygc12jy87tm"><rect x="288.31" y="176.1" width="3.24" height="21.31" style="fill: rgb(69, 90, 100); transform-origin: 289.93px 186.755px 0px; transform: rotate(4.57392deg);" class="animable"></rect></g><g id="ellay3vf4th3"><rect x="300.32" y="171.54" width="3.24" height="6.16" style="fill: rgb(69, 90, 100); transform-origin: 301.94px 174.62px 0px; transform: rotate(4.63deg);" class="animable"></rect></g><polygon points="303.74 172.5 288.94 178.84 289.17 176 303.97 169.66 303.74 172.5" style="fill: rgb(69, 90, 100); transform-origin: 296.455px 174.25px 0px;" id="elpijlrexuvmb" class="animable"></polygon><polygon points="303.31 177.85 288.51 184.19 288.74 181.35 303.54 175.01 303.31 177.85" style="fill: rgb(69, 90, 100); transform-origin: 296.025px 179.6px 0px;" id="el2h5j1ydlptq" class="animable"></polygon><path d="M222.72,120.34a2.55,2.55,0,1,1-2.49-2.6A2.54,2.54,0,0,1,222.72,120.34Z" style="fill: rgb(69, 90, 100); transform-origin: 220.171px 120.289px 0px;" id="eluzagt8elhvh" class="animable"></path><g id="elczf0ddu77zd"><rect x="220.91" y="107.51" width="1.94" height="12.78" style="fill: rgb(69, 90, 100); transform-origin: 221.88px 113.9px 0px; transform: rotate(1.14576deg);" class="animable"></rect></g><g id="el7269kkdr2pb"><rect x="227.67" y="104.37" width="1.94" height="3.69" style="fill: rgb(69, 90, 100); transform-origin: 228.64px 106.215px 0px; transform: rotate(1.24deg);" class="animable"></rect></g><polygon points="229.64 104.88 221.01 109.2 221.05 107.5 229.68 103.17 229.64 104.88" style="fill: rgb(69, 90, 100); transform-origin: 225.345px 106.185px 0px;" id="elrz08pjot26e" class="animable"></polygon><polygon points="229.57 108.1 220.94 112.42 220.98 110.71 229.61 106.39 229.57 108.1" style="fill: rgb(69, 90, 100); transform-origin: 225.275px 109.405px 0px;" id="elw0rirn7y6c" class="animable"></polygon></g><g id="freepik--Microphone--inject-65" style="transform-origin: 634.626px 309.259px 0px;" class="animable"><rect x="633.14" y="163.12" width="3.18" height="309.11" style="fill: rgb(166, 166, 166); transform-origin: 634.73px 317.675px 0px;" id="eloklfaavj06e" class="animable"></rect><polygon points="618.96 148.12 652.35 163.5 649.26 170.87 614.9 157.79 618.96 148.12" style="fill: rgb(38, 50, 56); transform-origin: 633.625px 159.495px 0px;" id="elq60ofmv30v" class="animable"></polygon><path d="M602.9,147.07h0A8.3,8.3,0,0,0,607.35,158l2.65,1.12a7.78,7.78,0,0,0,10.19-4.17l.41-1a7.79,7.79,0,0,0-4.17-10.2l-2.65-1.11A8.31,8.31,0,0,0,602.9,147.07Z" style="fill: rgb(166, 166, 166); transform-origin: 611.719px 150.857px 0px;" id="elc8pc9g0qh8e" class="animable"></path><g id="elmj5psinyqu"><rect x="603.46" y="150.08" width="17.68" height="1.81" style="fill: rgb(199, 199, 199); transform-origin: 612.3px 150.985px 0px; transform: rotate(-67.23deg);" class="animable"></rect></g><path d="M635.07,454.93h0c0-.06,3.75-7.07,4.68-18.2.58-7-1.77-18.65-4.26-31-2.63-13-5.36-26.48-5.13-36.65.16-6.91,2.27-15,4.5-23.5,2.7-10.31,5.49-21,4.93-30.22-.38-6.26-2.75-14.4-5.26-23-3.57-12.28-7.25-25-6-34.48s8.9-19.86,17-30.77c8.22-11.09,16.71-22.57,17.51-32.82,1.24-15.78-11.07-25.91-16.88-28.11l.38-1c6,2.29,18.84,12.81,17.56,29.18-.83,10.56-9.41,22.16-17.72,33.37-7.63,10.32-15.53,21-16.77,30.28s2.42,21.87,6,34c2.52,8.69,4.91,16.89,5.29,23.27.58,9.42-2.23,20.16-5,30.55-2.22,8.47-4.31,16.47-4.47,23.25-.23,10.06,2.49,23.46,5.11,36.42,2.5,12.37,4.87,24.05,4.27,31.24C639.85,448.26,635.27,454.66,635.07,454.93Z" style="fill: rgb(38, 50, 56); transform-origin: 646.235px 310.055px 0px;" id="elnizhzmfs8a" class="animable"></path><rect x="602.44" y="472.23" width="64.58" height="4.3" style="fill: rgb(166, 166, 166); transform-origin: 634.73px 474.38px 0px;" id="eliwycbsearhj" class="animable"></rect></g><defs>     <filter id="active" height="200%">         <feMorphology in="SourceAlpha" result="DILATED" operator="dilate" radius="2"></feMorphology>                <feFlood flood-color="#32DFEC" flood-opacity="1" result="PINK"></feFlood>        <feComposite in="PINK" in2="DILATED" operator="in" result="OUTLINE"></feComposite>        <feMerge>            <feMergeNode in="OUTLINE"></feMergeNode>            <feMergeNode in="SourceGraphic"></feMergeNode>        </feMerge>    </filter>    <filter id="hover" height="200%">        <feMorphology in="SourceAlpha" result="DILATED" operator="dilate" radius="2"></feMorphology>                <feFlood flood-color="#ff0000" flood-opacity="0.5" result="PINK"></feFlood>        <feComposite in="PINK" in2="DILATED" operator="in" result="OUTLINE"></feComposite>        <feMerge>            <feMergeNode in="OUTLINE"></feMergeNode>            <feMergeNode in="SourceGraphic"></feMergeNode>        </feMerge>            <feColorMatrix type="matrix" values="0   0   0   0   0                0   1   0   0   0                0   0   0   0   0                0   0   0   1   0 "></feColorMatrix>    </filter></defs></svg>