<svg class="animated" id="freepik_stories-jazz-piano" xmlns="http://www.w3.org/2000/svg" viewBox="0 0 500 500" version="1.1" xmlns:xlink="http://www.w3.org/1999/xlink" xmlns:svgjs="http://svgjs.com/svgjs"><style>svg#freepik_stories-jazz-piano:not(.animated) .animable {opacity: 0;}svg#freepik_stories-jazz-piano.animated #freepik--background-complete--inject-61 {animation: 1s 1 forwards cubic-bezier(.36,-0.01,.5,1.38) fadeIn;animation-delay: 0s;}svg#freepik_stories-jazz-piano.animated #freepik--Piano--inject-61 {animation: 1s 1 forwards cubic-bezier(.36,-0.01,.5,1.38) slideRight;animation-delay: 0s;}svg#freepik_stories-jazz-piano.animated #freepik--Musical_notes--inject-61 {animation: 3s Infinite  linear floating;animation-delay: 0s;}svg#freepik_stories-jazz-piano.animated #freepik--Plant--inject-61 {animation: 1s 1 forwards cubic-bezier(.36,-0.01,.5,1.38) slideUp;animation-delay: 0s;}svg#freepik_stories-jazz-piano.animated #freepik--Character--inject-61 {animation: 1s 1 forwards cubic-bezier(.36,-0.01,.5,1.38) slideLeft,6s Infinite  linear wind;animation-delay: 0s,1s;}            @keyframes fadeIn {                0% {                    opacity: 0;                }                100% {                    opacity: 1;                }            }                    @keyframes slideRight {                0% {                    opacity: 0;                    transform: translateX(30px);                }                100% {                    opacity: 1;                    transform: translateX(0);                }            }                    @keyframes floating {                0% {                    opacity: 1;                    transform: translateY(0px);                }                50% {                    transform: translateY(-10px);                }                100% {                    opacity: 1;                    transform: translateY(0px);                }            }                    @keyframes slideUp {                0% {                    opacity: 0;                    transform: translateY(30px);                }                100% {                    opacity: 1;                    transform: inherit;                }            }                    @keyframes slideLeft {                0% {                    opacity: 0;                    transform: translateX(-30px);                }                100% {                    opacity: 1;                    transform: translateX(0);                }            }                    @keyframes wind {                0% {                    transform: rotate( 0deg );                }                25% {                    transform: rotate( 1deg );                }                75% {                    transform: rotate( -1deg );                }            }        </style><g id="freepik--background-complete--inject-61" style="transform-origin: 250px 215.935px 0px;" class="animable animator-active"><g id="elb897qr63vc" style="transform-origin: 365.592px 118.225px 0px;" class="animable"><g id="el2vy1evxs602" style="transform-origin: 365.592px 118.225px 0px;" class="animable"><g id="elzghz7a962h"><rect x="335.107" y="60.3" width="68.813" height="115.849" style="fill: rgb(230, 230, 230); transform-origin: 369.514px 118.225px 0px; transform: rotate(180deg);" class="animable"></rect></g><g id="eliumqoi37kwm"><rect x="327.265" y="60.3" width="74.783" height="115.849" style="fill: rgb(240, 240, 240); transform-origin: 364.657px 118.225px 0px; transform: rotate(180deg);" class="animable"></rect></g><g id="elzr59rqciufa"><rect x="312.469" y="87.098" width="104.375" height="62.253" style="fill: rgb(255, 255, 255); transform-origin: 364.657px 118.225px 0px; transform: rotate(90deg);" class="animable"></rect></g></g><path d="M379.807,91.603h-30.301c-.332,0-.601,.455-.601,1.016v51.212c0,.561,.269,1.016,.601,1.016h30.301c.333,0,.601-.455,.601-1.016v-51.212c0-.561-.269-1.016-.601-1.016Zm-29.699,51.212v-49.179l29.098,49.179h-29.098Z" style="fill: rgb(240, 240, 240); transform-origin: 364.657px 118.225px 0px;" id="elxw2fve5gjv" class="animable"></path></g><g id="eli7d88gwcs5" style="transform-origin: 138.494px 118.226px 0px;" class="animable"><g id="el8k74btwt8vx" style="transform-origin: 138.494px 118.226px 0px;" class="animable"><g id="ely30y77qvlym"><rect x="108.008" y="60.301" width="68.813" height="115.849" style="fill: rgb(230, 230, 230); transform-origin: 142.415px 118.226px 0px; transform: rotate(180deg);" class="animable"></rect></g><g id="ell5qm034x9z"><rect x="100.166" y="60.301" width="74.783" height="115.849" style="fill: rgb(240, 240, 240); transform-origin: 137.558px 118.226px 0px; transform: rotate(180deg);" class="animable"></rect></g><g id="el8sm8b1nbe1q"><rect x="85.37" y="87.099" width="104.375" height="62.253" style="fill: rgb(255, 255, 255); transform-origin: 137.558px 118.226px 0px; transform: rotate(90deg);" class="animable"></rect></g></g><path d="M152.708,91.604h-30.301c-.332,0-.601,.455-.601,1.016v51.211c0,.561,.269,1.016,.601,1.016h30.301c.333,0,.601-.455,.601-1.016v-51.211c0-.561-.269-1.016-.601-1.016Zm-29.699,51.212v-49.179l29.098,49.179h-29.098Z" style="fill: rgb(240, 240, 240); transform-origin: 137.558px 118.225px 0px;" id="ele7ou1n56fpn" class="animable"></path></g><g id="elnv5nm607xbh" style="transform-origin: 250px 215.935px 0px;" class="animable"><g id="elqyran267roc" style="transform-origin: 250px 204.158px 0px;" class="animable"><g id="elrae3ujxfsor" style="transform-origin: 249.333px 173.498px 0px;" class="animable"><path d="M443.92,310.997h-180.746c-3.232,0-5.862-2.63-5.862-5.862V41.861c0-3.232,2.63-5.862,5.862-5.862h180.746c3.232,0,5.862,2.629,5.862,5.862V305.135c0,3.233-2.63,5.862-5.862,5.862ZM263.174,36.249c-3.095,0-5.612,2.518-5.612,5.612V305.135c0,3.095,2.518,5.612,5.612,5.612h180.746c3.095,0,5.612-2.517,5.612-5.612V41.861c0-3.094-2.518-5.612-5.612-5.612h-180.746Z" style="fill: rgb(224, 224, 224); transform-origin: 353.547px 173.498px 0px;" id="el8fl5x49hkj7" class="animable"></path><path d="M235.493,310.997H54.746c-3.232,0-5.862-2.63-5.862-5.862V41.861c0-3.232,2.629-5.862,5.862-5.862H235.493c3.232,0,5.862,2.629,5.862,5.862V305.135c0,3.233-2.63,5.862-5.862,5.862ZM54.746,36.249c-3.094,0-5.612,2.518-5.612,5.612V305.135c0,3.095,2.518,5.612,5.612,5.612H235.493c3.095,0,5.612-2.517,5.612-5.612V41.861c0-3.094-2.518-5.612-5.612-5.612H54.746Z" style="fill: rgb(224, 224, 224); transform-origin: 145.119px 173.498px 0px;" id="elpy20zn7o6bg" class="animable"></path></g><rect x="0" y="372.066" width="500" height=".25" style="fill: rgb(224, 224, 224); transform-origin: 250px 372.191px 0px;" id="el9hl4i311qlm" class="animable"></rect></g><rect x="51.672" y="386.331" width="16.06" height=".25" style="fill: rgb(224, 224, 224); transform-origin: 59.702px 386.456px 0px;" id="elqzz1fr74ep" class="animable"></rect><rect x="170.352" y="383.621" width="53.53" height=".25" style="fill: rgb(224, 224, 224); transform-origin: 197.117px 383.746px 0px;" id="elio3ux09r9q" class="animable"></rect><rect x="68.732" y="395.621" width="36.25" height=".25" style="fill: rgb(224, 224, 224); transform-origin: 86.857px 395.746px 0px;" id="eldumr1klngd4" class="animable"></rect><rect x="378.352" y="383.491" width="43.19" height=".25" style="fill: rgb(224, 224, 224); transform-origin: 399.947px 383.616px 0px;" id="el9anmdt8shkt" class="animable"></rect><rect x="430.452" y="383.491" width="6.33" height=".25" style="fill: rgb(224, 224, 224); transform-origin: 433.617px 383.616px 0px;" id="el0cuud2rcdgs" class="animable"></rect><rect x="316.212" y="389.721" width="53.89" height=".25" style="fill: rgb(224, 224, 224); transform-origin: 343.157px 389.846px 0px;" id="elsa1kuf19zx" class="animable"></rect></g></g><g id="freepik--Shadow--inject-61" style="transform-origin: 274.71px 445.569px 0px;" class="animable"><path d="M443.947,445.569c0,7.415-75.77,13.426-169.237,13.426s-169.237-6.011-169.237-13.426,75.77-13.426,169.237-13.426,169.237,6.011,169.237,13.426Z" style="fill: rgb(245, 245, 245); transform-origin: 274.71px 445.569px 0px;" id="eld3me2k05ct4" class="animable"></path></g><g id="freepik--Piano--inject-61" style="transform-origin: 307.345px 317.99px 0px;" class="animable"><g id="elrtwpt3zmzma" style="transform-origin: 307.345px 317.99px 0px;" class="animable"><path d="M234.464,193.026h-2.689v4.004h2.689v30.13h-2.335l-10.624,50.453-48.336,7.028v22.347h4.039v127.852h-4.039v7.825h61.294l207.057-.082V193.026H234.464Zm0,241.814h-49.179v-127.852h49.179v127.852Z" style="fill: rgb(95, 33, 11); transform-origin: 307.345px 317.846px 0px;" id="eluirkrukbmup" class="animable"></path><path d="M384.233,193.026h-2.689v4.004h2.689v30.13h-2.335l-10.624,50.453-48.335,7.028v22.347h4.039v127.853h-4.039v7.825l61.294,.288h0l57.288-.37V193.026h-57.288Zm-49.179,241.814v-127.853h49.179v127.853h-49.179Z" style="fill: rgb(95, 33, 11); transform-origin: 382.23px 317.99px 0px;" id="ele904xniua29" class="animable"></path><g id="elwhn463y7oe"><rect x="326.977" y="306.988" width="8.077" height="127.853" style="isolation: isolate; opacity: 0.2; transform-origin: 331.016px 370.915px 0px;" class="animable"></rect></g><g id="elxqslbfnzj4b"><polygon points="234.464 197.03 384.233 197.03 384.233 202.36 234.464 199.659 234.464 197.03" style="isolation: isolate; opacity: 0.2; transform-origin: 309.349px 199.695px 0px;" class="animable"></polygon></g><g id="elft7tsw1qba"><polygon points="234.464 227.16 384.233 227.16 234.464 225.71 234.464 227.16" style="isolation: isolate; opacity: 0.2; transform-origin: 309.349px 226.435px 0px;" class="animable"></polygon></g><g id="eljy33p4obrsp"><polygon points="178.158 292.008 319.141 292.008 319.141 283.626 340.866 280.857 209.453 280.857 178.158 285.41 178.158 292.008" style="isolation: isolate; opacity: 0.2; transform-origin: 259.512px 286.433px 0px;" class="animable"></polygon></g><g id="elcezj29furie"><polygon points="221.505 277.614 371.274 277.614 326.977 271.894 333.902 233.762 270.07 233.762 260.195 275.996 221.505 277.614" style="isolation: isolate; opacity: 0.2; transform-origin: 296.39px 255.688px 0px;" class="animable"></polygon></g><polygon points="183.965 290.808 319.141 290.808 319.141 285.356 209.874 285.356 183.965 289.234 183.965 290.808" style="fill: rgb(255, 255, 255); transform-origin: 251.553px 288.082px 0px;" id="el1l96ulpoiyj" class="animable"></polygon><g id="eln6u19i1damo"><rect x="183.965" y="289.234" width="135.176" height="1.574" style="isolation: isolate; opacity: 0.1; transform-origin: 251.553px 290.021px 0px;" class="animable"></rect></g><polygon points="213.138 284.656 203.111 286.668 203.111 287.244 206.871 287.244 215.872 285.356 215.872 284.656 213.138 284.656" style="fill: rgb(38, 50, 56); transform-origin: 209.491px 285.95px 0px;" id="eltfr9lvglfbe" class="animable"></polygon><polygon points="222.443 284.656 212.416 286.668 212.416 287.244 216.176 287.244 225.177 285.356 225.177 284.656 222.443 284.656" style="fill: rgb(38, 50, 56); transform-origin: 218.797px 285.95px 0px;" id="el8nyvxi3zn6g" class="animable"></polygon><polygon points="231.748 284.656 221.721 286.668 221.721 287.244 225.481 287.244 234.482 285.356 234.482 284.656 231.748 284.656" style="fill: rgb(38, 50, 56); transform-origin: 228.102px 285.95px 0px;" id="el9k35e1sd9r" class="animable"></polygon><polygon points="241.053 284.656 231.026 286.668 231.026 287.244 234.786 287.244 243.788 285.356 243.788 284.656 241.053 284.656" style="fill: rgb(38, 50, 56); transform-origin: 237.407px 285.95px 0px;" id="elcqrr2zq1oou" class="animable"></polygon><polygon points="250.358 284.656 240.332 286.668 240.332 287.244 244.092 287.244 253.093 285.356 253.093 284.656 250.358 284.656" style="fill: rgb(38, 50, 56); transform-origin: 246.713px 285.95px 0px;" id="el7x11khabs1u" class="animable"></polygon><polygon points="259.664 284.656 249.637 286.668 249.637 287.244 253.397 287.244 262.398 285.356 262.398 284.656 259.664 284.656" style="fill: rgb(38, 50, 56); transform-origin: 256.018px 285.95px 0px;" id="el0090grce58bx5" class="animable"></polygon><polygon points="268.969 284.656 258.942 286.668 258.942 287.244 262.702 287.244 271.703 285.356 271.703 284.656 268.969 284.656" style="fill: rgb(38, 50, 56); transform-origin: 265.323px 285.95px 0px;" id="el3n881v0r6rn" class="animable"></polygon><polygon points="278.274 284.656 268.247 286.668 268.247 287.244 272.007 287.244 281.008 285.356 281.008 284.656 278.274 284.656" style="fill: rgb(38, 50, 56); transform-origin: 274.628px 285.95px 0px;" id="ellfbvcb438y" class="animable"></polygon><polygon points="287.579 284.656 277.552 286.668 277.552 287.244 281.312 287.244 290.314 285.356 290.314 284.656 287.579 284.656" style="fill: rgb(38, 50, 56); transform-origin: 283.933px 285.95px 0px;" id="ell2n92h9xzd" class="animable"></polygon><polygon points="296.884 284.656 286.857 286.668 286.857 287.244 290.617 287.244 299.619 285.356 299.619 284.656 296.884 284.656" style="fill: rgb(38, 50, 56); transform-origin: 293.238px 285.95px 0px;" id="elad9vxtpjlqr" class="animable"></polygon><polygon points="306.189 284.656 296.163 286.668 296.163 287.244 299.923 287.244 308.924 285.356 308.924 284.656 306.189 284.656" style="fill: rgb(38, 50, 56); transform-origin: 302.544px 285.95px 0px;" id="el2z11g16466x" class="animable"></polygon><polygon points="315.495 284.656 305.468 286.668 305.468 287.244 309.228 287.244 318.229 285.356 318.229 284.656 315.495 284.656" style="fill: rgb(38, 50, 56); transform-origin: 311.849px 285.95px 0px;" id="el41jp56bqvmq" class="animable"></polygon><g id="el0sm0v188ozu8"><path d="M252.24,440.536l-14.133,.194c-1.27,.017-2.34-.944-2.457-2.209l-.095-1.024c-.132-1.414,.97-2.64,2.391-2.66l13.992-.192c1.137-.016,2.139,1.19,2.283,2.747h0c.157,1.689-.748,3.126-1.981,3.143Z" style="opacity: 0.3; transform-origin: 244.892px 437.688px 0px;" class="animable"></path></g><g id="elvpa97q95l1"><path d="M273.284,432.219l-13.727,3.367c-1.233,.303-2.492-.394-2.891-1.599l-.323-.976c-.446-1.348,.352-2.791,1.731-3.129l13.59-3.334c1.104-.271,2.351,.678,2.843,2.163h0c.533,1.61-.026,3.214-1.223,3.508Z" style="opacity: 0.3; transform-origin: 265.464px 431.079px 0px;" class="animable"></path></g><g id="elenu2smt69jr" style="transform-origin: 295.476px 254.004px 0px;" class="animable"><path d="M332.359,230.422l-8.663,44.747s-25.449,.115-34.597,2.442c0,0-19.954-3.433-30.507-3.433l11.175-43.756c.449-.15,21.267,.3,29.021,3.341,0,0,20.956-3.64,33.571-3.341Z" style="fill: rgb(245, 245, 245); transform-origin: 295.476px 254.004px 0px;" id="elp0girgmczc" class="animable"></path><g id="el935ma497aoh"><path d="M298.788,233.763l-9.689,43.848s-19.954-3.433-30.507-3.433l11.175-43.756c.449-.15,21.267,.3,29.021,3.341Z" style="isolation: isolate; opacity: 0.1; transform-origin: 278.69px 254.004px 0px;" class="animable"></path></g><g id="elvs6jbjertjr"><g style="isolation: isolate; opacity: 0.2; transform-origin: 283.165px 236.843px 0px;" class="animable"><path d="M294.377,238.825c-.046,0-.092-.011-.136-.034-6.019-3.205-22.125-3.354-22.288-3.355-.158-.001-.287-.131-.286-.29,.001-.159,.13-.286,.288-.286h.002c.667,.005,16.41,.151,22.554,3.422,.14,.074,.194,.25,.119,.389-.052,.098-.151,.153-.254,.153Z" id="elarhgz1gf6v" style="transform-origin: 283.165px 236.843px 0px;" class="animable"></path></g></g><g id="el3qeo9o1md0m"><g style="isolation: isolate; opacity: 0.2; transform-origin: 314.761px 237.217px 0px;" class="animable"><path d="M302.543,238.825c-.136,0-.257-.097-.283-.236-.029-.157,.075-.306,.232-.335,.739-.135,18.181-3.314,24.522-2.517,.158,.02,.269,.164,.25,.322-.02,.158-.166,.26-.322,.25-6.254-.786-24.166,2.48-24.347,2.512-.017,.003-.035,.005-.052,.005Z" id="elocnmn4uo8vf" style="transform-origin: 314.761px 237.217px 0px;" class="animable"></path></g></g><g id="elknmdnjcr42b"><g style="isolation: isolate; opacity: 0.2; transform-origin: 281.948px 242.123px 0px;" class="animable"><path d="M293.16,244.105c-.046,0-.092-.011-.136-.034-6.019-3.205-22.126-3.354-22.288-3.355-.159,0-.287-.13-.286-.29,.001-.159,.13-.286,.288-.286h.002c.667,.005,16.41,.151,22.554,3.422,.14,.074,.193,.25,.119,.389-.052,.098-.151,.153-.254,.153Z" id="elxy5bajaani" style="transform-origin: 281.948px 242.123px 0px;" class="animable"></path></g></g><g id="elpo7hl1ewck"><g style="isolation: isolate; opacity: 0.2; transform-origin: 313.543px 242.498px 0px;" class="animable"><path d="M301.325,244.105c-.136,0-.257-.097-.283-.236-.029-.156,.075-.306,.232-.335,.739-.135,18.187-3.312,24.522-2.516,.158,.02,.269,.164,.25,.322-.02,.158-.169,.265-.322,.25-6.252-.792-24.166,2.478-24.346,2.511-.017,.003-.035,.005-.052,.005Z" id="el43xooteuzdy" style="transform-origin: 313.543px 242.498px 0px;" class="animable"></path></g></g><g id="elohdd7rsv7td"><g style="isolation: isolate; opacity: 0.2; transform-origin: 280.73px 247.403px 0px;" class="animable"><path d="M291.942,249.385c-.046,0-.092-.011-.136-.034-6.019-3.205-22.126-3.354-22.288-3.355-.159-.001-.287-.131-.286-.29,.001-.159,.13-.286,.288-.286h.002c.667,.005,16.41,.151,22.554,3.422,.14,.074,.194,.25,.119,.389-.052,.098-.151,.153-.254,.153Z" id="eltdmfvbtoy8g" style="transform-origin: 280.73px 247.403px 0px;" class="animable"></path></g></g><g id="eln9tftcrgs6"><g style="isolation: isolate; opacity: 0.2; transform-origin: 312.325px 247.778px 0px;" class="animable"><path d="M300.107,249.385c-.136,0-.257-.097-.283-.236-.029-.157,.075-.306,.232-.335,.739-.135,18.185-3.312,24.522-2.516,.158,.02,.269,.164,.25,.322-.02,.158-.165,.264-.322,.25-6.251-.793-24.166,2.479-24.346,2.511-.017,.003-.035,.005-.052,.005Z" id="el0czubmqrc9v" style="transform-origin: 312.325px 247.778px 0px;" class="animable"></path></g></g><g id="elmlakxdeedac"><g style="isolation: isolate; opacity: 0.2; transform-origin: 279.513px 252.683px 0px;" class="animable"><path d="M290.724,254.665c-.046,0-.092-.011-.135-.034-6.019-3.205-22.126-3.354-22.288-3.355-.159-.001-.287-.13-.286-.29,.001-.159,.13-.286,.288-.286h.002c.667,.005,16.41,.151,22.554,3.422,.14,.074,.193,.25,.119,.389-.052,.098-.151,.153-.254,.153Z" id="el8ri8xmvn5e" style="transform-origin: 279.513px 252.683px 0px;" class="animable"></path></g></g><g id="el24mokbvwmkk"><g style="isolation: isolate; opacity: 0.2; transform-origin: 311.107px 253.058px 0px;" class="animable"><path d="M298.889,254.665c-.136,0-.257-.097-.283-.236-.029-.156,.075-.306,.232-.335,.739-.135,18.186-3.311,24.522-2.516,.158,.02,.269,.164,.25,.322-.02,.157-.168,.263-.322,.25-6.249-.783-24.167,2.478-24.346,2.511-.017,.003-.035,.005-.052,.005Z" id="el2ktzhm6debq" style="transform-origin: 311.107px 253.058px 0px;" class="animable"></path></g></g><g id="el9dgas4k5ld6"><g style="isolation: isolate; opacity: 0.2; transform-origin: 278.295px 257.964px 0px;" class="animable"><path d="M289.506,259.946c-.046,0-.092-.011-.136-.034-6.02-3.207-22.126-3.354-22.288-3.355-.159-.001-.287-.13-.286-.29,.001-.159,.13-.286,.288-.286h.002c.667,.005,16.41,.15,22.555,3.423,.14,.075,.193,.25,.119,.389-.052,.098-.151,.153-.254,.153Z" id="el83jf0dkex5m" style="transform-origin: 278.295px 257.964px 0px;" class="animable"></path></g></g><g id="elxlildfoghbh"><g style="isolation: isolate; opacity: 0.2; transform-origin: 309.889px 258.338px 0px;" class="animable"><path d="M297.672,259.946c-.136,0-.257-.097-.283-.236-.029-.156,.075-.306,.232-.335,.74-.135,18.182-3.313,24.521-2.517,.158,.02,.269,.164,.25,.322-.02,.157-.164,.262-.322,.25-6.252-.783-24.165,2.48-24.346,2.512-.017,.003-.035,.004-.052,.004Z" id="el1bmfy82bjz2" style="transform-origin: 309.889px 258.338px 0px;" class="animable"></path></g></g><g id="el5ynrnpa0wxq"><g style="isolation: isolate; opacity: 0.2; transform-origin: 277.078px 263.244px 0px;" class="animable"><path d="M288.289,265.226c-.046,0-.092-.011-.136-.034-6.021-3.205-22.126-3.354-22.288-3.355-.159-.001-.287-.131-.286-.29,0-.159,.13-.286,.288-.286h.002c.667,.005,16.41,.151,22.555,3.423,.14,.074,.194,.25,.119,.389-.052,.098-.151,.153-.254,.153Z" id="elxiavawepeye" style="transform-origin: 277.078px 263.244px 0px;" class="animable"></path></g></g><g id="el88brxzje3hr"><g style="isolation: isolate; opacity: 0.2; transform-origin: 308.672px 263.618px 0px;" class="animable"><path d="M296.454,265.226c-.136,0-.257-.097-.283-.236-.029-.157,.075-.306,.232-.335,.74-.136,18.183-3.313,24.522-2.517,.158,.02,.269,.164,.25,.322-.02,.157-.168,.261-.322,.25-6.253-.784-24.165,2.48-24.346,2.512-.017,.003-.035,.004-.052,.004Z" id="el8xjfw4ir7c" style="transform-origin: 308.672px 263.618px 0px;" class="animable"></path></g></g><g id="el1frdh9r0axrh"><g style="isolation: isolate; opacity: 0.2; transform-origin: 275.861px 268.524px 0px;" class="animable"><path d="M287.071,270.506c-.046,0-.092-.011-.135-.034-6.021-3.205-22.126-3.354-22.288-3.355-.159-.001-.287-.13-.286-.29,.001-.159,.13-.286,.288-.286h.002c.667,.005,16.41,.151,22.555,3.423,.14,.074,.193,.25,.119,.389-.052,.098-.151,.153-.254,.153Z" id="el86e4l5sl5xf" style="transform-origin: 275.861px 268.524px 0px;" class="animable"></path></g></g><g id="el0w5iizf47h5m"><g style="isolation: isolate; opacity: 0.2; transform-origin: 307.453px 268.899px 0px;" class="animable"><path d="M295.236,270.506c-.136,0-.257-.097-.283-.236-.029-.157,.075-.306,.232-.335,.739-.135,18.186-3.312,24.521-2.516,.158,.02,.269,.164,.25,.322-.02,.157-.171,.265-.322,.25-6.251-.796-24.166,2.477-24.346,2.511-.017,.003-.035,.005-.052,.005Z" id="el5mzr7f9wsux" style="transform-origin: 307.453px 268.899px 0px;" class="animable"></path></g></g></g></g></g><g id="freepik--Musical_notes--inject-61" style="transform-origin: 180.558px 162.661px 0px;" class="animable"><path d="M281.221,120.381c-.865-.672-1.556-.682-2.225-.693-.753-.011-1.465-.025-2.457-.996l-.088-.323c-.03-.113-.148-.172-.263-.133-.115,.039-.182,.163-.152,.276l3.405,12.558c-.258-.143-.572-.234-.935-.263-.734-.058-1.583,.138-2.391,.552-1.7,.871-2.691,2.459-2.209,3.541,.415,.931,1.789,1.187,3.248,.685,.236-.081,.473-.182,.71-.303,.808-.414,1.483-.999,1.902-1.647,.431-.668,.542-1.328,.318-1.863h0l-2.386-8.801c.883,.703,1.584,.717,2.265,.727,.778,.012,1.513,.023,2.557,1.094,.042,.043,.104,.056,.162,.036,.013-.004,.025-.01,.036-.017,.066-.041,.099-.121,.079-.192l-.842-3.106c-.125-.462-.38-.853-.737-1.13Z" style="fill: rgb(95, 33, 11); transform-origin: 278.293px 127.031px 0px;" id="elsp7ckm0i0i" class="animable"></path><path d="M136.909,131.664c-.865-.672-1.556-.682-2.225-.692-.752-.011-1.465-.025-2.456-.996l-.088-.323c-.03-.113-.148-.172-.263-.133-.115,.039-.183,.163-.152,.276l3.405,12.558c-.258-.143-.572-.234-.936-.263-.734-.058-1.583,.138-2.391,.552-1.7,.871-2.691,2.459-2.209,3.541,.415,.931,1.789,1.187,3.248,.685,.236-.081,.473-.182,.71-.303,.808-.414,1.483-.999,1.902-1.647,.431-.668,.542-1.328,.318-1.863h0l-2.386-8.801c.883,.703,1.584,.717,2.265,.727,.778,.012,1.513,.023,2.557,1.094,.042,.043,.104,.056,.162,.036,.013-.004,.025-.01,.036-.017,.066-.041,.099-.121,.079-.192l-.842-3.106c-.125-.462-.38-.853-.737-1.13Z" style="fill: rgb(95, 33, 11); transform-origin: 133.981px 138.315px 0px;" id="el28x47quptlb" class="animable"></path><path d="M217.791,99.028c.854,.507,1.66,.987,2.148,2.935,.019,.078,.081,.133,.157,.146,.017,.003,.034,.003,.051,.002,.099-.008,.184-.082,.208-.18l.644-2.735c.149-.634,.111-1.265-.111-1.824-.538-1.355-1.296-1.806-2.03-2.242-.825-.491-1.606-.959-2.097-2.753l.104-.443c.036-.155-.056-.301-.208-.326-.151-.025-.303,.08-.34,.235l-4.055,17.233c-.196-.335-.487-.643-.871-.909-.776-.535-1.839-.837-2.989-.854-1.151-.016-2.263,.259-3.13,.771-.91,.538-1.449,1.276-1.519,2.078-.07,.802,.339,1.553,1.153,2.115,.547,.377,1.235,.639,1.997,.766,.319,.053,.652,.083,.992,.088,2.402,.032,4.469-1.223,4.642-2.806h0l1.734-7.371c.538,1.404,1.306,1.864,2.053,2.309,.854,.507,1.66,.987,2.148,2.936,.019,.078,.081,.133,.157,.146,.017,.003,.034,.003,.051,.002,.099-.008,.184-.082,.208-.181l.644-2.735c.149-.634,.111-1.265-.111-1.824-.538-1.355-1.297-1.806-2.03-2.242-.825-.491-1.606-.959-2.098-2.753l.445-1.891c.538,1.404,1.306,1.864,2.053,2.309Z" style="fill: rgb(95, 33, 11); transform-origin: 212.417px 102.368px 0px;" id="elueu99r7upsk" class="animable"></path><path d="M82.411,176.905c.715-.096,1.39-.186,2.545,.704,.046,.036,.106,.039,.155,.012,.011-.006,.021-.013,.03-.022,.053-.049,.068-.13,.037-.196l-.865-1.847c-.2-.428-.506-.77-.885-.989-.917-.529-1.552-.445-2.166-.363-.691,.092-1.346,.177-2.434-.623l-.14-.299c-.049-.105-.168-.146-.265-.092-.097,.054-.137,.182-.088,.287l5.452,11.64c-.263-.103-.567-.147-.905-.125-.683,.045-1.424,.352-2.086,.86-.663,.51-1.172,1.167-1.435,1.849-.276,.716-.251,1.379,.071,1.868,.321,.488,.893,.732,1.609,.685,.481-.032,.991-.193,1.482-.463,.206-.113,.409-.246,.605-.397,1.382-1.063,1.994-2.709,1.38-3.689h0l-2.332-4.979c.939,.557,1.583,.473,2.209,.39,.715-.096,1.39-.186,2.545,.704,.046,.036,.106,.039,.155,.012,.011-.006,.021-.013,.03-.022,.053-.049,.068-.13,.037-.196l-.865-1.847c-.201-.428-.506-.77-.885-.989-.917-.529-1.552-.444-2.166-.362-.691,.092-1.346,.177-2.434-.623l-.598-1.277c.939,.557,1.584,.473,2.209,.39Z" style="fill: rgb(95, 33, 11); transform-origin: 82.741px 181.713px 0px;" id="elhdu95vqxgbo" class="animable"></path><path d="M220.175,169.111c.672,.262,1.306,.511,1.886,1.849,.023,.053,.074,.086,.13,.086,.012,0,.025-.002,.037-.005,.07-.017,.122-.081,.127-.154l.138-2.035c.032-.472-.07-.919-.295-1.294-.546-.907-1.142-1.14-1.719-1.366-.649-.254-1.264-.497-1.828-1.724l.022-.33c.008-.115-.076-.209-.187-.209-.111,0-.208,.093-.216,.208l-.869,12.824c-.18-.217-.425-.403-.731-.548-.619-.292-1.416-.382-2.242-.258-.827,.125-1.591,.453-2.151,.922-.588,.493-.887,1.086-.843,1.668,.044,.583,.427,1.073,1.076,1.378,.436,.205,.96,.312,1.521,.313,.235,0,.477-.017,.721-.054,1.724-.261,3.057-1.404,2.994-2.559h0l.371-5.485c.552,.942,1.156,1.181,1.744,1.411,.672,.262,1.306,.511,1.886,1.849,.023,.053,.074,.086,.13,.086,.012,0,.024-.002,.037-.005,.07-.017,.122-.081,.127-.154l.138-2.035c.032-.472-.07-.919-.295-1.293-.546-.907-1.142-1.14-1.719-1.366-.649-.254-1.264-.498-1.828-1.724l.095-1.407c.552,.942,1.156,1.181,1.743,1.411Z" style="fill: rgb(95, 33, 11); transform-origin: 216.964px 172.182px 0px;" id="elyjk79n0v5m" class="animable"></path><path d="M121.264,87.548h0l-.912-10.612-.34-3.959-.019-.222-10.82,1.752,.019,.222,.34,3.959,.834,9.704c-.717-.595-2.032-.754-3.413-.32-1.875,.591-3.163,2.057-2.871,3.268,.251,1.042,1.593,1.561,3.158,1.307,.253-.041,.511-.102,.772-.184,1.858-.586,3.137-2.03,2.876-3.234h0l-.783-9.114,9.93-1.608,.704,8.197c-.235-.196-.535-.348-.898-.445-.731-.195-1.624-.148-2.515,.133-1.875,.591-3.163,2.057-2.871,3.268,.251,1.042,1.593,1.561,3.158,1.307,.253-.041,.511-.102,.772-.184,1.858-.586,3.137-2.03,2.876-3.234Zm-11.196-7.879l-.09-1.054,9.93-1.608,.091,1.054-9.93,1.608Z" style="fill: rgb(95, 33, 11); transform-origin: 112.668px 82.7329px 0px;" id="elql08sphgtbj" class="animable"></path><path d="M119.697,249.351h0l-.568-6.607-.212-2.465-.012-.138-6.736,1.091,.012,.138,.212,2.465,.519,6.042c-.446-.37-1.265-.469-2.125-.199-1.167,.368-1.969,1.281-1.787,2.035,.156,.649,.992,.972,1.966,.814,.157-.025,.318-.063,.481-.115,1.157-.365,1.953-1.264,1.79-2.014h0l-.488-5.674,6.183-1.001,.438,5.103c-.146-.122-.333-.217-.559-.277-.455-.121-1.011-.092-1.566,.083-1.167,.368-1.969,1.281-1.787,2.034,.156,.649,.992,.972,1.966,.814,.157-.025,.318-.063,.481-.115,1.157-.365,1.953-1.264,1.791-2.014Zm-6.971-4.905l-.056-.656,6.183-1.001,.056,.656-6.183,1.001Z" style="fill: rgb(95, 33, 11); transform-origin: 114.346px 246.354px 0px;" id="el8nolc29v7dt" class="animable"></path></g><g id="freepik--Plant--inject-61" style="transform-origin: 82.2305px 368.208px 0px;" class="animable"><g id="elxm2mgacnvj" style="transform-origin: 82.2305px 368.208px 0px;" class="animable"><g id="el3y9dmrph5j3" style="transform-origin: 82.2305px 353.814px 0px;" class="animable"><path d="M93.042,291.917c-15.906,18.606-20.551,46.146-11.629,68.94,9.914-8.848,16.895-22.336,17.337-34.132,.442-11.797-2.646-23.407-5.708-34.808Z" style="fill: rgb(95, 33, 11); transform-origin: 87.8597px 326.387px 0px;" id="elfdrs2457mvw" class="animable"></path><path d="M90.268,363.007c-5.397,8.27-7.98,18.34-7.231,28.187,8.599-2.994,16.179-12.707,20.724-20.596,4.545-7.89,7.086-16.751,9.398-25.557-9.315,3.278-17.493,9.697-22.89,17.967Z" style="fill: rgb(95, 33, 11); transform-origin: 98.0345px 368.118px 0px;" id="elrm2lcgb86gd" class="animable"></path><path d="M88.238,324.396c-6.392,22.98-9.649,46.813-9.627,70.667,.006,6.77,.282,13.538,.81,20.288,.037,.478,.788,.482,.75,0-1.862-23.795-.478-47.818,4.147-71.235,1.296-6.564,2.851-13.074,4.644-19.52,.13-.466-.594-.664-.723-.199h0Z" style="fill: rgb(38, 50, 56); transform-origin: 83.7942px 369.921px 0px;" id="elb71a83ow6c" class="animable"></path><path d="M79.694,398.986c6.529-15.537,15.109-30.089,25.026-43.695,.285-.391-.366-.765-.648-.379-9.959,13.663-18.545,28.273-25.101,43.874-.187,.444,.539,.638,.723,.199h0Z" style="fill: rgb(38, 50, 56); transform-origin: 91.8656px 376.991px 0px;" id="elzxkgspvnozs" class="animable"></path><path d="M70.389,375.893c4.5,6.896,6.654,15.293,6.029,23.503-7.17-2.496-13.491-10.595-17.28-17.174-3.79-6.579-5.908-13.968-7.836-21.311,7.767,2.733,14.587,8.086,19.087,14.981Z" style="fill: rgb(95, 33, 11); transform-origin: 63.913px 380.154px 0px;" id="el6xzat0gaaq4" class="animable"></path><path d="M79.499,404.824c-5.359-12.744-12.434-24.554-20.566-35.712-.281-.386-.933-.012-.648,.379,8.09,11.1,15.159,22.854,20.491,35.533,.184,.438,.91,.246,.723-.199h0Z" style="fill: rgb(38, 50, 56); transform-origin: 68.872px 387.111px 0px;" id="elwm0b4y0h63h" class="animable"></path><path d="M79.738,409.102c10.118-10.409,20.449-20.609,30.567-31.019,.337-.346-.193-.877-.53-.53-10.118,10.409-20.449,20.609-30.567,31.019-.337,.346,.193,.877,.53,.53h0Z" style="fill: rgb(38, 50, 56); transform-origin: 94.7565px 393.327px 0px;" id="elr3wqrzx2hsf" class="animable"></path><path d="M110.652,373.267c-8.778,8.466-16.776,17.741-23.859,27.668h1.606c6.681-.313,13.167-3.609,17.359-8.821,4.192-5.212,6.02-12.254,4.894-18.847Z" style="fill: rgb(95, 33, 11); transform-origin: 98.8856px 387.101px 0px;" id="el27v1avw3o5n" class="animable"></path><g id="el49au4ulp388" style="transform-origin: 68.7648px 347.058px 0px;" class="animable"><path d="M69.057,353.101c3.769,6.164,7.32,12.458,10.648,18.872,.222,.429,.87,.05,.648-.379-3.327-6.414-6.878-12.708-10.648-18.872-.251-.411-.9-.035-.648,.379h0Z" style="fill: rgb(38, 50, 56); transform-origin: 74.6993px 362.353px 0px;" id="elh27fktgo6fn" class="animable"></path><path d="M60.009,321.955c-1.437,6.466-2.863,14.874-2.878,21.606-.015,6.733,2.04,13.302,5.865,17.814s11.549,6.488,14.662,3.906l-17.65-43.326Z" style="fill: rgb(95, 33, 11); transform-origin: 67.3945px 344.192px 0px;" id="ellsmoptyjbal" class="animable"></path></g></g><rect x="59.812" y="412.074" width="38.347" height="7.107" style="fill: rgb(38, 50, 56); transform-origin: 78.9855px 415.628px 0px;" id="el98nlbykfhvi" class="animable"></rect><polygon points="91.949 444.499 68.136 444.499 63.809 417.552 95.367 417.552 91.949 444.499" style="fill: rgb(38, 50, 56); transform-origin: 79.588px 431.026px 0px;" id="el4ums96batxw" class="animable"></polygon><g id="elgrkp0m50wp"><polygon points="64.092 419.313 95.144 419.313 94.757 422.364 64.582 422.364 64.092 419.313" style="opacity: 0.2; transform-origin: 79.618px 420.839px 0px;" class="animable"></polygon></g></g></g><g id="freepik--Character--inject-61" style="transform-origin: 204.23px 297.315px 0px;" class="animable"><g id="el9yxartzwglt" style="transform-origin: 204.23px 297.315px 0px;" class="animable"><g id="elm16itnu3yi" style="transform-origin: 209.128px 374.843px 0px;" class="animable"><g id="elxjz5n0e6x48" style="transform-origin: 209.412px 370.902px 0px;" class="animable"><polygon points="200.458 430.21 210.298 430.21 215.244 407.422 205.404 407.422 200.458 430.21" style="fill: rgb(255, 131, 117); transform-origin: 207.851px 418.816px 0px;" id="el5buuq71llnj" class="animable"></polygon><path d="M210.997,426.501h-11.055c-.402,0-.751,.279-.838,.672l-1.944,8.747c-.202,.907,.511,1.766,1.441,1.75,3.859-.066,5.734-.293,10.596-.293,2.991,0,6.829,.311,10.96,.311,4.04,0,4.67-4.084,2.979-4.454-7.582-1.659-8.114-3.946-10.542-6.128-.438-.393-1.009-.605-1.597-.605Z" style="fill: rgb(38, 50, 56); transform-origin: 210.569px 432.095px 0px;" id="elqudmoyf0vtn" class="animable"></path><g id="el65z9weysxeu"><g style="opacity: 0.2; transform-origin: 209.046px 413.738px 0px;" class="animable"><polygon points="205.4 407.428 215.245 407.428 212.501 420.047 202.846 419.175 205.4 407.428" id="elwj97hyg2b" style="transform-origin: 209.046px 413.738px 0px;" class="animable"></polygon></g></g><g id="elumu3kwm2msj" style="transform-origin: 186.781px 359.146px 0px;" class="animable"><path d="M182.651,304.116s45.698,16.567,47.046,38.497c2.481,40.385-13.997,71.563-13.997,71.563h-14.761s2.274-13.819,4.285-50.407c2.527-45.974-75.501,1.077-59.431-59.653h36.859Z" style="fill: rgb(95, 33, 11); transform-origin: 186.781px 359.146px 0px;" id="el5npo0hwn2qg" class="animable"></path><g id="el9735j50gt7"><path d="M182.651,304.116s45.698,16.567,47.046,38.497c2.481,40.385-13.997,71.563-13.997,71.563h-14.761s2.274-13.819,4.285-50.407c2.527-45.974-75.501,1.077-59.431-59.653h36.859Z" style="opacity: 0.6; transform-origin: 186.781px 359.146px 0px;" class="animable"></path></g></g><g id="elds8vifjvrqc" style="transform-origin: 259.027px 418.515px 0px;" class="animable"><polygon points="243.503 426.465 253.344 426.465 256.219 403.676 246.378 403.676 243.503 426.465" style="fill: rgb(255, 131, 117); transform-origin: 249.861px 415.071px 0px;" id="elzth5hq20dq" class="animable"></polygon><path d="M253.82,419.281l-10.351,2.887c-.387,.108-.648,.471-.627,.873l.477,8.948c.05,.927,.944,1.57,1.834,1.306,3.716-1.105,9.051-2.828,13.744-4.137,5.488-1.53,6.623-1.525,13.059-3.319,3.891-1.085,3.874-5.32,2.146-5.222-7.867,.446-10.284,.932-17.793-1.232-.816-.235-1.671-.33-2.489-.102Z" style="fill: rgb(38, 50, 56); transform-origin: 259.027px 426.254px 0px;" id="ely127va42h7o" class="animable"></path><g id="el1rqd3y953ib"><polygon points="256.216 403.683 254.652 416.095 244.891 415.429 246.372 403.683 256.216 403.683" style="opacity: 0.2; transform-origin: 250.554px 409.889px 0px;" class="animable"></polygon></g></g><g id="elfac8u3r4p" style="transform-origin: 211.853px 357.273px 0px;" class="animable"><path d="M198.426,304.116s74.884,6.641,74.076,44.248c-.841,39.117-14.432,62.066-14.432,62.066h-14.622s1.75-16.857,1.259-55.369c-.147-11.538-23.46-15.35-46.228-16.695-19.667-1.163-38.077-12.373-45.717-30.533l-1.564-3.717h47.228Z" style="fill: rgb(95, 33, 11); transform-origin: 211.853px 357.273px 0px;" id="el4nxsxkjj954" class="animable"></path><g id="elri1vzy7e6p"><path d="M198.426,304.116s74.884,6.641,74.076,44.248c-.841,39.117-14.432,62.066-14.432,62.066h-14.622s1.75-16.857,1.259-55.369c-.147-11.538-23.46-15.35-46.228-16.695-19.667-1.163-38.077-12.373-45.717-30.533l-1.564-3.717h47.228Z" style="opacity: 0.5; transform-origin: 211.853px 357.273px 0px;" class="animable"></path></g></g></g><g id="elw1w89hx5l" style="transform-origin: 185.284px 390.9px 0px;" class="animable"><polygon points="179.867 345.18 180.282 363.355 182.172 445.569 188.404 445.569 190.282 363.355 190.697 345.18 179.867 345.18" style="fill: rgb(38, 50, 56); transform-origin: 185.282px 395.375px 0px;" id="el1qwqect5wawj" class="animable"></polygon><g id="el4pnyg8j4j6x"><polygon points="179.867 345.18 180.282 363.355 182.172 445.569 188.404 445.569 190.282 363.355 190.697 345.18 179.867 345.18" style="fill: rgb(255, 255, 255); isolation: isolate; opacity: 0.4; transform-origin: 185.282px 395.375px 0px;" class="animable"></polygon></g><g id="el4fh7vxttbyv"><polygon points="179.867 345.18 180.282 363.857 190.282 363.857 190.697 345.18 179.867 345.18" style="isolation: isolate; opacity: 0.2; transform-origin: 185.282px 354.519px 0px;" class="animable"></polygon></g><g id="el11885h5063q" style="transform-origin: 185.285px 395.812px 0px;" class="animable"><g id="elt24d2dfa8d" style="transform-origin: 153.606px 395.812px 0px;" class="animable"><polygon points="146.021 445.277 151.779 346.465 161.191 346.465 153.13 445.277 146.021 445.277" style="fill: rgb(38, 50, 56); transform-origin: 153.606px 395.871px 0px;" id="elxqjy6v8u82m" class="animable"></polygon><g id="elj1ws787frs9"><polygon points="153.147 445.277 146.032 445.277 151.257 355.336 151.775 346.347 161.188 346.347 160.462 355.336 153.147 445.277" style="fill: rgb(255, 255, 255); isolation: isolate; opacity: 0.5; transform-origin: 153.61px 395.812px 0px;" class="animable"></polygon></g><g id="elbodzvavnoh"><polygon points="161.188 346.347 160.462 355.686 151.257 355.686 151.775 346.347 161.188 346.347" style="isolation: isolate; opacity: 0.2; transform-origin: 156.223px 351.016px 0px;" class="animable"></polygon></g></g><g id="elqb5mqdy2rmh" style="transform-origin: 216.964px 395.812px 0px;" class="animable"><polygon points="217.44 445.277 209.379 346.465 218.791 346.465 224.548 445.277 217.44 445.277" style="fill: rgb(38, 50, 56); transform-origin: 216.964px 395.871px 0px;" id="el1jlk38t03ji" class="animable"></polygon><g id="elj12o7337ooi"><polygon points="217.423 445.277 210.108 355.336 209.382 346.347 218.795 346.347 219.313 355.336 224.538 445.277 217.423 445.277" style="fill: rgb(255, 255, 255); isolation: isolate; opacity: 0.5; transform-origin: 216.96px 395.812px 0px;" class="animable"></polygon></g><g id="elln4nwjfccg"><polygon points="209.382 346.347 210.108 355.686 219.313 355.686 218.795 346.347 209.382 346.347" style="isolation: isolate; opacity: 0.2; transform-origin: 214.348px 351.016px 0px;" class="animable"></polygon></g></g></g><g id="elzj9roninbie"><path d="M146.736,336.231h77.097v8.645c0,2.76-2.24,5-5,5h-67.097c-2.76,0-5-2.24-5-5v-8.645h0Z" style="fill: rgb(95, 33, 11); transform-origin: 185.284px 343.053px 0px; transform: rotate(180deg);" class="animable"></path></g><g id="el5vnojzwr46u" style="transform-origin: 185.284px 346.464px 0px;" class="animable"><g id="elmaclstdh0y"><rect x="143.042" y="343.053" width="84.485" height="6.822" rx="2.011" ry="2.011" style="fill: rgb(38, 50, 56); transform-origin: 185.285px 346.464px 0px; transform: rotate(180deg);" class="animable"></rect></g><g id="el47xvy3p0va9"><rect x="143.042" y="343.053" width="84.485" height="6.822" rx="2.011" ry="2.011" style="fill: rgb(255, 255, 255); isolation: isolate; opacity: 0.6; transform-origin: 185.285px 346.464px 0px; transform: rotate(180deg);" class="animable"></rect></g></g></g></g><g id="elcemwm5yzhj" style="transform-origin: 173.249px 179.261px 0px;" class="animable"><path d="M192.922,186.403c-.114,.462-.254,.918-.42,1.365-.929,2.55-2.621,4.765-4.853,6.354-.561,.405-1.154,.765-1.773,1.078-4.861,2.557-10.859,1.619-14.674-2.294-4.911-4.874-4.783-10.506-5.343-20.036-.148-2.048,.191-4.102,.991-5.998,2.813-6.656,10.582-9.81,17.352-7.044l.005,.002c9.472,3.808,10.778,17.983,8.714,26.574Z" style="fill: rgb(185, 121, 100); transform-origin: 179.794px 177.728px 0px;" id="elz3tzyxh4apj" class="animable"></path><g id="elsglzblqd39j"><path d="M187.614,194.122c-.561,.405-1.154,.765-1.773,1.078-3.29,1.725-7.196,1.893-10.627,.459,.439-1.146,1.023-2.232,1.738-3.234,3.646-.45,7.346,.14,10.662,1.697Z" style="isolation: isolate; opacity: 0.2; transform-origin: 181.414px 194.452px 0px;" class="animable"></path></g><path d="M168.099,206.485c4.783,4.266,16.483,2.695,16.483,2.695,0,0,7.302-1.973,5.762-4.209-4.293-.7-6.381-2.672-7.244-5.207-.466-1.566-.612-3.207-.431-4.828,.069-.904,.19-1.804,.362-2.695l-14.465-10.529c1.89,6.95,4.211,19.738-.467,24.773Z" style="fill: rgb(185, 121, 100); transform-origin: 179.328px 195.587px 0px;" id="elrsl3qskr2t9" class="animable"></path><path d="M187.614,177.733l2.088,.768-1.038-4.198s3.056-4.588,0-8.567c0,0,8.445-2.523,3.674-6.881-1.773-1.629-3.978,0-9.81-2.489-3.161-1.365-13.053-1.468-13.543,2.489,0,0-7.127,0-7.897,11.928-.456,7.075,2.31,13.983,7.547,18.855,0,0,8.609,1.995,12.831-1.399,4.223-3.395,6.147-10.506,6.147-10.506Z" style="fill: rgb(38, 50, 56); transform-origin: 177.419px 172.865px 0px;" id="elvui00t6pc" class="animable"></path><path d="M182.109,178.409c.369,1.816,1.552,3.371,3.22,4.232,1.971,.826,3.278-1.904,2.986-4.771-.268-2.546-1.61-6.124-3.721-5.643-2.111,.482-3.173,3.613-2.485,6.182Z" style="fill: rgb(185, 121, 100); transform-origin: 185.128px 177.487px 0px;" id="elbezqa2o4m1" class="animable"></path><path d="M180.709,149.978c13.846-4.691,17.322,13.442,3.569,25.702-13.753,12.26-29.547,13.763-31.344,7.546s6.637-26.057,27.774-33.248Z" style="fill: rgb(38, 50, 56); transform-origin: 172.854px 168.012px 0px;" id="elswqpoo7jbgl" class="animable"></path><g id="elukn4hx5iw8e"><path d="M180.709,149.978c13.846-4.691,17.322,13.442,3.569,25.702-13.753,12.26-29.547,13.763-31.344,7.546s6.637-26.057,27.774-33.248Z" style="isolation: isolate; opacity: 0.2; transform-origin: 172.854px 168.012px 0px;" class="animable"></path></g><path d="M166.839,149.06c7.104,0,17.194,7.111,17.194,7.111,0,0,1.446,7.57-5.634,14.222-7.081,6.652-13.473,7.707-17.416,5.127-3.943-2.581-5.039-12.616-5.039-12.616,.73-2.409,2.612-4.315,5.039-5.104,0,0,1.166-8.659,5.856-8.739Z" style="fill: rgb(38, 50, 56); transform-origin: 170.049px 162.938px 0px;" id="el3m3bu3q4ewf" class="animable"></path><g id="el15w3369609d"><path d="M178.399,170.392c-7.081,6.652-13.45,7.707-17.416,5.138-.691-.477-1.278-1.085-1.726-1.789-2.566-3.796-3.313-10.804-3.313-10.804,6.766,8.028,14.605-.264,15.689-5.861,.651-2.695-.018-5.534-1.808-7.673,4.666,.986,9.775,3.922,12.411,5.585,1.167,.7,1.796,1.147,1.796,1.147,0,0,1.446,7.604-5.634,14.256Z" style="isolation: isolate; opacity: 0.2; transform-origin: 170.049px 163.111px 0px;" class="animable"></path></g><g id="eljubd65uqv7c"><path d="M178.399,170.392c-7.081,6.652-13.45,7.707-17.416,5.138-.691-.477-1.278-1.085-1.726-1.789,7.092,2.076,15.538-1.376,20.075-7.581,2.406-3.212,3.448-7.218,2.905-11.171,1.166,.7,1.796,1.147,1.796,1.147,0,0,1.446,7.604-5.634,14.256Z" style="fill: rgb(255, 255, 255); isolation: isolate; opacity: 0.6; transform-origin: 171.706px 165.904px 0px;" class="animable"></path></g></g><g id="elvps6vwi7ry"><path d="M145.388,306.988s10.667,8.737,26.011,7.999c15.344-.738,36.298-9.648,36.298-9.648l-62.31,1.648Z" style="opacity: 0.2; transform-origin: 176.542px 310.185px 0px;" class="animable"></path></g><g id="elv76gcvrvk4n" style="transform-origin: 201.384px 255.249px 0px;" class="animable"><path d="M137.263,248.978s-6.007,21.544-1.746,27.713c4.261,6.169,17.767,0,17.767,0l1.371-29.288-17.392,1.575Z" style="fill: rgb(185, 121, 100); transform-origin: 144.322px 263.418px 0px;" id="elfgcde3owcp6" class="animable"></path><path d="M151.054,204.128s.534-.106,0,0c-5.374,1.068-7.347,7.579-8.926,12.116-3.407,9.794-8.881,32.236-8.881,32.236l22.774,2.82,7.438-23.038-12.406-24.135Z" style="fill: rgb(38, 50, 56); transform-origin: 148.353px 227.69px 0px;" id="elowgmbte4lh" class="animable"></path><path d="M198.995,277.994s13.542,2.048,15.244,2.789c1.702,.74,3.421,6.793,2.436,6.991-.986,.198-1.916,.505-2.436-1.815-.52-2.32-1.879-3.129-1.972-1.888-.094,1.241,.498,4.481-.924,4.477-.964-.003-1.256-.903-1.502-2.588s-.325-3.004-1.382-2.686,.405,5.106-1.504,5.275c-1.909,.169-1.563-5.859-3.495-3.441,0,0-1.57,2.32-4.465,0-1.267-1.015,0-7.112,0-7.112Z" style="fill: rgb(185, 121, 100); transform-origin: 207.698px 283.273px 0px;" id="elsf5y1qgwngf" class="animable"></path><path d="M198.243,204.542c-5.627-.511-23.872-3.745-47.189-.414l-5.237,79.303s-.813,12.166-2.974,22.62c23.579,9.177,51.602,6.253,67.507-1.77-.186,.333-.624-8.336-1.317-21.034-1.222-22.376-3.237-57.265-6.07-77.449-.077-.499-4.159-1.206-4.72-1.257Z" style="fill: rgb(38, 50, 56); transform-origin: 176.597px 257.188px 0px;" id="elcrn8gq1jj4d" class="animable"></path><path d="M167.306,202.993c.673-2.003,1.611-3.413,2.813-4.229l12.981,1.001,6.086,4.013-21.881-.784Z" style="fill: rgb(38, 50, 56); transform-origin: 178.246px 201.271px 0px;" id="el8y5q7pnu1h6" class="animable"></path><path d="M213.363,221.691l16.588,44.851,24.99,10.678-2.32,6.583s-31.008-.53-35.658-7.112c-6.005-8.499-14.903-31.934-14.903-31.934l11.303-23.066Z" style="fill: rgb(185, 121, 100); transform-origin: 228.501px 252.747px 0px;" id="elgk4b03faic5" class="animable"></path><path d="M200.797,205.421c-7.843,3.851-12.811,14.206,2.302,50.076l22.573-10.105c-3.235-8.356-5.319-14.995-10.533-26.566-7.431-16.466-14.342-13.404-14.342-13.404Z" style="fill: rgb(38, 50, 56); transform-origin: 209.491px 230.347px 0px;" id="elqk72pjkewro" class="animable"></path><path d="M251.553,276.691s13.542,2.048,15.244,2.789c1.702,.74,3.421,6.793,2.436,6.991s-1.916,.505-2.436-1.815c-.52-2.32-1.879-3.129-1.973-1.889-.094,1.241,.498,4.481-.924,4.477-.964-.003-1.256-.903-1.502-2.588-.246-1.685-.324-3.004-1.382-2.687-1.058,.317,.405,5.106-1.504,5.275-1.909,.169-1.564-5.859-3.495-3.441,0,0-1.57,2.32-4.465,0-1.267-1.015,0-7.112,0-7.112Z" style="fill: rgb(185, 121, 100); transform-origin: 260.255px 281.969px 0px;" id="ellizir7fv32" class="animable"></path></g><g id="elvhc5nlgkotk"><polygon points="148.354 250.352 149.533 227.16 143.523 249.753 148.354 250.352" style="isolation: isolate; opacity: 0.2; transform-origin: 146.528px 238.756px 0px;" class="animable"></polygon></g><g id="el3hi5ruurrr8"><polygon points="193.664 230.347 202.06 262.674 207.854 262.674 207.582 258.281 205.866 254.246 203.099 255.497 193.664 230.347" style="isolation: isolate; opacity: 0.2; transform-origin: 200.759px 246.511px 0px;" class="animable"></polygon></g></g></g><defs>     <filter id="active" height="200%">         <feMorphology in="SourceAlpha" result="DILATED" operator="dilate" radius="2"></feMorphology>                <feFlood flood-color="#32DFEC" flood-opacity="1" result="PINK"></feFlood>        <feComposite in="PINK" in2="DILATED" operator="in" result="OUTLINE"></feComposite>        <feMerge>            <feMergeNode in="OUTLINE"></feMergeNode>            <feMergeNode in="SourceGraphic"></feMergeNode>        </feMerge>    </filter>    <filter id="hover" height="200%">        <feMorphology in="SourceAlpha" result="DILATED" operator="dilate" radius="2"></feMorphology>                <feFlood flood-color="#ff0000" flood-opacity="0.5" result="PINK"></feFlood>        <feComposite in="PINK" in2="DILATED" operator="in" result="OUTLINE"></feComposite>        <feMerge>            <feMergeNode in="OUTLINE"></feMergeNode>            <feMergeNode in="SourceGraphic"></feMergeNode>        </feMerge>            <feColorMatrix type="matrix" values="0   0   0   0   0                0   1   0   0   0                0   0   0   0   0                0   0   0   1   0 "></feColorMatrix>    </filter></defs></svg>