<svg xmlns="http://www.w3.org/2000/svg" version="1.1" xmlns:xlink="http://www.w3.org/1999/xlink" xmlns:svgjs="http://svgjs.dev/svgjs" width="1500" height="975" viewBox="0 0 1500 975"><g transform="matrix(1,0,0,1,-0.7981396329939798,1.7675208778572369)"><svg viewBox="0 0 380 247" data-background-color="#eae5db" preserveAspectRatio="xMidYMid meet" height="975" width="1500" xmlns="http://www.w3.org/2000/svg" xmlns:xlink="http://www.w3.org/1999/xlink"><g id="tight-bounds" transform="matrix(1,0,0,1,0.20219537369180784,-0.032720715807755596)"><svg viewBox="0 0 379.5956092526164 247.2" height="247.2" width="379.5956092526164"><g><svg viewBox="0 0 397.4976 258.8581224990097" height="247.2" width="379.5956092526164"><g><rect width="397.4976" height="5.625345442298026" x="0" y="144.5601815491509" fill="#5f210b" opacity="1" stroke-width="0" stroke="transparent" fill-opacity="1" class="rect-yte-0" data-fill-palette-color="secondary" rx="1%" id="yte-0" data-palette-color="#5f210b"></rect></g><g transform="matrix(1,0,0,1,0.9887999999999693,164.91156218071077)"><svg viewBox="0 0 395.52000000000004 93.94656031829888" height="93.94656031829888" width="395.52000000000004"><g id="textblocktransform"><svg viewBox="0 0 395.52000000000004 93.94656031829888" height="93.94656031829888" width="395.52000000000004" id="textblock"><g><svg viewBox="0 0 395.52000000000004 62.378366243336245" height="62.378366243336245" width="395.52000000000004"><g transform="matrix(1,0,0,1,0,0)"><svg width="395.52000000000004" viewBox="-0.6035415499950001 -40.47682158029101 316.85520821664494 49.97942574694701" height="62.378366243336245" data-palette-color="#280d0a"><path d="M-0.54-1.54L8.01-35.11Q8.3-36.21 9.5-36.21L9.5-36.21 10.96-36.21Q11.55-36.21 11.83-35.75 12.11-35.3 11.96-34.64L11.96-34.64 8.5-21.19 20.41-21.19 23.95-35.11Q24.24-36.21 25.46-36.21L25.46-36.21 26.9-36.21Q27.51-36.21 27.78-35.75 28.05-35.3 27.91-34.64L27.91-34.64 19.36-1.1Q19.04 0 17.85 0L17.85 0 16.41 0Q15.8 0 15.53-0.45 15.26-0.9 15.41-1.54L15.41-1.54 19.56-17.75 7.64-17.75 3.39-1.1Q3.1 0 1.9 0L1.9 0 0.46 0Q-0.15 0-0.43-0.45-0.71-0.9-0.54-1.54L-0.54-1.54ZM35.91-1.44L39.38-13.11 34.81-5.44Q33.23-2.71 31.58-1.35 29.93 0 28.68 0L28.68 0 28.37 0Q26.83 0 25.95-1.7 25.07-3.39 25.83-6.1L25.83-6.1 30.93-24.71Q31.08-25.39 31.71-25.39L31.71-25.39 34.32-25.39Q35.08-25.39 34.71-24.19L34.71-24.19 29.66-6.86Q29.32-5.3 29.56-4.86L29.56-4.86Q30.12-4.05 32.08-7.01 34.03-9.96 42.16-24.71L42.16-24.71Q42.58-25.39 43.38-25.39L43.38-25.39 45.26-25.39Q45.58-25.39 45.77-25 45.97-24.61 45.82-24.1L45.82-24.1 39.77-1.29Q39.52 0 38.77 0L38.77 0 36.72 0Q35.52 0 35.91-1.44L35.91-1.44ZM56.83-25.29L56.83-25.29Q58.49-25.29 60.03-24.34L60.03-24.34Q60.32-25.34 61.08-25.34L61.08-25.34 62.79-25.39Q64.03-25.44 63.79-24.1L63.79-24.1Q62.64-19.51 56.44 2.49L56.44 2.49Q55.15 7.15 52.49 8.59L52.49 8.59Q51.09 9.45 50.31 9.5 49.53 9.55 47.94 8.64L47.94 8.64 42.84 5.76Q41.65 5.15 42.43 3.96L42.43 3.96 43.18 2.91Q43.99 2 44.84 2.49L44.84 2.49 50.39 5.91Q51.53 6.4 52.05 4.54L52.05 4.54 54.44-4.2Q53.34-2.34 51.98-1.1 50.63 0.15 49.78 0.15L49.78 0.15 49.68 0.15Q49.29 0.15 48.43-0.43 47.58-1 46.78-1.98 45.99-2.95 45.66-4.05 45.33-5.15 45.78-8.15 46.24-11.16 48.05-16.22 49.87-21.29 51.85-23.29 53.83-25.29 56.83-25.29ZM59.08-21.14L59.22-21.61Q56.73-23 55.06-21.8 53.39-20.61 51.72-16.08 50.04-11.55 49.57-9 49.09-6.45 49.16-5.54 49.24-4.64 50.06-4.22 50.87-3.81 52.8-6.01 54.73-8.2 56.09-11.71 57.44-15.21 59.08-21.14L59.08-21.14ZM64.1-7.25L64.1-7.25Q64.32-13.94 67.45-19.92 70.57-25.9 75.41-25.81L75.41-25.81Q77.92-25.66 79.31-23.29L79.31-23.29Q80.36-21.66 80.17-17.75L80.17-17.75Q79.97-10.35 76.12-4.05L76.12-4.05Q73.45 0.56 68.96 0.39L68.96 0.39Q67.38 0.34 66.01-1L66.01-1Q63.96-2.95 64.1-7.25ZM72.62-5.25L72.62-5.25Q76.02-10.6 76.21-17.21L76.21-17.21Q76.26-20.14 75.91-21.14 75.55-22.14 74.43-22.17 73.31-22.19 72.38-21.12 71.45-20.04 70.57-18.14L70.57-18.14Q68.35-13.7 68.16-7.74L68.16-7.74Q68.06-3.25 69.72-3.1L69.72-3.1Q71.16-3.05 72.62-5.25ZM91.62-39.36L91.62-39.36Q91.62-36.3 90.42-33.15L90.42-33.15Q87.69-26.2 85.63-26.2L85.63-26.2Q85.07-26.2 85.1-27 85.12-27.81 86.05-29.98 86.98-32.15 87.36-34.02 87.73-35.89 87.73-39.45L87.73-39.45Q87.73-40.45 88.98-40.45L88.98-40.45 90.42-40.45Q91.62-40.65 91.62-39.36ZM97.67-25.71L97.67-25.71 98.43-25.71Q100.13-25.71 101.57-24.4 103.01-23.1 103.92-21.19L103.92-21.19Q104.43-20.14 103.58-19.6L103.58-19.6 102.06-18.75Q101.01-17.99 100.57-18.99L100.57-18.99Q100.52-19.09 100.17-19.92 99.82-20.75 99.6-21.11 99.38-21.46 98.83-21.9 98.28-22.34 97.57-22.46L97.57-22.46Q96.33-22.19 95.23-20.8 94.13-19.41 94.13-16.85L94.13-16.85Q94.13-15.75 94.65-15.32 95.18-14.89 96.52-14.6L96.52-14.6 97.91-14.31Q100.96-13.65 100.96-9.25L100.96-9.25Q100.96-6.64 99.01-3.25L99.01-3.25Q98.08-1.66 96.47-0.55 94.86 0.56 92.98 0.56L92.98 0.56 92.61 0.56Q90.71 0.56 89.22-0.77 87.73-2.1 87.12-3.48 86.51-4.86 87.12-5.54L87.12-5.54 88.22-6.45Q88.73-6.96 89.33-6.91 89.93-6.86 90.15-6.03 90.37-5.2 91.37-4.03 92.37-2.86 93.22-2.81L93.22-2.81Q94.71-3.05 95.81-4.58 96.91-6.1 96.91-8.08 96.91-10.06 96.55-10.61 96.18-11.16 94.86-11.45L94.86-11.45 93.76-11.69Q91.83-12.16 91.03-13.31 90.22-14.45 90.22-16.41L90.22-16.41Q90.22-19.65 92.54-22.68 94.86-25.71 97.67-25.71ZM119.2-36.21L119.2-36.21 127.06-36.21Q131.09-36.21 133.14-34.5 135.19-32.79 135.24-29.47 135.29-26.15 134.02-22.64 132.75-19.14 130.45-17.49 128.16-15.84 125.4-15.42 122.64-14.99 120.05-14.94L120.05-14.94 116.49-1.1Q116.19 0 115 0L115 0 113.56 0Q112.95 0 112.67-0.45 112.38-0.9 112.56-1.54L112.56-1.54 120.49-32.79Q119.25-32.79 118.72-32.79 118.2-32.79 117.89-33.22 117.59-33.64 117.76-34.2L117.76-34.2 118.05-35.21Q118.15-35.6 118.5-35.9 118.85-36.21 119.2-36.21ZM124.54-32.74L124.54-32.74 120.91-18.41 123.69-18.55Q127.69-18.85 128.95-21.09 130.21-23.34 130.7-25.7 131.18-28.05 131.18-29.59L131.18-29.59Q131.18-32.54 127.79-32.69L127.79-32.69Q127.2-32.74 124.54-32.74ZM142.34-33.01L142.34-33.01 142.8-33.01Q143.63-33.01 144.34-32.25 145.05-31.49 145.05-30.52 145.05-29.54 144.32-28.85 143.58-28.15 142.48-28.15L142.48-28.15 142.09-28.15Q141.24-28.15 140.57-28.87 139.9-29.59 139.9-30.57 139.9-31.54 140.59-32.28 141.29-33.01 142.34-33.01ZM143.24-24.34L143.24-24.34 137.19-1.1Q136.89 0 135.7 0L135.7 0 134.23 0Q132.84 0 133.13-1.15L133.13-1.15 139.24-24.39Q139.48-25.39 140.63-25.39L140.63-25.39 142.29-25.39Q142.95-25.39 143.17-25.17 143.39-24.95 143.24-24.34ZM158.16-24.39L158.16-24.39Q158.35-25.56 159.3-25.56L159.3-25.56 160.45-25.61Q162.28-25.56 161.79-23.8L161.79-23.8 155.79-3.81Q157.35-4.96 158.89-7.1L158.89-7.1Q159.45-7.91 160.13-7.45L160.13-7.45 161.35-6.64Q162.14-6.1 161.6-5.4L161.6-5.4Q159.55-3 157.83-1.67 156.11-0.34 153.74 0.2L153.74 0.2Q153.05 0.29 152.83-0.34L152.83-0.34 151.91-3.1Q150.49-1.25 149.49-0.55 148.49 0.15 147.95 0.15L147.95 0.15 147.85 0.15Q147.44 0.15 146.62-0.43 145.8-1 145-1.93 144.19-2.86 143.84-3.96 143.48-5.05 143.89-7.95 144.29-10.84 146.17-16.04 148.05-21.24 150.03-23.29 152-25.34 154.98-25.29L154.98-25.29Q156.64-25.29 158.16-24.39ZM157.4-21.61L157.4-21.61Q154.74-23.1 153.07-21.67 151.39-20.24 149.79-15.84 148.2-11.45 147.72-8.95 147.24-6.45 147.32-5.54 147.39-4.64 148.2-4.22 149-3.81 150.87-5.86 152.74-7.91 154.14-11.47 155.54-15.04 157.4-21.61ZM172.05-23.95L168.29-11.35 173.49-19.95Q175.15-22.66 176.89-24.02 178.64-25.39 179.88-25.39L179.88-25.39 180.93-25.39Q181.74-25.39 182.19-25.12 182.64-24.85 182.92-23.9 183.2-22.95 182.64-21.09L182.64-21.09 177.05-0.71Q176.9 0 176.24 0L176.24 0 173.63 0Q172.9 0 173.24-1.2L173.24-1.2 178.49-18.36Q178.88-19.7 178.88-20.13 178.88-20.56 178.54-20.56 178.2-20.56 177.72-20.1 177.25-19.65 176.44-18.46L176.44-18.46Q175.49-17.09 174.14-14.92 172.8-12.74 170.75-9.55L170.75-9.55Q166.89-3.66 165.28-0.71L165.28-0.71Q164.89 0 164.09 0L164.09 0 162.69 0Q162.4 0 162.19-0.4 161.99-0.81 162.13-1.29L162.13-1.29 168.19-24.1Q168.43-25.39 169.19-25.39L169.19-25.39 171.24-25.39Q172.44-25.39 172.05-23.95L172.05-23.95ZM183.52-7.25L183.52-7.25Q183.74-13.94 186.86-19.92 189.99-25.9 194.82-25.81L194.82-25.81Q197.34-25.66 198.73-23.29L198.73-23.29Q199.78-21.66 199.58-17.75L199.58-17.75Q199.39-10.35 195.53-4.05L195.53-4.05Q192.87 0.56 188.38 0.39L188.38 0.39Q186.79 0.34 185.42-1L185.42-1Q183.37-2.95 183.52-7.25ZM192.04-5.25L192.04-5.25Q195.43-10.6 195.63-17.21L195.63-17.21Q195.68-20.14 195.32-21.14 194.97-22.14 193.84-22.17 192.72-22.19 191.79-21.12 190.87-20.04 189.99-18.14L189.99-18.14Q187.77-13.7 187.57-7.74L187.57-7.74Q187.47-3.25 189.13-3.1L189.13-3.1Q190.57-3.05 192.04-5.25ZM233.46-32.59L233.46-32.59 225.82-32.59 217.77-1.1Q217.47 0 216.25 0L216.25 0 214.81 0Q214.2 0 213.93-0.45 213.66-0.9 213.81-1.54L213.81-1.54 221.72-32.59 213.81-32.59Q212.37-32.59 212.71-33.74L212.71-33.74 213.05-35.21Q213.22-35.84 213.52-36.02 213.81-36.21 214.57-36.21L214.57-36.21 234.07-36.21Q235.61-36.21 235.27-34.79L235.27-34.79 235-33.64Q234.81-32.59 233.46-32.59ZM236.51-1.44L239.98-13.11 235.41-5.44Q233.83-2.71 232.18-1.35 230.53 0 229.29 0L229.29 0 228.97 0Q227.43 0 226.55-1.7 225.67-3.39 226.43-6.1L226.43-6.1 231.53-24.71Q231.68-25.39 232.31-25.39L232.31-25.39 234.93-25.39Q235.68-25.39 235.32-24.19L235.32-24.19 230.26-6.86Q229.92-5.3 230.17-4.86L230.17-4.86Q230.73-4.05 232.68-7.01 234.63-9.96 242.76-24.71L242.76-24.71Q243.18-25.39 243.98-25.39L243.98-25.39 245.86-25.39Q246.18-25.39 246.38-25 246.57-24.61 246.42-24.1L246.42-24.1 240.37-1.29Q240.13 0 239.37 0L239.37 0 237.32 0Q236.12 0 236.51-1.44L236.51-1.44ZM256.33-23.95L252.57-11.35 257.78-19.95Q259.44-22.66 261.18-24.02 262.93-25.39 264.17-25.39L264.17-25.39 265.22-25.39Q266.03-25.39 266.48-25.12 266.93-24.85 267.21-23.9 267.49-22.95 266.93-21.09L266.93-21.09 261.34-0.71Q261.19 0 260.53 0L260.53 0 257.92 0Q257.19 0 257.53-1.2L257.53-1.2 262.78-18.36Q263.17-19.7 263.17-20.13 263.17-20.56 262.83-20.56 262.49-20.56 262.01-20.1 261.53-19.65 260.73-18.46L260.73-18.46Q259.78-17.09 258.43-14.92 257.09-12.74 255.04-9.55L255.04-9.55Q251.18-3.66 249.57-0.71L249.57-0.71Q249.18 0 248.38 0L248.38 0 246.98 0Q246.69 0 246.48-0.4 246.28-0.81 246.42-1.29L246.42-1.29 252.48-24.1Q252.72-25.39 253.48-25.39L253.48-25.39 255.53-25.39Q256.73-25.39 256.33-23.95L256.33-23.95ZM276.11-33.01L276.11-33.01 276.57-33.01Q277.4-33.01 278.11-32.25 278.82-31.49 278.82-30.52 278.82-29.54 278.09-28.85 277.35-28.15 276.25-28.15L276.25-28.15 275.86-28.15Q275.01-28.15 274.34-28.87 273.67-29.59 273.67-30.57 273.67-31.54 274.36-32.28 275.06-33.01 276.11-33.01ZM277.01-24.34L277.01-24.34 270.96-1.1Q270.66 0 269.47 0L269.47 0 268 0Q266.61 0 266.9-1.15L266.9-1.15 273.01-24.39Q273.25-25.39 274.4-25.39L274.4-25.39 276.06-25.39Q276.72-25.39 276.94-25.17 277.16-24.95 277.01-24.34ZM287.02-23.95L283.26-11.35 288.46-19.95Q290.12-22.66 291.86-24.02 293.61-25.39 294.85-25.39L294.85-25.39 295.9-25.39Q296.71-25.39 297.16-25.12 297.61-24.85 297.89-23.9 298.18-22.95 297.61-21.09L297.61-21.09 292.02-0.71Q291.88 0 291.22 0L291.22 0 288.6 0Q287.87 0 288.21-1.2L288.21-1.2 293.46-18.36Q293.85-19.7 293.85-20.13 293.85-20.56 293.51-20.56 293.17-20.56 292.69-20.1 292.22-19.65 291.41-18.46L291.41-18.46Q290.46-17.09 289.12-14.92 287.77-12.74 285.72-9.55L285.72-9.55Q281.87-3.66 280.26-0.71L280.26-0.71Q279.86 0 279.06 0L279.06 0 277.67 0Q277.37 0 277.17-0.4 276.96-0.81 277.11-1.29L277.11-1.29 283.16-24.1Q283.4-25.39 284.16-25.39L284.16-25.39 286.21-25.39Q287.41-25.39 287.02-23.95L287.02-23.95ZM309.26-25.29L309.26-25.29Q310.92-25.29 312.46-24.34L312.46-24.34Q312.75-25.34 313.5-25.34L313.5-25.34 315.21-25.39Q316.46-25.44 316.21-24.1L316.21-24.1Q315.07-19.51 308.87 2.49L308.87 2.49Q307.57 7.15 304.91 8.59L304.91 8.59Q303.52 9.45 302.74 9.5 301.96 9.55 300.37 8.64L300.37 8.64 295.27 5.76Q294.07 5.15 294.85 3.96L294.85 3.96 295.61 2.91Q296.41 2 297.27 2.49L297.27 2.49 302.81 5.91Q303.96 6.4 304.47 4.54L304.47 4.54 306.86-4.2Q305.77-2.34 304.41-1.1 303.06 0.15 302.2 0.15L302.2 0.15 302.1 0.15Q301.71 0.15 300.86-0.43 300-1 299.21-1.98 298.42-2.95 298.09-4.05 297.76-5.15 298.21-8.15 298.66-11.16 300.48-16.22 302.3-21.29 304.28-23.29 306.25-25.29 309.26-25.29ZM311.5-21.14L311.65-21.61Q309.16-23 307.49-21.8 305.81-20.61 304.14-16.08 302.47-11.55 301.99-9 301.52-6.45 301.59-5.54 301.66-4.64 302.48-4.22 303.3-3.81 305.23-6.01 307.16-8.2 308.51-11.71 309.87-15.21 311.5-21.14L311.5-21.14Z" opacity="1" transform="matrix(1,0,0,1,0,0)" fill="#280d0a" class="wordmark-text-0" data-fill-palette-color="primary" id="text-0"></path></svg></g></svg></g><g transform="matrix(1,0,0,1,0,77.1044014325981)"><svg viewBox="0 0 395.52000000000004 16.842158885700787" height="16.842158885700787" width="395.52000000000004"><g transform="matrix(1,0,0,1,0,0)"><svg width="395.52000000000004" viewBox="2.35 -37.7 1140.14 48.550000000000004" height="16.842158885700787" data-palette-color="#5f210b"><path d="M7.1-21.05L3.05-21.05 2.35-34.55 7.8-34.55 7.1-21.05ZM16.7-21.05L12.65-21.05 11.95-34.55 17.4-34.55 16.7-21.05ZM58.61-35.25Q64.71-35.25 68.01-30.8 71.31-26.35 71.31-17.3L71.31-17.3Q71.31-8.35 68.01-3.8 64.71 0.75 58.61 0.75L58.61 0.75Q52.56 0.75 49.23-3.75 45.91-8.25 45.91-17.25L45.91-17.25Q45.91-26.15 49.23-30.7 52.56-35.25 58.61-35.25L58.61-35.25ZM58.61-30.45Q55.56-30.45 54.08-27.4 52.61-24.35 52.61-17.25L52.61-17.25Q52.61-10.1 54.11-7.13 55.61-4.15 58.61-4.15L58.61-4.15Q61.71-4.15 63.18-7.1 64.66-10.05 64.66-17.3L64.66-17.3Q64.66-24.4 63.16-27.43 61.66-30.45 58.61-30.45L58.61-30.45ZM112.72-26.45L118.77-26.45 111.87 0 104.62 0 97.52-26.45 103.87-26.45 108.22-4.95 112.72-26.45ZM164.92-13.85Q164.92-13.4 164.77-11.3L164.77-11.3 151.12-11.3Q151.32-7.2 152.55-5.58 153.77-3.95 156.02-3.95L156.02-3.95Q157.57-3.95 158.82-4.48 160.07-5 161.52-6.15L161.52-6.15 164.07-2.65Q160.57 0.75 155.67 0.75L155.67 0.75Q150.47 0.75 147.7-2.85 144.92-6.45 144.92-13L144.92-13Q144.92-19.55 147.57-23.35 150.22-27.15 155.07-27.15L155.07-27.15Q159.72-27.15 162.32-23.78 164.92-20.4 164.92-13.85L164.92-13.85ZM158.92-15.3L158.92-15.65Q158.92-19.4 158.02-21.13 157.12-22.85 155.12-22.85L155.12-22.85Q153.27-22.85 152.3-21.18 151.32-19.5 151.12-15.3L151.12-15.3 158.92-15.3ZM205.28-27.1Q206.43-27.1 207.33-26.75L207.33-26.75 206.33-20.85Q205.33-21.1 204.48-21.1L204.48-21.1Q202.58-21.1 201.48-19.45 200.38-17.8 199.78-14.55L199.78-14.55 199.78 0 193.63 0 193.63-26.45 198.98-26.45 199.43-21.85Q201.28-27.1 205.28-27.1L205.28-27.1ZM284.95-12.5L288.1-12.5 288.1-7.8 284.95-7.8 284.95 0 279.15 0 279.15-7.8 267.15-7.8 267.15-12.05 275.1-34.35 280.3-32.45 273.35-12.5 279.2-12.5 279.9-21.05 284.95-21.05 284.95-12.5ZM326-34.25Q331.05-34.25 333.65-29.9 336.25-25.55 336.25-16.8L336.25-16.8Q336.25 0.75 326 0.75L326 0.75Q315.65 0.75 315.65-16.8L315.65-16.8Q315.65-34.25 326-34.25L326-34.25ZM326-29.6Q324.55-29.6 323.68-28.48 322.8-27.35 322.38-24.58 321.95-21.8 321.95-16.8L321.95-16.8Q321.95-11.75 322.38-8.97 322.8-6.2 323.68-5.08 324.55-3.95 326-3.95L326-3.95Q327.45-3.95 328.3-5.08 329.15-6.2 329.55-8.97 329.95-11.75 329.95-16.8L329.95-16.8Q329.95-21.85 329.55-24.6 329.15-27.35 328.3-28.48 327.45-29.6 326-29.6L326-29.6ZM415.02-34.55L421.52-34.55 412.42-13.15 412.42 0 406.02 0 406.02-13.1 396.92-34.55 403.67-34.55 409.32-18.3 415.02-34.55ZM467.38-13.85Q467.38-13.4 467.23-11.3L467.23-11.3 453.58-11.3Q453.78-7.2 455-5.58 456.23-3.95 458.48-3.95L458.48-3.95Q460.03-3.95 461.28-4.48 462.53-5 463.98-6.15L463.98-6.15 466.53-2.65Q463.03 0.75 458.13 0.75L458.13 0.75Q452.93 0.75 450.15-2.85 447.38-6.45 447.38-13L447.38-13Q447.38-19.55 450.03-23.35 452.68-27.15 457.53-27.15L457.53-27.15Q462.18-27.15 464.78-23.78 467.38-20.4 467.38-13.85L467.38-13.85ZM461.38-15.3L461.38-15.65Q461.38-19.4 460.48-21.13 459.58-22.85 457.58-22.85L457.58-22.85Q455.73-22.85 454.75-21.18 453.78-19.5 453.58-15.3L453.58-15.3 461.38-15.3ZM512.99-6.4Q512.99-5.1 513.34-4.48 513.69-3.85 514.49-3.45L514.49-3.45 513.24 0.65Q511.19 0.4 509.96-0.45 508.74-1.3 508.14-3.05L508.14-3.05Q505.84 0.75 501.69 0.75L501.69 0.75Q498.39 0.75 496.44-1.48 494.49-3.7 494.49-7.4L494.49-7.4Q494.49-11.7 497.16-13.95 499.84-16.2 504.94-16.2L504.94-16.2 506.99-16.2 506.99-18.05Q506.99-20.55 506.11-21.58 505.24-22.6 503.29-22.6L503.29-22.6Q500.94-22.6 497.44-21.3L497.44-21.3 496.04-25.3Q498.04-26.2 500.19-26.68 502.34-27.15 504.29-27.15L504.29-27.15Q512.99-27.15 512.99-18.35L512.99-18.35 512.99-6.4ZM503.34-3.7Q505.74-3.7 506.99-7L506.99-7 506.99-12.55 505.54-12.55Q502.99-12.55 501.81-11.4 500.64-10.25 500.64-7.85L500.64-7.85Q500.64-5.8 501.34-4.75 502.04-3.7 503.34-3.7L503.34-3.7ZM554.84-27.1Q555.99-27.1 556.89-26.75L556.89-26.75 555.89-20.85Q554.89-21.1 554.04-21.1L554.04-21.1Q552.14-21.1 551.04-19.45 549.94-17.8 549.34-14.55L549.34-14.55 549.34 0 543.19 0 543.19-26.45 548.54-26.45 548.99-21.85Q550.84-27.1 554.84-27.1L554.84-27.1ZM591.5-27.15Q596.2-27.15 599.45-24.05L599.45-24.05 597.1-20.7Q595.7-21.7 594.45-22.2 593.2-22.7 591.9-22.7L591.9-22.7Q590.45-22.7 589.63-21.93 588.8-21.15 588.8-19.8L588.8-19.8Q588.8-18.45 589.73-17.63 590.65-16.8 593.45-15.7L593.45-15.7Q596.9-14.35 598.55-12.5 600.2-10.65 600.2-7.55L600.2-7.55Q600.2-3.7 597.5-1.48 594.8 0.75 590.65 0.75L590.65 0.75Q587.95 0.75 585.68-0.23 583.4-1.2 581.7-2.95L581.7-2.95 584.7-6.25Q587.5-3.8 590.4-3.8L590.4-3.8Q592.05-3.8 593-4.67 593.95-5.55 593.95-7.1L593.95-7.1Q593.95-8.25 593.55-8.97 593.15-9.7 592.15-10.33 591.15-10.95 589.15-11.7L589.15-11.7Q585.7-13.05 584.23-14.85 582.75-16.65 582.75-19.45L582.75-19.45Q582.75-22.8 585.13-24.98 587.5-27.15 591.5-27.15L591.5-27.15ZM672.12-27.15Q677.12-27.15 679.89-23.65 682.67-20.15 682.67-13.25L682.67-13.25Q682.67-6.65 679.87-2.95 677.07 0.75 672.12 0.75L672.12 0.75Q667.17 0.75 664.37-2.88 661.57-6.5 661.57-13.25L661.57-13.25Q661.57-19.95 664.37-23.55 667.17-27.15 672.12-27.15L672.12-27.15ZM672.12-22.5Q669.97-22.5 668.97-20.38 667.97-18.25 667.97-13.25L667.97-13.25Q667.97-8.2 668.97-6.08 669.97-3.95 672.12-3.95L672.12-3.95Q674.27-3.95 675.27-6.08 676.27-8.2 676.27-13.25L676.27-13.25Q676.27-18.3 675.27-20.4 674.27-22.5 672.12-22.5L672.12-22.5ZM721.32-33.05Q719.92-33.05 719.25-32.3 718.57-31.55 718.57-30L718.57-30 718.57-26.45 723.62-26.45 722.92-22 718.57-22 718.57 0 712.42 0 712.42-22 709.12-22 709.12-26.45 712.42-26.45 712.42-29.8Q712.42-33.4 714.52-35.55 716.62-37.7 720.52-37.7L720.52-37.7Q723.57-37.7 726.42-36.2L726.42-36.2 724.72-32.2Q722.97-33.05 721.32-33.05L721.32-33.05ZM806.94 0L800.54 0 800.54-15.5 791.59-15.5 791.59 0 785.24 0 785.24-34.55 791.59-34.55 791.59-20.6 800.54-20.6 800.54-34.55 806.94-34.55 806.94 0ZM854.05-6.4Q854.05-5.1 854.4-4.48 854.75-3.85 855.55-3.45L855.55-3.45 854.3 0.65Q852.25 0.4 851.02-0.45 849.8-1.3 849.2-3.05L849.2-3.05Q846.9 0.75 842.75 0.75L842.75 0.75Q839.45 0.75 837.5-1.48 835.55-3.7 835.55-7.4L835.55-7.4Q835.55-11.7 838.22-13.95 840.9-16.2 846-16.2L846-16.2 848.05-16.2 848.05-18.05Q848.05-20.55 847.17-21.58 846.3-22.6 844.35-22.6L844.35-22.6Q842-22.6 838.5-21.3L838.5-21.3 837.1-25.3Q839.1-26.2 841.25-26.68 843.4-27.15 845.35-27.15L845.35-27.15Q854.05-27.15 854.05-18.35L854.05-18.35 854.05-6.4ZM844.4-3.7Q846.8-3.7 848.05-7L848.05-7 848.05-12.55 846.6-12.55Q844.05-12.55 842.87-11.4 841.7-10.25 841.7-7.85L841.7-7.85Q841.7-5.8 842.4-4.75 843.1-3.7 844.4-3.7L844.4-3.7ZM895.91-27.1Q897.06-27.1 897.96-26.75L897.96-26.75 896.96-20.85Q895.96-21.1 895.11-21.1L895.11-21.1Q893.21-21.1 892.11-19.45 891.01-17.8 890.41-14.55L890.41-14.55 890.41 0 884.26 0 884.26-26.45 889.61-26.45 890.06-21.85Q891.91-27.1 895.91-27.1L895.91-27.1ZM948.86-27.15Q951.51-27.15 953.11-25.1 954.71-23.05 954.71-19.6L954.71-19.6 954.71 0 948.66 0 948.66-18.95Q948.66-20.85 948.16-21.68 947.66-22.5 946.71-22.5L946.71-22.5Q944.76-22.5 942.96-18.8L942.96-18.8 942.96 0 936.96 0 936.96-18.95Q936.96-22.5 935.06-22.5L935.06-22.5Q933.01-22.5 931.26-18.8L931.26-18.8 931.26 0 925.21 0 925.21-26.45 930.56-26.45 930.96-23.05Q933.56-27.15 937.21-27.15L937.21-27.15Q939.06-27.15 940.41-26 941.76-24.85 942.46-22.75L942.46-22.75Q945.11-27.15 948.86-27.15L948.86-27.15ZM994.02-27.15Q999.02-27.15 1001.8-23.65 1004.57-20.15 1004.57-13.25L1004.57-13.25Q1004.57-6.65 1001.77-2.95 998.97 0.75 994.02 0.75L994.02 0.75Q989.07 0.75 986.27-2.88 983.47-6.5 983.47-13.25L983.47-13.25Q983.47-19.95 986.27-23.55 989.07-27.15 994.02-27.15L994.02-27.15ZM994.02-22.5Q991.87-22.5 990.87-20.38 989.87-18.25 989.87-13.25L989.87-13.25Q989.87-8.2 990.87-6.08 991.87-3.95 994.02-3.95L994.02-3.95Q996.17-3.95 997.17-6.08 998.17-8.2 998.17-13.25L998.17-13.25Q998.17-18.3 997.17-20.4 996.17-22.5 994.02-22.5L994.02-22.5ZM1045.88-27.15Q1048.73-27.15 1050.38-25.1 1052.03-23.05 1052.03-19.6L1052.03-19.6 1052.03 0 1045.88 0 1045.88-18.9Q1045.88-20.8 1045.35-21.63 1044.83-22.45 1043.83-22.45L1043.83-22.45Q1041.73-22.45 1039.68-18.5L1039.68-18.5 1039.68 0 1033.53 0 1033.53-26.45 1038.88-26.45 1039.33-23Q1040.68-25.1 1042.2-26.13 1043.73-27.15 1045.88-27.15L1045.88-27.15ZM1100.64-26.45L1093.64 0.1Q1092.34 4.9 1089.44 7.65 1086.54 10.4 1081.69 10.85L1081.69 10.85 1080.99 6.5Q1084.14 5.85 1085.71 4.42 1087.29 3 1088.19 0L1088.19 0 1085.89 0 1079.19-26.45 1085.44-26.45 1089.84-4.1 1094.54-26.45 1100.64-26.45ZM1132.19-21.05L1128.14-21.05 1127.44-34.55 1132.89-34.55 1132.19-21.05ZM1141.79-21.05L1137.74-21.05 1137.04-34.55 1142.49-34.55 1141.79-21.05Z" opacity="1" transform="matrix(1,0,0,1,0,0)" fill="#5f210b" class="slogan-text-1" data-fill-palette-color="secondary" id="text-1"></path></svg></g></svg></g></svg></g></svg></g><g transform="matrix(1,0,0,1,122.50984050457056,0)"><svg viewBox="0 0 152.47791899085885 129.83414635988908" height="129.83414635988908" width="152.47791899085885"><g><svg xmlns="http://www.w3.org/2000/svg" xmlns:xlink="http://www.w3.org/1999/xlink" version="1.1" x="8" y="0" viewBox="3.202 4.861 95.09000040413275 90.461" enable-background="new 0 0 100 100" xml:space="preserve" height="129.83414635988908" width="136.47791899085885" class="icon-icon-0" data-fill-palette-color="accent" id="icon-0"><g fill="#90451c" data-fill-palette-color="accent"><path d="M9.767 4.862V63.586C9.767 64.174 10.248 64.654 10.835 64.654H17.479C18.066 64.654 18.547 64.174 18.547 63.586V4.862zM16.945 64.012H11.37A0.918 0.918 0 0 1 10.438 62.952S10.713 60.945 10.836 59.848 11.737 58.462 12.082 58.462H16.233C16.578 58.462 17.344 58.797 17.479 59.85L17.877 62.954A0.916 0.916 0 0 1 16.945 64.012" fill="#90451c" data-fill-palette-color="accent"></path></g><g fill="#90451c" data-fill-palette-color="accent"><path d="M26.958 4.862V63.586C26.958 64.174 27.439 64.654 28.026 64.654H34.67C35.257 64.654 35.738 64.174 35.738 63.586V4.862zM34.136 64.012H28.561A0.918 0.918 0 0 1 27.629 62.952S27.904 60.945 28.027 59.848 28.928 58.462 29.273 58.462H33.424C33.769 58.462 34.535 58.797 34.67 59.85L35.068 62.954A0.916 0.916 0 0 1 34.136 64.012" fill="#90451c" data-fill-palette-color="accent"></path></g><g fill="#90451c" data-fill-palette-color="accent"><path d="M50.368 4.862V63.586A1.07 1.07 0 0 0 51.435 64.654H58.08C58.667 64.654 59.148 64.174 59.148 63.586V4.862zM57.546 64.012H51.971A0.92 0.92 0 0 1 51.039 62.952S51.314 60.945 51.437 59.848C51.559 58.75 52.337 58.462 52.683 58.462H56.833C57.179 58.462 57.944 58.797 58.079 59.85L58.477 62.954C58.555 63.535 58.135 64.012 57.546 64.012" fill="#90451c" data-fill-palette-color="accent"></path></g><g fill="#90451c" data-fill-palette-color="accent"><path d="M65.757 4.862V63.586A1.07 1.07 0 0 0 66.824 64.654H73.469C74.056 64.654 74.537 64.174 74.537 63.586V4.862zM72.935 64.012H67.36A0.92 0.92 0 0 1 66.428 62.952S66.703 60.945 66.826 59.848C66.948 58.75 67.726 58.462 68.072 58.462H72.222C72.568 58.462 73.333 58.797 73.468 59.85L73.866 62.954A0.915 0.915 0 0 1 72.935 64.012" fill="#90451c" data-fill-palette-color="accent"></path></g><g fill="#90451c" data-fill-palette-color="accent"><path d="M82.614 4.862V63.586A1.07 1.07 0 0 0 83.681 64.654H90.326C90.913 64.654 91.394 64.174 91.394 63.586V4.862zM89.792 64.012H84.217A0.92 0.92 0 0 1 83.285 62.952S83.56 60.945 83.683 59.848C83.805 58.75 84.583 58.462 84.929 58.462H89.079C89.425 58.462 90.19 58.797 90.325 59.85L90.723 62.954C90.801 63.535 90.381 64.012 89.792 64.012" fill="#90451c" data-fill-palette-color="accent"></path></g><rect x="19.345" y="4.862" width="6.815" height="0.356" fill="#90451c" data-fill-palette-color="accent"></rect><rect x="59.979" y="4.868" width="4.96" height="0.345" fill="#90451c" data-fill-palette-color="accent"></rect><rect x="75.365" y="4.868" width="6.482" height="0.345" fill="#90451c" data-fill-palette-color="accent"></rect><path d="M97.053 4.868H92.344V5.213H97.053C97.547 5.213 97.949 5.615 97.949 6.109V94.076A0.896 0.896 0 0 1 97.053 94.972H85.656A0.897 0.897 0 0 1 84.76 94.076V65.375H84.414V94.076L84.415 94.081A0.896 0.896 0 0 1 83.519 94.973H72.124A0.897 0.897 0 0 1 71.228 94.077V65.375H70.881V94.076L70.882 94.078A0.9 0.9 0 0 1 69.986 94.973H58.59A0.897 0.897 0 0 1 57.694 94.077V65.375H57.347V94.076H57.348C57.348 94.57 56.948 94.972 56.452 94.972H45.056A0.897 0.897 0 0 1 44.16 94.076V6.109C44.16 5.615 44.562 5.213 45.056 5.213H49.481V4.868H45.056A1.23 1.23 0 0 0 43.988 5.514 1.23 1.23 0 0 0 42.912 4.861H36.566V5.217H42.912A0.89 0.89 0 0 1 43.802 6.107V94.074A0.89 0.89 0 0 1 42.912 94.965H31.516A0.89 0.89 0 0 1 30.626 94.074V65.374H30.27V94.075H30.269C30.269 94.565 29.87 94.966 29.379 94.966H17.982A0.89 0.89 0 0 1 17.092 94.075V65.375H16.736V94.076C16.736 94.566 16.337 94.967 15.846 94.967H4.449A0.89 0.89 0 0 1 3.559 94.076V6.109A0.89 0.89 0 0 1 4.449 5.219H8.756V4.862H4.449C3.761 4.862 3.202 5.421 3.202 6.109V94.076C3.202 94.764 3.761 95.322 4.449 95.322H15.845C16.31 95.322 16.699 95.056 16.914 94.679 17.128 95.056 17.518 95.322 17.983 95.322H29.379C29.844 95.322 30.233 95.056 30.448 94.679 30.662 95.056 31.052 95.322 31.517 95.322H42.913C43.381 95.322 43.775 95.052 43.988 94.671 44.2 95.05 44.591 95.317 45.055 95.317H56.451A1.23 1.23 0 0 0 57.519 94.671C57.731 95.05 58.123 95.317 58.587 95.317H69.984C70.45 95.317 70.84 95.049 71.052 94.671 71.265 95.051 71.656 95.317 72.12 95.317H83.52C83.985 95.317 84.375 95.049 84.587 94.671 84.8 95.05 85.191 95.317 85.655 95.317H97.051C97.737 95.317 98.292 94.76 98.292 94.077V6.109A1.24 1.24 0 0 0 97.053 4.868" fill="#90451c" data-fill-palette-color="accent"></path></svg></g></svg></g><g><rect width="41.05608376362903" height="5.625345442298026" y="123.20880091759105" x="274.98775949542943" fill="#5f210b" data-fill-palette-color="secondary"></rect><rect width="41.05608376362903" height="5.625345442298026" y="123.20880091759105" x="81.45375674094153" fill="#5f210b" data-fill-palette-color="secondary"></rect></g></svg></g><defs></defs></svg><rect width="379.5956092526164" height="247.2" fill="none" stroke="none" visibility="hidden"></rect></g></svg></g></svg>