<svg xmlns="http://www.w3.org/2000/svg" viewBox="0 0 500 500"><g id="freepik--background-complete--inject-76"><rect y="382.4" width="500" height="0.25" style="fill:#ebebeb"></rect><rect x="423.67" y="398.49" width="26.23" height="0.25" style="fill:#ebebeb"></rect><rect x="322.53" y="395.24" width="34.23" height="0.25" style="fill:#ebebeb"></rect><rect x="389.33" y="389.21" width="26.44" height="0.25" style="fill:#ebebeb"></rect><rect x="67.7" y="390.89" width="43.19" height="0.25" style="fill:#ebebeb"></rect><rect x="52.46" y="390.89" width="6.33" height="0.25" style="fill:#ebebeb"></rect><rect x="131.47" y="395.11" width="56.2" height="0.25" style="fill:#ebebeb"></rect><path d="M237,337.8H43.91a5.71,5.71,0,0,1-5.7-5.71V60.66A5.71,5.71,0,0,1,43.91,55H237a5.71,5.71,0,0,1,5.71,5.71V332.09A5.71,5.71,0,0,1,237,337.8ZM43.91,55.2a5.46,5.46,0,0,0-5.45,5.46V332.09a5.46,5.46,0,0,0,5.45,5.46H237a5.47,5.47,0,0,0,5.46-5.46V60.66A5.47,5.47,0,0,0,237,55.2Z" style="fill:#ebebeb"></path><path d="M453.31,337.8H260.21a5.72,5.72,0,0,1-5.71-5.71V60.66A5.72,5.72,0,0,1,260.21,55h193.1A5.71,5.71,0,0,1,459,60.66V332.09A5.71,5.71,0,0,1,453.31,337.8ZM260.21,55.2a5.47,5.47,0,0,0-5.46,5.46V332.09a5.47,5.47,0,0,0,5.46,5.46h193.1a5.47,5.47,0,0,0,5.46-5.46V60.66a5.47,5.47,0,0,0-5.46-5.46Z" style="fill:#ebebeb"></path><rect x="68.86" y="73.27" width="362.41" height="225.41" style="fill:#fafafa"></rect><polygon points="267.31 298.68 222.04 298.68 291.83 73.27 337.1 73.27 267.31 298.68" style="fill:#fff"></polygon><polygon points="292.7 298.68 277.56 298.68 347.36 73.27 362.5 73.27 292.7 298.68" style="fill:#fff"></polygon><polygon points="138.04 298.68 122.91 298.68 192.7 73.27 207.84 73.27 138.04 298.68" style="fill:#fff"></polygon><path d="M64.48,68.05V303.89H435.64V68.05ZM427.76,296.32H72.36V75.63h355.4Z" style="fill:#ebebeb"></path><rect x="237.49" y="72.45" width="25.14" height="228.39" style="fill:#ebebeb"></rect><rect x="68.86" y="231.74" width="362.41" height="8.77" style="fill:#ebebeb"></rect><rect x="241.34" y="72.45" width="2.27" height="228.39" style="fill:#e0e0e0"></rect><rect x="257.83" y="72.45" width="0.61" height="228.39" style="fill:#f0f0f0"></rect><path d="M58.75,71.22V362.78A8.38,8.38,0,0,0,67.29,371h0a26,26,0,0,0,25.53-30.63L77.66,257.79C113.73,210.51,139.93,142,161.27,63h-94A8.38,8.38,0,0,0,58.75,71.22Z" style="fill:#e6e6e6"></path><path d="M76.26,265H61.74a7.27,7.27,0,0,1-7.25-7.25h0a7.27,7.27,0,0,1,7.25-7.25H76.26a7.27,7.27,0,0,1,7.25,7.25h0A7.27,7.27,0,0,1,76.26,265Z" style="fill:#f5f5f5"></path><path d="M439.63,71.22V362.78a8.39,8.39,0,0,1-8.55,8.22h0a26,26,0,0,1-25.52-30.63l15.16-82.58C384.65,210.51,358.45,142,337.1,63h94A8.39,8.39,0,0,1,439.63,71.22Z" style="fill:#e6e6e6"></path><path d="M422.12,265h14.52a7.27,7.27,0,0,0,7.25-7.25h0a7.27,7.27,0,0,0-7.25-7.25H422.12a7.27,7.27,0,0,0-7.25,7.25h0A7.27,7.27,0,0,0,422.12,265Z" style="fill:#f5f5f5"></path></g><g id="freepik--Shadow--inject-76"><ellipse id="freepik--path--inject-76" cx="250" cy="416.24" rx="193.89" ry="11.32" style="fill:#f5f5f5"></ellipse></g><g id="freepik--Notes--inject-76"><path d="M148.75,191.22a3.12,3.12,0,0,0-1.93-.5,2.9,2.9,0,0,1-2.13-.73l-.08-.24a.17.17,0,0,0-.22-.1.18.18,0,0,0-.14.2l3,9.21a2.35,2.35,0,0,0-.81-.19,4.69,4.69,0,0,0-2.08.4c-1.47.64-2.33,1.81-1.92,2.6s1.56.87,2.82.5a4.57,4.57,0,0,0,.62-.22,4.08,4.08,0,0,0,1.65-1.21,1.28,1.28,0,0,0,.28-1.36h0l-2.07-6.46a3.13,3.13,0,0,0,2,.54,2.84,2.84,0,0,1,2.22.8.14.14,0,0,0,.14,0h0a.12.12,0,0,0,.06-.14l-.73-2.28A1.58,1.58,0,0,0,148.75,191.22Z" style="fill:#5F210B"></path><path d="M425.23,131.86a4.29,4.29,0,0,0-2.51-1.59,3.9,3.9,0,0,1-2.68-2l0-.39a.25.25,0,0,0-.27-.25.3.3,0,0,0-.31.25l-1.08,15.33a2.93,2.93,0,0,0-1.07-.64,6.75,6.75,0,0,0-3.25-.26c-2.52.35-4.45,1.76-4.3,3.15.12,1.2,1.74,2,3.8,2a7.37,7.37,0,0,0,1-.08,7.08,7.08,0,0,0,3.1-1.14,2.34,2.34,0,0,0,1.2-2h0l.76-10.74a4.26,4.26,0,0,0,2.54,1.65,3.91,3.91,0,0,1,2.76,2.16.19.19,0,0,0,.19.1h.05a.23.23,0,0,0,.19-.19l.26-3.79A2.29,2.29,0,0,0,425.23,131.86Z" style="fill:#5F210B"></path><path d="M205.72,194.09a3,3,0,0,1,1.87,2.15.16.16,0,0,0,.14.11h0a.19.19,0,0,0,.18-.13l.56-2a1.9,1.9,0,0,0-.1-1.33,3.25,3.25,0,0,0-1.76-1.65,3,3,0,0,1-1.82-2l.09-.32a.19.19,0,0,0-.18-.24.28.28,0,0,0-.3.17l-3.52,12.64a2.25,2.25,0,0,0-.75-.67,5.55,5.55,0,0,0-2.6-.63,6,6,0,0,0-2.71.57,2.1,2.1,0,0,0-1.32,1.52,1.65,1.65,0,0,0,1,1.55,4.83,4.83,0,0,0,1.73.57,8.1,8.1,0,0,0,.86.06c2.09,0,3.88-.9,4-2.06h0l1.51-5.4a3.26,3.26,0,0,0,1.78,1.69,3,3,0,0,1,1.87,2.15.15.15,0,0,0,.13.11h.05a.2.2,0,0,0,.18-.13l.55-2a1.9,1.9,0,0,0-.09-1.33,3.28,3.28,0,0,0-1.76-1.65,3,3,0,0,1-1.82-2l.38-1.38A3.3,3.3,0,0,0,205.72,194.09Z" style="fill:#5F210B"></path><path d="M186.47,174.63h0l-.8-7.78-.29-2.9,0-.17L176,165.07l0,.16.29,2.9.73,7.12a3.82,3.82,0,0,0-3-.24c-1.62.44-2.74,1.51-2.49,2.4s1.39,1.15,2.74,1a5.32,5.32,0,0,0,.67-.14c1.62-.43,2.73-1.48,2.5-2.37h0l-.68-6.68L185.4,168l.61,6a2.16,2.16,0,0,0-.78-.32,4.67,4.67,0,0,0-2.18.09c-1.63.44-2.75,1.51-2.49,2.4s1.38,1.14,2.74,1A5.72,5.72,0,0,0,184,177C185.58,176.57,186.69,175.51,186.47,174.63Zm-9.72-5.78-.08-.77,8.62-1.18.08.78Z" style="fill:#5F210B"></path><path d="M397.68,148.38h0l-4.39-7.32-1.64-2.74-.09-.15-9.12,4.38.09.15,1.64,2.74,4,6.7a4.29,4.29,0,0,0-3.17.76c-1.49,1-2.15,2.38-1.48,3.16s2,.66,3.27,0a5.67,5.67,0,0,0,.63-.36c1.47-.95,2.14-2.36,1.5-3.14h0l-4.39-7.33,8.38-4,4,6.7a4.28,4.28,0,0,0-3.18.76,4.23,4.23,0,0,0-1.53,1.61,1.35,1.35,0,0,0,.06,1.55,1.89,1.89,0,0,0,1.69.49,4.75,4.75,0,0,0,1.57-.46,4.53,4.53,0,0,0,.64-.36C397.65,150.56,398.32,149.16,397.68,148.38Z" style="fill:#5F210B"></path></g><g id="freepik--character-2--inject-76"><path d="M312.64,136.19c-4.89,2.38-5.57,9.82-4.54,16.71s-9,7.42-10.89,3.76c1.63,7,10.6,11.91,16.41,10.53-4.49,1.75-12.58.56-12.58.56A46.31,46.31,0,0,0,316,172.21c7.27.67,23.55-3.08,25.81-9.92a13.8,13.8,0,0,1-.81,6.15,11.62,11.62,0,0,0,5.58-12.8c3.08,3.77,3,5.08,3,5.08s2.2-13.17-3.2-21.14c4.14,4.26,4.77,5.68,4.77,5.68s.57-15.22-13.87-16.48c-3.58-5.39-21.76-5.52-29.05,9.29A10.59,10.59,0,0,1,312.64,136.19Z" style="fill:#263238"></path><polygon points="308.94 354.11 313.43 361.65 333.56 349.64 329.07 342.09 308.94 354.11" style="fill:#ffc3bd"></polygon><path d="M318.61,359.35l-4.82-8.66a.7.7,0,0,0-.87-.32l-7.4,2.83a1.42,1.42,0,0,0-.68,2c1.73,3,2.72,4.34,4.84,8.15,1.31,2.34,3.85,7.71,5.66,10.95s5.09,1.62,4.63.11c-2.07-6.76-1.69-10.53-1.11-13.51A2.3,2.3,0,0,0,318.61,359.35Z" style="fill:#263238"></path><polygon points="329.07 342.09 333.56 349.64 324.45 355.07 319.99 347.52 329.07 342.09" style="opacity:0.2"></polygon><path d="M361.14,224.72s42.29,72.47,31.67,84.32c-18.61,20.77-61.19,44.41-61.19,44.41l-8.58-9s35.51-33.5,48.84-47c-5.33-16.22-35.9-33.86-38.43-68.6Z" style="fill:#5F210B"></path><polygon points="328.59 357.16 321.04 343.91 325.88 340.17 333.82 354.48 328.59 357.16" style="fill:#263238"></polygon><path d="M321.57,364.8a1,1,0,0,1-.34,0c-1.1-.1-2.23-1.82-2.8-2.83a.17.17,0,0,1,0-.19.18.18,0,0,1,.18-.07c.35.09,3.42.88,3.77,1.93a.7.7,0,0,1-.14.67A1.24,1.24,0,0,1,321.57,364.8Zm-2.63-2.61c.84,1.39,1.69,2.24,2.32,2.29a.82.82,0,0,0,.72-.36.33.33,0,0,0,.08-.34C321.85,363.14,320,362.49,318.94,362.19Z" style="fill:#5F210B"></path><path d="M321.35,362.05a6.24,6.24,0,0,1-2.82,0,.18.18,0,0,1-.12-.13.22.22,0,0,1,0-.17c.08-.07,1.94-1.77,3.2-1.64a1,1,0,0,1,.78.44.69.69,0,0,1,.05.87A2,2,0,0,1,321.35,362.05Zm-2.4-.23c1,.17,2.86,0,3.26-.57.07-.09.12-.23,0-.47a.69.69,0,0,0-.53-.3C320.77,360.39,319.49,361.37,319,361.82Z" style="fill:#5F210B"></path><path d="M367.53,181.12c1.26,3.94,2.71,8.07,4.28,12,.78,2,1.63,3.9,2.52,5.75a48,48,0,0,0,2.93,5.27l.65,1a1.2,1.2,0,0,0,.27.31,1.94,1.94,0,0,0,1.15.39,12.48,12.48,0,0,0,4.91-1,60.37,60.37,0,0,0,10.94-6l3,3.36a45.35,45.35,0,0,1-11,8.86,18.35,18.35,0,0,1-7.79,2.46,9.92,9.92,0,0,1-5.22-1.12,9.3,9.3,0,0,1-2.3-1.76c-.17-.17-.31-.34-.47-.52s-.21-.26-.31-.4l-.58-.74a44.84,44.84,0,0,1-3.93-6.08c-1.16-2.06-2.17-4.15-3.1-6.26s-1.8-4.24-2.57-6.39-1.5-4.28-2.13-6.6Z" style="fill:#ffc3bd"></path><path d="M360.32,172.17c9.76,4.31,12.31,16.26,12.31,16.26l-13.87,7.09s-7.41-10.85-6.64-15.66C352.93,174.83,354.83,169.74,360.32,172.17Z" style="fill:#263238"></path><path d="M393.33,200.06l5.41-5.73L402,203s-4.62,2.67-9.19.41Z" style="fill:#ffc3bd"></path><polygon points="406.42 193.24 407.64 200.09 401.99 202.95 398.74 194.33 406.42 193.24" style="fill:#ffc3bd"></polygon><polygon points="339.49 412.19 348.27 411.92 347.53 388.49 338.75 388.75 339.49 412.19" style="fill:#ffc3bd"></polygon><path d="M348.77,406.27l-9.91,0a.7.7,0,0,0-.71.6L337,414.73a1.42,1.42,0,0,0,1.42,1.57c3.45-.07,5.12-.27,9.48-.28,2.68,0,8.61.37,12.31.37s3.89-3.67,2.35-4c-6.92-1.47-10-3.63-12.36-5.58A2.26,2.26,0,0,0,348.77,406.27Z" style="fill:#263238"></path><polygon points="338.75 388.75 347.53 388.49 347.86 399.08 339.09 399.33 338.75 388.75" style="opacity:0.2"></polygon><path d="M357.54,171.55s4.12.73,3.6,53.17l-35.41,5.4c-1.6-14.51-2.94-23.4-14.34-51.92a105.37,105.37,0,0,1,14.73-4.28,114.81,114.81,0,0,1,16.08-2.45A151.75,151.75,0,0,1,357.54,171.55Z" style="fill:#263238"></path><path d="M325,155.57c1.8,5,4.26,14.35,1.16,18.35a60.35,60.35,0,0,0,14.53,5.8c5-5.62,1.55-8.25,1.55-8.25-6-.5-6.48-4.8-6.09-9Z" style="fill:#ffc3bd"></path><path d="M329.51,158.4l6.6,4.09a16,16,0,0,0-.06,2.93c-1.57,1.8-7,1.75-7.62-.53C328.14,163.76,329.4,159,329.51,158.4Z" style="opacity:0.2"></path><path d="M338.36,141.82c2,8.52,3.05,12.08.13,17.65-4.4,8.38-15.31,9-19.83,1.26-4.07-7-6.69-19.73.49-25.54A12,12,0,0,1,338.36,141.82Z" style="fill:#ffc3bd"></path><path d="M335.13,132.72c3.59,5-16.14,15.1-23.06,16.6-1.22-8.36,1.87-16,7.46-18.27S332.69,129.35,335.13,132.72Z" style="fill:#263238"></path><path d="M329.3,136c-1.42,7.76,13.22,11.75,13.49,21.34,2.65-5.54,3.37-18.64-.45-21.49S330.3,130.49,329.3,136Z" style="fill:#263238"></path><path d="M343,147.45a6.41,6.41,0,0,1-1.86,4.52c-1.59,1.58-3.48.41-3.95-1.66-.42-1.87-.09-4.94,1.94-5.74A2.88,2.88,0,0,1,343,147.45Z" style="fill:#ffc3bd"></path><path d="M341.83,152.55a1,1,0,0,1-1.95,0,1,1,0,1,1,1.95,0Z" style="fill:#5F210B"></path><path d="M367.33,253.22l-23.12-.33c1,3.59,2.05,7.45,3.07,11.49,3.25,4.52,6.71,8.65,10,12.49C358.78,263,369.89,260.2,367.33,253.22Z" style="opacity:0.2"></path><path d="M344.22,324.33c1,6.3,2,13.09,2.77,20l1.51-.95c1.53-1,3.12-2,4.75-3a86.79,86.79,0,0,0-.57-24.11Z" style="opacity:0.2"></path><path d="M353.43,226s-2.13,53.67-2.12,88.2c0,27.89-1.36,79.21-1.36,79.21l-12.32,1.71s-8.75-55.06-7.89-74c2.13-46.49-12.94-73.45-4-91Z" style="fill:#5F210B"></path><polygon points="351.69 396.48 336.44 396.66 335.53 390.61 351.89 390.61 351.69 396.48" style="fill:#263238"></polygon><path d="M324.88,228.12l-1.11,3.41c-.09.27.24.48.65.41l37.14-5.66c.32-.05.56-.25.55-.45l-.16-3.22c0-.22-.32-.37-.67-.31l-35.86,5.47A.67.67,0,0,0,324.88,228.12Z" style="fill:#5F210B"></path><path d="M324.88,228.12l-1.11,3.41c-.09.27.24.48.65.41l37.14-5.66c.32-.05.56-.25.55-.45l-.16-3.22c0-.22-.32-.37-.67-.31l-35.86,5.47A.67.67,0,0,0,324.88,228.12Z" style="opacity:0.30000000000000004"></path><path d="M330.31,231.4l-1,.14c-.19,0-.35,0-.36-.17l-.17-4.18c0-.13.14-.25.33-.28l1-.15c.2,0,.36.05.36.17l.18,4.19C330.66,231.24,330.5,231.37,330.31,231.4Z" style="fill:#5F210B"></path><path d="M358.91,227l-1,.15c-.19,0-.35-.05-.35-.17l-.18-4.19c0-.12.15-.24.34-.27l1-.15c.19,0,.35,0,.36.17l.17,4.19C359.26,226.88,359.11,227,358.91,227Z" style="fill:#5F210B"></path><path d="M344.61,229.21l-1,.15c-.19,0-.35-.05-.35-.17l-.18-4.19c0-.12.14-.24.34-.27l1-.15c.19,0,.35,0,.35.17l.18,4.19C345,229.06,344.8,229.19,344.61,229.21Z" style="fill:#5F210B"></path><path d="M325.56,148.29c.2.68,0,1.34-.44,1.48s-1-.31-1.18-1,0-1.34.44-1.48S325.35,147.61,325.56,148.29Z" style="fill:#263238"></path><path d="M317.86,150.62c.21.68,0,1.34-.43,1.48s-1-.31-1.18-1,0-1.34.43-1.48S317.65,149.94,317.86,150.62Z" style="fill:#263238"></path><path d="M316.89,149.61l-1.78,0S316.34,150.66,316.89,149.61Z" style="fill:#263238"></path><path d="M321.07,150.89A19.14,19.14,0,0,1,320,156a3.08,3.08,0,0,0,2.56-.28Z" style="fill:#ed847e"></path><path d="M326.94,157.11a5.78,5.78,0,0,0,2.8-3.2.17.17,0,0,0-.12-.21.16.16,0,0,0-.21.11,5.71,5.71,0,0,1-3.79,3.47.17.17,0,0,0,.1.33A7.21,7.21,0,0,0,326.94,157.11Z" style="fill:#263238"></path><path d="M328.47,143.68a.35.35,0,0,0,.14-.13.35.35,0,0,0-.12-.48,4.13,4.13,0,0,0-3.74-.32.35.35,0,0,0-.16.46.36.36,0,0,0,.47.17,3.35,3.35,0,0,1,3.07.29A.37.37,0,0,0,328.47,143.68Z" style="fill:#263238"></path><path d="M314.07,148.16a.37.37,0,0,0,.13-.12,3.39,3.39,0,0,1,2.62-1.62.35.35,0,0,0,.35-.35.35.35,0,0,0-.35-.35,4.06,4.06,0,0,0-3.2,1.94.34.34,0,0,0,.1.48A.32.32,0,0,0,314.07,148.16Z" style="fill:#263238"></path><path d="M368,255.61a24.85,24.85,0,0,0,6.1-4c10.39-9.2,8.41-23.06-1.09-33.17-9.14-9.73-21.71-12.88-31.78-4a24.81,24.81,0,0,0-4.7,5.59,18.88,18.88,0,0,1-12.74,8.84,29.86,29.86,0,0,0-16.14,8.6c-10.27,10.54-7.25,23.78,1.73,35.44,10.67,13.88,26.64,19.17,39.53,7.76a29.72,29.72,0,0,0,8.77-13.62A18.78,18.78,0,0,1,368,255.61Z" style="fill:#5F210B"></path><path d="M368,255.61a24.85,24.85,0,0,0,6.1-4c10.39-9.2,8.41-23.06-1.09-33.17-9.14-9.73-21.71-12.88-31.78-4a24.81,24.81,0,0,0-4.7,5.59,18.88,18.88,0,0,1-12.74,8.84,29.86,29.86,0,0,0-16.14,8.6c-10.27,10.54-7.25,23.78,1.73,35.44,10.67,13.88,26.64,19.17,39.53,7.76a29.72,29.72,0,0,0,8.77-13.62A18.78,18.78,0,0,1,368,255.61Z" style="fill:#fff;opacity:0.7000000000000001"></path><rect x="372.08" y="176.35" width="9.67" height="79.28" transform="translate(288.9 -209.42) rotate(48.5)" style="fill:#5F210B"></rect><rect x="372.08" y="176.35" width="9.67" height="79.28" transform="translate(288.9 -209.42) rotate(48.5)" style="fill:#fff;opacity:0.30000000000000004"></rect><path d="M356.36,246.83a9.48,9.48,0,1,1,.82-13.38A9.48,9.48,0,0,1,356.36,246.83Z" style="fill:#263238"></path><path d="M402.73,197.1l-3.93-4.43a3.48,3.48,0,0,1,.3-4.88l7.61-6.73a6.43,6.43,0,0,1,9.05.55h0a6.43,6.43,0,0,1-.55,9l-7.61,6.74A3.46,3.46,0,0,1,402.73,197.1Z" style="fill:#5F210B"></path><path d="M337.51,260.14l-9.22-10.41a1.48,1.48,0,0,1,.13-2.09h0a1.49,1.49,0,0,1,2.09.12l9.21,10.42a1.48,1.48,0,0,1-.12,2.09h0A1.48,1.48,0,0,1,337.51,260.14Z" style="fill:#5F210B;opacity:0.30000000000000004"></path><path d="M333.43,253.56a.24.24,0,0,1-.18-.09.25.25,0,0,1,0-.35l77.36-68.45a.25.25,0,1,1,.33.37L333.6,253.5A.27.27,0,0,1,333.43,253.56Z" style="fill:#fff"></path><path d="M332.29,252.26a.24.24,0,0,1-.19-.08.24.24,0,0,1,0-.35l69.12-61.17a.24.24,0,0,1,.35,0,.25.25,0,0,1,0,.35L332.46,252.2A.27.27,0,0,1,332.29,252.26Z" style="fill:#fff"></path><path d="M334.58,254.85a.27.27,0,0,1-.19-.08.26.26,0,0,1,0-.36L411.78,186a.25.25,0,0,1,.33.37l-77.37,68.46A.23.23,0,0,1,334.58,254.85Z" style="fill:#fff"></path><path d="M335.72,256.14a.22.22,0,0,1-.18-.08.23.23,0,0,1,0-.35l69.12-61.17a.25.25,0,0,1,.35,0,.25.25,0,0,1,0,.36l-69.12,61.16A.27.27,0,0,1,335.72,256.14Z" style="fill:#fff"></path><path d="M319.3,189.94c-.89,2.79-1.83,5.67-2.69,8.51s-1.74,5.71-2.48,8.55-1.43,5.7-1.9,8.41c-.12.69-.17,1.32-.26,2a6.4,6.4,0,0,0,0,1.38,10.25,10.25,0,0,0,1,3.07,26.69,26.69,0,0,0,4.77,6.31,68.91,68.91,0,0,0,6.48,5.7c2.3,1.81,4.74,3.5,7.23,5.13s5.06,3.21,7.59,4.66l-1.89,4.1a98.89,98.89,0,0,1-16.7-8.55,60.69,60.69,0,0,1-7.72-5.76,32.31,32.31,0,0,1-6.66-7.83,17.22,17.22,0,0,1-2.1-5.47,14.49,14.49,0,0,1-.24-3.17c.05-.85.07-1.74.16-2.56a78.1,78.1,0,0,1,1.58-9.5A160.16,160.16,0,0,1,310.7,187Z" style="fill:#ffc3bd"></path><path d="M336.33,243.31l7.88,0-3.43,7s-5.13-.74-6.6-4.09Z" style="fill:#ffc3bd"></path><polygon points="347.69 245.82 343.52 251.4 340.78 250.3 344.21 243.34 347.69 245.82" style="fill:#ffc3bd"></polygon><path d="M311.39,178.2c-4.07,1.78-7.08,15.42-7.08,15.42l16,8.22s3.37-12.49,1.58-17.92C320.33,179.31,316.57,175.93,311.39,178.2Z" style="fill:#263238"></path><path d="M353.66,407a1.13,1.13,0,0,1-.22.27c-.81.75-2.84.41-4,.15a.17.17,0,0,1-.13-.14.16.16,0,0,1,.07-.18c.3-.2,3-1.92,4-1.47a.69.69,0,0,1,.4.56A1.32,1.32,0,0,1,353.66,407Zm-3.7.17c1.59.32,2.79.27,3.25-.15a.83.83,0,0,0,.22-.78.32.32,0,0,0-.19-.29C352.62,405.71,350.9,406.63,350,407.21Z" style="fill:#5F210B"></path><path d="M351.48,405.35a6.31,6.31,0,0,1-1.89,2.09.17.17,0,0,1-.17,0,.19.19,0,0,1-.09-.15c0-.11,0-2.64.95-3.47a1.06,1.06,0,0,1,.86-.28.69.69,0,0,1,.67.56A2,2,0,0,1,351.48,405.35Zm-1.79,1.6c.81-.63,1.92-2.12,1.78-2.79,0-.11-.08-.24-.37-.27a.69.69,0,0,0-.58.18C349.87,404.65,349.72,406.25,349.69,407Z" style="fill:#5F210B"></path><path d="M324.58,147.28l-1.77,0S324,148.33,324.58,147.28Z" style="fill:#263238"></path></g><g id="freepik--Piano--inject-76"><rect x="91.26" y="229.81" width="218.76" height="183.32" style="fill:#5F210B"></rect><polygon points="206.75 231.64 173.18 231.64 123.64 413.13 157.22 413.13 206.75 231.64" style="fill:#fff;opacity:0.05"></polygon><polygon points="227.85 231.64 213.64 231.64 164.1 413.13 178.31 413.13 227.85 231.64" style="fill:#fff;opacity:0.05"></polygon><polygon points="297.2 231.64 282.98 231.64 233.44 413.13 247.66 413.13 297.2 231.64" style="fill:#fff;opacity:0.05"></polygon><rect x="105.39" y="289.99" width="218.76" height="14.54" style="fill:#5F210B"></rect><rect x="105.39" y="304.54" width="204.63" height="4.59" style="opacity:0.1"></rect><polygon points="110.55 289.99 105.39 289.99 105.39 304.54 117.77 304.54 117.77 295.23 110.55 295.23 110.55 289.99" style="opacity:0.1"></polygon><rect x="110.55" y="289.99" width="209.6" height="5.24" style="fill:#fff;opacity:0.8"></rect><rect x="125.33" y="220.55" width="22.75" height="1" style="fill:#5F210B"></rect><rect x="110.75" y="220.55" width="6" height="1" style="fill:#5F210B"></rect><path d="M314.73,229.81H86.55a2.88,2.88,0,0,1-2.88-2.88h0a2.88,2.88,0,0,1,2.88-2.88H314.73a2.88,2.88,0,0,1,2.88,2.88h0A2.88,2.88,0,0,1,314.73,229.81Z" style="fill:#5F210B"></path><rect x="91.26" y="229.81" width="14.13" height="183.32" style="opacity:0.1"></rect><rect x="105.39" y="229.81" width="204.63" height="1.83" transform="translate(415.4 461.45) rotate(180)" style="opacity:0.1"></rect><rect x="105.39" y="398.69" width="204.63" height="1.83" transform="translate(415.4 799.21) rotate(180)" style="opacity:0.1"></rect><g style="opacity:0.1"><path d="M184.84,237.92a79.33,79.33,0,0,1,26.36,0q1.16,21.14,2.29,42.26a79.33,79.33,0,0,0-26.36,0Q186,259,184.84,237.92Z"></path><path d="M237.56,237.92a79.33,79.33,0,0,0-26.36,0q1.16,21.14,2.29,42.26a79.33,79.33,0,0,1,26.36,0Q238.71,259,237.56,237.92Z"></path></g><path d="M184.84,237.85a84.43,84.43,0,0,1,26.36,0q1.91,19.89,3.8,39.78a83.83,83.83,0,0,0-26.36,0Q186.75,257.74,184.84,237.85Z" style="fill:#fff"></path><path d="M237.56,237.85a84.43,84.43,0,0,0-26.36,0q1.91,19.89,3.8,39.78a83.89,83.89,0,0,1,26.37,0Z" style="fill:#fff"></path><path d="M182.43,411.45l-12.22-1a2.12,2.12,0,0,1-2-2.11v-.89a2.11,2.11,0,0,1,2.28-2.1l12.11,1c1,.08,1.75,1.2,1.75,2.56h0C184.4,410.37,183.5,411.54,182.43,411.45Z" style="opacity:0.30000000000000004"></path><path d="M202.28,411.45l-12.23-1a2.12,2.12,0,0,1-2-2.11v-.89a2.11,2.11,0,0,1,2.28-2.1l12.11,1c1,.08,1.75,1.2,1.75,2.56h0C204.24,410.37,203.34,411.54,202.28,411.45Z" style="opacity:0.30000000000000004"></path></g><g id="freepik--character-1--inject-76"><path d="M292.18,231.21c1.7,2.23,3.13,4.36,4.59,6.61s2.81,4.49,4.1,6.83a89,89,0,0,1,6.67,14.74,48.93,48.93,0,0,1,2,8.2c.12.71.19,1.45.27,2.18a15.9,15.9,0,0,1,0,2.59,15.17,15.17,0,0,1-1.31,5.1,18.46,18.46,0,0,1-6.09,7.24,23.59,23.59,0,0,1-3.75,2.23,25.23,25.23,0,0,1-4.05,1.56l-1.9-4.57c3.69-2.56,7.22-6.18,8-9.47a7.05,7.05,0,0,0,.24-2.39,10.83,10.83,0,0,0-.16-1.24c-.1-.54-.17-1.07-.3-1.62a45.21,45.21,0,0,0-2-6.6,94.37,94.37,0,0,0-6.4-13q-1.86-3.19-3.86-6.31c-1.32-2.05-2.77-4.16-4.11-6.05Z" style="fill:#ff8b7b"></path><path d="M293.12,283.28l-6.28,1.28,3.71,5.88s6.51,1.21,7.19-2.92Z" style="fill:#ff8b7b"></path><polygon points="280.12 288.15 283.36 291.32 290.55 290.44 286.84 284.56 280.12 288.15" style="fill:#ff8b7b"></polygon><path d="M277,192.23c.2.67.72,1.1,1.15,1s.63-.77.43-1.44-.71-1.11-1.15-1S276.81,191.56,277,192.23Z" style="fill:#263238"></path><path d="M277.66,193.35a25,25,0,0,0,4.89,4.77c-.85,1.45-3,1.55-3,1.55Z" style="fill:#ff5652"></path><path d="M273.53,188.39a.5.5,0,0,0,.23-.09,3.25,3.25,0,0,1,2.89-.66.41.41,0,1,0,.26-.77,4,4,0,0,0-3.65.78.41.41,0,0,0,.27.74Z" style="fill:#263238"></path><path d="M273,200.25c-1.24,6.32-2.48,17.9,1.95,22.12,0,0-1.73,6.41-13.48,6.41-12.92,0-6.17-6.41-6.17-6.41,7.05-1.68,6.86-6.91,5.64-11.82Z" style="fill:#ff8b7b"></path><path d="M276.8,224.49c.8-2.45,1.66-5.26-.49-6-2.37-.82-18.13-1-22.4,1.06s.26,6.71.26,6.71Z" style="fill:#263238"></path><path d="M244.57,240.09c-1.25,3.36-2.59,6.61-3.93,9.9s-2.79,6.52-4.24,9.77-3,6.48-4.61,9.68a91.17,91.17,0,0,1-5.51,9.67l-.27.4-.19.2a21.06,21.06,0,0,1-6.65,4.35,39.53,39.53,0,0,1-6.71,2.15,57.49,57.49,0,0,1-6.67,1.08,59.16,59.16,0,0,1-6.69.3l-.47-4.93c1.92-.51,4-1,5.91-1.66s3.88-1.26,5.72-2a38.31,38.31,0,0,0,5.19-2.46,13.92,13.92,0,0,0,3.73-3l-.47.6a98.21,98.21,0,0,0,4.48-8.89q2.12-4.69,4.16-9.49c1.35-3.2,2.65-6.43,4-9.65l3.92-9.67Z" style="fill:#ff8b7b"></path><path d="M290.42,224.33c8.1,1.85,17.39,23.94,17.39,23.94l-16.27,11.15a136.63,136.63,0,0,1-10.74-18.27C276,231,282.14,222.43,290.42,224.33Z" style="fill:#5F210B"></path><path d="M290.42,224.33c8.1,1.85,17.39,23.94,17.39,23.94l-16.27,11.15a136.63,136.63,0,0,1-10.74-18.27C276,231,282.14,222.43,290.42,224.33Z" style="fill:#fff;opacity:0.6000000000000001"></path><path d="M284.62,238.41l7.69,20.48-.77.53s-3.32-4.67-6.92-11Z" style="opacity:0.2"></path><path d="M242,224.77s-8.18,11.41.51,75.72h46.22c.32-7.1-5.15-42.73,1.69-76.16a121.13,121.13,0,0,0-15.47-2,171.62,171.62,0,0,0-19.65,0A87.46,87.46,0,0,0,242,224.77Z" style="fill:#5F210B"></path><path d="M242,224.77s-8.18,11.41.51,75.72h46.22c.32-7.1-5.15-42.73,1.69-76.16a121.13,121.13,0,0,0-15.47-2,171.62,171.62,0,0,0-19.65,0A87.46,87.46,0,0,0,242,224.77Z" style="fill:#fff;opacity:0.6000000000000001"></path><path d="M247.13,243.37l-8.62,7.9c0,4.57.18,9.88.57,16C250.65,258.92,247,243.55,247.13,243.37Z" style="opacity:0.2"></path><path d="M252,230.47c2.24,8-10.9,30.86-10.9,30.86l-17.57-8.85s2.89-12,9.36-20.53C240.27,222.24,249.55,221.82,252,230.47Z" style="fill:#5F210B"></path><path d="M252,230.47c2.24,8-10.9,30.86-10.9,30.86l-17.57-8.85s2.89-12,9.36-20.53C240.27,222.24,249.55,221.82,252,230.47Z" style="fill:#fff;opacity:0.6000000000000001"></path><path d="M204.36,281l-10.49.66,1,8.73a9.85,9.85,0,0,0,9.2-4.25Z" style="fill:#ff8b7b"></path><polygon points="188.76 286.46 188.76 290.56 194.9 290.37 193.87 281.64 188.76 286.46" style="fill:#ff8b7b"></polygon><polygon points="240.72 411.23 232.08 411.23 227.74 391.22 236.38 391.22 240.72 411.23" style="fill:#ff8b7b"></polygon><path d="M231.47,408h9.7a.76.76,0,0,1,.74.59l1.71,7.69a1.27,1.27,0,0,1-1.27,1.53c-3.39-.06-5-.25-9.3-.25-2.63,0-6,.27-9.63.27s-4.1-3.59-2.62-3.91c6.66-1.46,7.13-3.47,9.26-5.39A2.15,2.15,0,0,1,231.47,408Z" style="fill:#263238"></path><g style="opacity:0.2"><polygon points="236.38 391.22 227.74 391.22 230.15 402.31 238.63 401.54 236.38 391.22"></polygon></g><path d="M254.3,197.42c2.94,8.06,4.25,12.93,9.65,15.91,8.11,4.49,17.13-2.28,16.66-11.05-.43-7.9-5.16-19.75-14.17-20.63A11.7,11.7,0,0,0,254.3,197.42Z" style="fill:#ff8b7b"></path><path d="M270.16,211.31c3-3.19,3.55-10.37,2.55-14.8,1-4,5.89-12,1.89-16s-10.4-5.88-18-5.16c-.19,1.17,2,2.29,2,2.29s-17.8-2.69-12.76,8.5c-7.27,11.84,6,17.21,1.75,21.78.74,2.23,5.77,5.5,10.94,1.84a4.34,4.34,0,0,1-.85,5C262.44,214.71,267.15,214.49,270.16,211.31Z" style="fill:#263238"></path><path d="M247.38,185.91s-4-.59-5.14,3.09A16.29,16.29,0,0,1,247.38,185.91Z" style="fill:#263238"></path><path d="M246.78,186.36s-3.29.95-3.94-3.13A10.57,10.57,0,0,0,246.78,186.36Z" style="fill:#263238"></path><path d="M268.36,196.41a9.63,9.63,0,0,0,4.43,4.37c2.53,1.2,3.86-.74,3.2-3.21-.59-2.22-2.62-5.51-5.19-5.69S267.23,194.1,268.36,196.41Z" style="fill:#ff8b7b"></path><path d="M256.36,300.49S216.23,315,215,334.3c-2.18,35.47,12.3,62.85,12.3,62.85h13s-2-12.14-3.76-44.27c-2.22-40.38,66.31.94,52.19-52.39Z" style="fill:#5F210B"></path><path d="M256.36,300.49S216.23,315,215,334.3c-2.18,35.47,12.3,62.85,12.3,62.85h13s-2-12.14-3.76-44.27c-2.22-40.38,66.31.94,52.19-52.39Z" style="opacity:0.5"></path><path d="M224.64,393.9c-.06,0,2,5.91,2,5.91l15-1.47-.81-5.37Z" style="fill:#fff"></path><polygon points="202.92 407.94 194.28 407.94 191.75 387.93 200.39 387.93 202.92 407.94" style="fill:#ff8b7b"></polygon><path d="M193.86,401.63l9.09,2.54a.74.74,0,0,1,.55.76l-.42,7.86a1.26,1.26,0,0,1-1.61,1.15c-3.27-1-7.95-2.48-12.07-3.63-4.82-1.35-5.82-1.34-11.47-2.92-3.42-.95-3.4-4.67-1.89-4.59,6.91.4,9,.82,15.63-1.08A4.08,4.08,0,0,1,193.86,401.63Z" style="fill:#263238"></path><polygon points="191.75 387.93 193.13 398.83 201.7 398.25 200.4 387.93 191.75 387.93" style="opacity:0.2"></polygon><path d="M242.51,300.49s-65.77,5.83-65.06,38.86c.74,34.35,12.67,54.51,12.67,54.51H203s-1.54-14.81-1.11-48.63c.13-10.13,20.6-13.48,40.6-14.66,17.27-1,33.44-10.87,40.15-26.82l1.37-3.26Z" style="fill:#5F210B"></path><path d="M242.51,300.49s-65.77,5.83-65.06,38.86c.74,34.35,12.67,54.51,12.67,54.51H203s-1.54-14.81-1.11-48.63c.13-10.13,20.6-13.48,40.6-14.66,17.27-1,33.44-10.87,40.15-26.82l1.37-3.26Z" style="opacity:0.5"></path><path d="M187.12,390.41c-.06,0,2.2,5.93,2.2,5.93l15.5-1.1-.9-5.38Z" style="fill:#fff"></path></g><g id="freepik--Chair--inject-76"><rect x="212.38" y="333.03" width="84.25" height="8.11" style="fill:#5F210B"></rect><rect x="212.38" y="333.03" width="84.25" height="8.11" style="fill:#fff;opacity:0.6000000000000001"></rect><rect x="212.38" y="333.03" width="19.76" height="8.11" style="fill:#5F210B;opacity:0.4"></rect><polygon points="236.53 422.33 227.74 422.33 226.64 341.14 237.63 341.14 236.53 422.33" style="fill:#5F210B"></polygon><polygon points="236.53 422.33 227.74 422.33 226.64 341.14 237.63 341.14 236.53 422.33" style="fill:#fff;opacity:0.6000000000000001"></polygon><polygon points="232.14 422.33 227.74 422.33 226.64 341.14 232.14 341.14 232.14 422.33" style="fill:#5F210B;opacity:0.4"></polygon><polygon points="222.27 422.33 213.48 422.33 212.38 341.14 223.37 341.14 222.27 422.33" style="fill:#5F210B"></polygon><polygon points="222.27 422.33 213.48 422.33 212.38 341.14 223.37 341.14 222.27 422.33" style="fill:#fff;opacity:0.6000000000000001"></polygon><polygon points="217.87 422.33 213.48 422.33 212.38 341.14 217.87 341.14 217.87 422.33" style="fill:#5F210B;opacity:0.4"></polygon><polygon points="295.53 422.33 286.74 422.33 285.64 341.14 296.63 341.14 295.53 422.33" style="fill:#5F210B"></polygon><polygon points="295.53 422.33 286.74 422.33 285.64 341.14 296.63 341.14 295.53 422.33" style="fill:#fff;opacity:0.6000000000000001"></polygon><polygon points="291.13 422.33 286.74 422.33 285.64 341.14 291.13 341.14 291.13 422.33" style="fill:#5F210B;opacity:0.4"></polygon><polygon points="281.27 422.33 272.48 422.33 271.38 341.14 282.37 341.14 281.27 422.33" style="fill:#5F210B"></polygon><polygon points="281.27 422.33 272.48 422.33 271.38 341.14 282.37 341.14 281.27 422.33" style="fill:#fff;opacity:0.6000000000000001"></polygon><polygon points="276.87 422.33 272.48 422.33 271.38 341.14 276.87 341.14 276.87 422.33" style="fill:#5F210B;opacity:0.4"></polygon><path d="M296.47,326.38c-14.41-1.6-69.52-1.6-83.93,0a2.11,2.11,0,0,0-1.71,2.92l.91,2.21A2.49,2.49,0,0,0,214,333h81a2.46,2.46,0,0,0,2.28-1.52l.92-2.21A2.11,2.11,0,0,0,296.47,326.38Z" style="fill:#263238"></path></g></svg>